<?xml version="1.0"?>
<svg width="375" height="374.999991" xmlns="http://www.w3.org/2000/svg" xmlns:svg="http://www.w3.org/2000/svg" preserveAspectRatio="xMidYMid meet" version="1.0">
 <defs>
  <g id="svg_1"/>
  <clipPath id="ab5fe4b9e1">
   <path clip-rule="nonzero" d="m67.85,157.55l59.9,0l0,59.9l-59.9,0l0,-59.9zm0,0" id="svg_2"/>
  </clipPath>
  <clipPath id="6cc3d3e6fa">
   <path clip-rule="nonzero" d="m97.8,157.55c-16.54,0 -29.95,13.41 -29.95,29.95c0,16.54 13.41,29.95 29.95,29.95c16.54,0 29.95,-13.41 29.95,-29.95c0,-16.54 -13.41,-29.95 -29.95,-29.95" id="svg_3"/>
  </clipPath>
  <clipPath id="15a5364577">
   <path clip-rule="nonzero" d="m69.25,158.95l57.11,0l0,57.1l-57.11,0l0,-57.1zm0,0" id="svg_4"/>
  </clipPath>
  <clipPath id="fe1c3e58eb">
   <path clip-rule="nonzero" d="m97.8,158.95c-15.77,0 -28.55,12.78 -28.55,28.55c0,15.77 12.78,28.55 28.55,28.55c15.77,0 28.56,-12.78 28.56,-28.55c0,-15.77 -12.79,-28.55 -28.56,-28.55" id="svg_5"/>
  </clipPath>
  <clipPath id="0586c0eac9">
   <path clip-rule="nonzero" d="m70.56,160.26l54.48,0l0,54.48l-54.48,0l0,-54.48zm0,0" id="svg_6"/>
  </clipPath>
  <clipPath id="489602b0a8">
   <path clip-rule="nonzero" d="m97.8,160.26c-15.05,0 -27.24,12.19 -27.24,27.24c0,15.05 12.19,27.24 27.24,27.24c15.05,0 27.24,-12.19 27.24,-27.24c0,-15.05 -12.19,-27.24 -27.24,-27.24" id="svg_7"/>
  </clipPath>
  <clipPath id="bdb92abe3d">
   <path clip-rule="nonzero" d="m79.38,169.07l36.85,0l0,36.86l-36.85,0l0,-36.86zm0,0" id="svg_8"/>
  </clipPath>
  <clipPath id="808fec9ba7">
   <path clip-rule="nonzero" d="m97.8,169.07c-10.17,0 -18.42,8.25 -18.42,18.43c0,10.18 8.25,18.43 18.42,18.43c10.18,0 18.43,-8.25 18.43,-18.43c0,-10.18 -8.25,-18.43 -18.43,-18.43" id="svg_9"/>
  </clipPath>
  <clipPath id="7273cee0a5">
   <path clip-rule="nonzero" d="m80.62,170.32l34.36,0l0,34.36l-34.36,0l0,-34.36zm0,0" id="svg_10"/>
  </clipPath>
  <clipPath id="4401d23590">
   <path clip-rule="nonzero" d="m97.8,170.32c-9.49,0 -17.18,7.69 -17.18,17.18c0,9.49 7.69,17.18 17.18,17.18c9.49,0 17.18,-7.69 17.18,-17.18c0,-9.49 -7.69,-17.18 -17.18,-17.18" id="svg_11"/>
  </clipPath>
  <clipPath id="09fe75889a">
   <path clip-rule="nonzero" d="m83.93,172.37l27.75,0l0,35.25l-27.75,0l0,-35.25zm0,0" id="svg_12"/>
  </clipPath>
  <clipPath id="1902d7c31b">
   <path clip-rule="nonzero" d="m85.13,173.55l25.5,0l0,32.25l-25.5,0l0,-32.25zm0,0" id="svg_13"/>
  </clipPath>
  <clipPath id="1146017757">
   <path clip-rule="nonzero" d="m86.36,174.96l22.5,0l0,29.25l-22.5,0l0,-29.25zm0,0" id="svg_14"/>
  </clipPath>
  <clipPath id="7d78ccbb23">
   <path clip-rule="nonzero" d="m88.58,179.3l18.75,0l0,21.75l-18.75,0l0,-21.75zm0,0" id="svg_15"/>
  </clipPath>
  <clipPath id="a2666a4e24">
   <path clip-rule="nonzero" d="m116.83,184l3.17,0l0,5l-3.17,0l0,-5zm0,0" id="svg_16"/>
  </clipPath>
  <clipPath id="5796904ec2">
   <path clip-rule="nonzero" d="m116.83,188l4.17,0l0,2.24l-4.17,0l0,-2.24zm0,0" id="svg_17"/>
  </clipPath>
  <clipPath id="deb6732b4a">
   <path clip-rule="nonzero" d="m119,187l4.58,0l0,3.24l-4.58,0l0,-3.24zm0,0" id="svg_18"/>
  </clipPath>
  <clipPath id="2f4f1aec00">
   <path clip-rule="nonzero" d="m121,183.49l2.58,0l0,5.51l-2.58,0l0,-5.51zm0,0" id="svg_19"/>
  </clipPath>
  <clipPath id="29d1850fb8">
   <path clip-rule="nonzero" d="m120,183.49l1,0l0,4.51l-1,0l0,-4.51zm0,0" id="svg_20"/>
  </clipPath>
  <clipPath id="aebbe3434e">
   <path clip-rule="nonzero" d="m71.71,184l3.29,0l0,5l-3.29,0l0,-5zm0,0" id="svg_21"/>
  </clipPath>
  <clipPath id="f3b9d22828">
   <path clip-rule="nonzero" d="m71.71,188l3.29,0l0,2.24l-3.29,0l0,-2.24zm0,0" id="svg_22"/>
  </clipPath>
  <clipPath id="bd7f3576af">
   <path clip-rule="nonzero" d="m74,187l4.46,0l0,3.24l-4.46,0l0,-3.24zm0,0" id="svg_23"/>
  </clipPath>
  <clipPath id="4fd44fc29a">
   <path clip-rule="nonzero" d="m76,183.49l2.46,0l0,5.51l-2.46,0l0,-5.51zm0,0" id="svg_24"/>
  </clipPath>
  <clipPath id="c7246ad586">
   <path clip-rule="nonzero" d="m74,183.49l2,0l0,4.51l-2,0l0,-4.51zm0,0" id="svg_25"/>
  </clipPath>
 </defs>
 <g class="layer" display="inline">
  <title>Layer 1</title>
  <g fill="#111b1e" id="svg_28">
   <g id="svg_29" transform="translate(132.385705, 181.775846)">
    <g id="svg_30">
     <path d="m7.14,-6.23l-3.81,0c-0.19,0 -0.43,-0.08 -0.43,-0.7l0,-0.94c0,-0.23 0.04,-0.41 0.1,-0.53c0.05,-0.08 0.13,-0.17 0.35,-0.17l5.15,0c0.11,0 0.36,-0.04 0.36,-0.43l0,-1.01c0,-0.4 -0.25,-0.44 -0.36,-0.44l-5.46,0c-0.7,0 -1.2,0.24 -1.53,0.7c-0.33,0.46 -0.49,1.07 -0.49,1.8l0,0.97c0,0.87 0.17,1.58 0.49,2.02c0.39,0.52 0.97,0.6 1.51,0.6l3.8,0c0.19,0 0.44,0.07 0.44,0.7l0,1.09c0,0.23 -0.03,0.4 -0.11,0.53c-0.05,0.08 -0.13,0.16 -0.35,0.16l-5.41,0c-0.11,0 -0.36,0.04 -0.36,0.43l0,1.02c0,0.39 0.25,0.43 0.36,0.43l5.72,0c0.7,0 1.22,-0.24 1.55,-0.71c0.31,-0.46 0.48,-1.05 0.48,-1.79l0,-1.11c0,-0.83 -0.17,-1.47 -0.5,-1.93c-0.34,-0.46 -0.84,-0.69 -1.5,-0.69zm0,0" id="svg_31"/>
    </g>
   </g>
  </g>
  <g fill="#111b1e" id="svg_32">
   <g id="svg_33" transform="translate(143.166084, 181.775846)">
    <g id="svg_34">
     <path d="m7.81,-9.27c-0.03,-0.06 -0.05,-0.14 -0.08,-0.19c-0.2,-0.65 -0.81,-1.12 -1.51,-1.12c-0.31,0 -0.62,0.08 -0.87,0.26c-0.08,0.04 -0.14,0.09 -0.19,0.13c-0.19,0.16 -0.38,0.47 -0.56,0.92l-3.53,8.79c-0.04,0.11 -0.05,0.23 -0.03,0.3c0.01,0.08 0.08,0.19 0.28,0.19l1.39,0c0.17,0 0.29,-0.1 0.36,-0.26l0.72,-1.82l2.78,0c0.13,0 0.26,-0.06 0.32,-0.17c0.08,-0.1 0.09,-0.24 0.06,-0.37l-0.46,-1.13c-0.06,-0.15 -0.2,-0.25 -0.37,-0.25l-1.57,0l1.62,-4.11c0.01,-0.03 0.03,-0.04 0.03,-0.04l0.05,0c0,0 0,0 0.01,0.03l3.15,7.84c0.06,0.18 0.18,0.28 0.36,0.28l1.36,0c0.2,0 0.25,-0.12 0.28,-0.19c0.02,-0.07 0.01,-0.19 -0.04,-0.3l-3.56,-8.79zm0,0" id="svg_35"/>
    </g>
   </g>
  </g>
  <g fill="#111b1e" id="svg_36">
   <g id="svg_37" transform="translate(156.239356, 181.775846)">
    <g id="svg_38">
     <path d="m9.99,-10.45l-1.13,0c-0.11,0 -0.36,0.04 -0.36,0.45l0,7.62c0,0.01 0,0.01 0,0.02l-0.06,0c-0.01,0 -0.02,0 -0.04,-0.03l-4,-7.13c-0.1,-0.19 -0.19,-0.34 -0.28,-0.46c-0.09,-0.12 -0.18,-0.22 -0.27,-0.29c-0.1,-0.07 -0.21,-0.12 -0.35,-0.15c-0.13,-0.01 -0.28,-0.03 -0.45,-0.03l-0.94,0c-0.37,0 -0.65,0.13 -0.83,0.36c-0.18,0.24 -0.26,0.66 -0.26,1.28l0,8.38c0,0.39 0.25,0.44 0.36,0.44l1.13,0c0.12,0 0.35,-0.05 0.35,-0.44l0,-7.62c0,-0.01 0,-0.02 0,-0.02l0.07,0c0,0 0.01,0 0.03,0.03l4.02,7.13c0.11,0.2 0.21,0.35 0.3,0.46c0.08,0.13 0.17,0.22 0.27,0.29c0.11,0.07 0.22,0.11 0.35,0.14c0.11,0.02 0.25,0.03 0.43,0.03l0.92,0c0.37,0 0.65,-0.12 0.83,-0.37c0.17,-0.22 0.26,-0.64 0.26,-1.26l0,-8.38c0,-0.41 -0.25,-0.45 -0.35,-0.45zm0,0" id="svg_39"/>
    </g>
   </g>
  </g>
  <g fill="#111b1e" id="svg_40">
   <g id="svg_41" transform="translate(168.223184, 181.775846)">
    <g id="svg_42">
     <path d="m9.67,-8.09c-0.13,-0.53 -0.34,-0.97 -0.61,-1.33c-0.27,-0.34 -0.64,-0.61 -1.08,-0.77c-0.43,-0.17 -0.93,-0.26 -1.53,-0.26l-4.42,0l0,0.02c-0.37,0.02 -0.69,0.23 -0.88,0.53c-0.05,0.1 -0.1,0.22 -0.12,0.32l-0.01,8.65c0.02,0.14 0.07,0.29 0.13,0.4c0.21,0.34 0.57,0.54 0.97,0.54l4.33,0c0.6,0 1.12,-0.08 1.53,-0.25c0.44,-0.17 0.81,-0.43 1.08,-0.79c0.27,-0.34 0.48,-0.78 0.61,-1.31c0.13,-0.54 0.19,-1.17 0.19,-1.88l0,-1.99c0,-0.71 -0.06,-1.34 -0.19,-1.88zm-6.79,6.15l0,-6.55c0,-0.05 0.01,-0.08 0.02,-0.08l3.51,0c0.29,0 0.55,0.04 0.75,0.12c0.2,0.07 0.36,0.17 0.47,0.34c0.13,0.16 0.22,0.38 0.27,0.65c0.05,0.28 0.08,0.64 0.08,1.06l0,2.37c0,0.42 -0.03,0.77 -0.08,1.05c-0.05,0.28 -0.14,0.5 -0.27,0.66c-0.11,0.15 -0.27,0.27 -0.47,0.34c-0.2,0.08 -0.46,0.1 -0.75,0.1l-3.52,0c0,0 -0.01,-0.01 -0.01,-0.06zm0,0" id="svg_43"/>
    </g>
   </g>
  </g>
  <g fill="#111b1e" id="svg_44">
   <g id="svg_45" transform="translate(179.725629, 181.775846)">
    <g id="svg_46">
     <path d="m9.2,-10.45l-1.16,0c-0.11,0 -0.34,0.06 -0.34,0.45l0,3.79l-4.81,0l0,-3.79c0,-0.39 -0.24,-0.45 -0.35,-0.45l-1.16,0c-0.11,0 -0.36,0.06 -0.36,0.45l0,9.57c0,0.39 0.25,0.44 0.36,0.44l1.16,0c0.11,0 0.35,-0.05 0.35,-0.44l0,-3.91l4.81,0l0,3.91c0,0.39 0.23,0.44 0.34,0.44l1.16,0c0.12,0 0.37,-0.05 0.37,-0.44l0,-9.57c0,-0.39 -0.25,-0.45 -0.37,-0.45zm0,0" id="svg_47"/>
    </g>
   </g>
  </g>
  <g fill="#111b1e" id="svg_48">
   <g id="svg_49" transform="translate(190.936718, 181.775846)">
    <g id="svg_50">
     <path d="m9.77,-10.45l-1.16,0c-0.12,0 -0.36,0.04 -0.36,0.44l0,6.24c0,0.39 -0.02,0.72 -0.06,0.96c-0.04,0.24 -0.12,0.43 -0.21,0.57c-0.1,0.12 -0.21,0.21 -0.37,0.28c-0.17,0.05 -0.4,0.08 -0.66,0.08l-2.74,0c-0.27,0 -0.5,-0.03 -0.66,-0.08c-0.17,-0.07 -0.28,-0.16 -0.38,-0.28c-0.09,-0.14 -0.17,-0.33 -0.22,-0.57c-0.04,-0.24 -0.06,-0.57 -0.06,-0.96l0,-6.24c0,-0.4 -0.24,-0.44 -0.35,-0.44l-1.16,0c-0.11,0 -0.36,0.04 -0.36,0.44l0,6.04c0,0.71 0.05,1.32 0.16,1.81c0.11,0.51 0.3,0.93 0.56,1.25c0.24,0.33 0.58,0.55 0.97,0.71c0.4,0.14 0.88,0.2 1.43,0.2l2.86,0c0.55,0 1.04,-0.06 1.43,-0.2c0.41,-0.16 0.73,-0.38 0.99,-0.71c0.25,-0.32 0.43,-0.74 0.54,-1.25c0.12,-0.49 0.17,-1.1 0.17,-1.81l0,-6.04c0,-0.4 -0.24,-0.44 -0.36,-0.44zm0,0" id="svg_51"/>
    </g>
   </g>
  </g>
  <g fill="#111b1e" id="svg_52">
   <g id="svg_53" transform="translate(202.705192, 181.775846)">
    <g id="svg_54">
     <path d="m9.77,-10.45l-8.39,0c-0.11,0 -0.36,0.04 -0.36,0.44l0,0.99c0,0.41 0.25,0.45 0.36,0.45l3.26,0l0,8.14c0,0.39 0.25,0.43 0.35,0.43l1.17,0c0.11,0 0.36,-0.04 0.36,-0.43l0,-8.14l3.25,0c0.12,0 0.37,-0.04 0.37,-0.45l0,-0.99c0,-0.4 -0.25,-0.44 -0.37,-0.44zm0,0" id="svg_55"/>
    </g>
   </g>
  </g>
  <g fill="#111b1e" id="svg_56">
   <g id="svg_57" transform="translate(132.385705, 204.275845)">
    <g id="svg_58">
     <path d="m10,-8.74l-5.33,0c-0.26,0 -0.6,-0.1 -0.6,-0.97l0,-1.32c0,-0.32 0.05,-0.57 0.14,-0.74c0.07,-0.11 0.18,-0.23 0.48,-0.23l7.23,0c0.14,0 0.49,-0.06 0.49,-0.61l0,-1.42c0,-0.55 -0.35,-0.6 -0.49,-0.6l-7.66,0c-0.97,0 -1.69,0.31 -2.15,0.97c-0.46,0.64 -0.69,1.5 -0.69,2.52l0,1.35c0,1.23 0.25,2.22 0.69,2.84c0.55,0.74 1.37,0.84 2.12,0.84l5.32,0c0.27,0 0.63,0.11 0.63,0.98l0,1.52c0,0.32 -0.05,0.57 -0.16,0.75c-0.07,0.11 -0.18,0.23 -0.48,0.23l-7.59,0c-0.16,0 -0.51,0.06 -0.51,0.61l0,1.41c0,0.56 0.35,0.61 0.51,0.61l8.01,0c0.98,0 1.71,-0.34 2.17,-1c0.44,-0.63 0.67,-1.47 0.67,-2.5l0,-1.56c0,-1.15 -0.23,-2.06 -0.69,-2.7c-0.48,-0.64 -1.19,-0.98 -2.11,-0.98zm0,0" id="svg_59"/>
    </g>
   </g>
  </g>
  <g fill="#111b1e" id="svg_60">
   <g id="svg_61" transform="translate(147.494274, 204.275845)">
    <g id="svg_62">
     <path d="m10.13,-14.63l-8.21,0c-0.14,0 -0.5,0.05 -0.5,0.62l0,1.4c0,0.55 0.36,0.61 0.5,0.61l7.74,0c0.45,0 0.77,0.12 0.94,0.39c0.2,0.26 0.29,0.69 0.29,1.27c0,0.59 -0.09,1.02 -0.29,1.28c-0.17,0.27 -0.49,0.39 -0.94,0.39l-7.74,0c-0.14,0 -0.5,0.06 -0.5,0.61l0,7.45c0,0.56 0.36,0.63 0.5,0.63l1.63,0c0.15,0 0.5,-0.07 0.5,-0.63l0,-5.43l6.08,-0.01c1.2,0 2.07,-0.38 2.6,-1.13c0.54,-0.74 0.79,-1.81 0.79,-3.21l0,0.11c0,-1.42 -0.25,-2.49 -0.79,-3.22c-0.53,-0.76 -1.4,-1.13 -2.6,-1.13zm0,0" id="svg_63"/>
    </g>
   </g>
  </g>
  <g fill="#111b1e" id="svg_64">
   <g id="svg_65" transform="translate(163.312994, 204.275845)">
    <g id="svg_66">
     <path d="m13.52,-13.34c-0.36,-0.44 -0.82,-0.78 -1.39,-0.99c-0.55,-0.2 -1.22,-0.3 -2,-0.3l-4.34,0c-0.78,0 -1.44,0.1 -1.99,0.3c-0.57,0.21 -1.03,0.55 -1.39,0.99c-0.33,0.45 -0.6,1.03 -0.76,1.74c-0.16,0.69 -0.23,1.53 -0.23,2.53l0,3.51c0,1 0.07,1.85 0.23,2.54c0.16,0.71 0.43,1.3 0.76,1.74c0.36,0.46 0.82,0.8 1.39,0.99c0.53,0.2 1.21,0.31 1.99,0.31l4.34,0c0.78,0 1.45,-0.11 2,-0.31c0.57,-0.19 1.03,-0.53 1.39,-0.97c0.35,-0.46 0.6,-1.05 0.76,-1.76c0.14,-0.69 0.23,-1.54 0.23,-2.54l0,-3.51c0,-0.98 -0.09,-1.84 -0.23,-2.53c-0.16,-0.71 -0.41,-1.29 -0.76,-1.74zm-1.66,3.96l0,4.14c0,0.52 -0.01,0.96 -0.09,1.31c-0.05,0.32 -0.16,0.61 -0.3,0.79c-0.12,0.19 -0.3,0.32 -0.53,0.39c-0.23,0.09 -0.53,0.12 -0.9,0.12l-4.16,0c-0.38,0 -0.68,-0.03 -0.91,-0.12c-0.23,-0.07 -0.41,-0.2 -0.53,-0.39c-0.14,-0.18 -0.23,-0.47 -0.3,-0.79c-0.05,-0.35 -0.09,-0.79 -0.09,-1.31l0,-4.14c0,-0.51 0.04,-0.96 0.09,-1.31c0.07,-0.34 0.16,-0.61 0.3,-0.8c0.12,-0.18 0.3,-0.3 0.53,-0.39c0.23,-0.07 0.53,-0.12 0.91,-0.12l4.16,0c0.37,0 0.67,0.05 0.9,0.12c0.23,0.09 0.41,0.21 0.53,0.39c0.14,0.19 0.25,0.46 0.3,0.8c0.08,0.35 0.09,0.8 0.09,1.31zm0,0" id="svg_67"/>
    </g>
   </g>
  </g>
  <g fill="#111b1e" id="svg_68">
   <g id="svg_69" transform="translate(180.125932, 204.275845)">
    <g id="svg_70">
     <path d="m13.53,-10.39c0,0.02 0,0.03 0,0.05c0,0.02 0,0.04 0,0.06l0,-0.11zm0.34,9.62l-3.11,-5.32c0.87,-0.11 1.55,-0.48 1.99,-1.09c0.5,-0.72 0.77,-1.77 0.78,-3.16c-0.01,-1.38 -0.28,-2.43 -0.78,-3.16c-0.53,-0.76 -1.42,-1.13 -2.62,-1.13l-8.19,0c-0.16,0 -0.52,0.05 -0.52,0.62l0,1.4c0,0.55 0.36,0.61 0.52,0.61l7.72,0c0.47,0 0.77,0.12 0.94,0.39c0.2,0.26 0.29,0.69 0.29,1.27c0,0.59 -0.09,1.02 -0.29,1.28c-0.17,0.27 -0.47,0.39 -0.94,0.39l-7.72,0c-0.16,0 -0.52,0.06 -0.52,0.61l0,7.45c0,0.56 0.36,0.63 0.52,0.63l1.61,0c0.16,0 0.5,-0.07 0.5,-0.63l0,-5.43l3.75,0l3.21,5.7c0.07,0.11 0.13,0.2 0.2,0.25c0.09,0.07 0.21,0.11 0.37,0.11l1.95,0c0.22,0 0.38,-0.15 0.41,-0.36c0.02,-0.18 0,-0.32 -0.07,-0.43zm0,0" id="svg_71"/>
    </g>
   </g>
  </g>
  <g fill="#111b1e" id="svg_72">
   <g id="svg_73" transform="translate(196.388501, 204.275845)">
    <g id="svg_74">
     <path d="m13.69,-14.63l-11.75,0c-0.16,0 -0.52,0.05 -0.52,0.6l0,1.39c0,0.58 0.36,0.64 0.52,0.64l4.56,0l0,11.39c0,0.56 0.36,0.61 0.5,0.61l1.63,0c0.16,0 0.5,-0.05 0.5,-0.61l0,-11.39l4.56,0c0.16,0 0.52,-0.06 0.52,-0.64l0,-1.39c0,-0.55 -0.36,-0.6 -0.52,-0.6zm0,0" id="svg_75"/>
    </g>
   </g>
  </g>
  <g fill="#111b1e" id="svg_76">
   <g id="svg_77" transform="translate(212.899624, 204.275845)">
    <g id="svg_78">
     <path d="m10,-8.74l-5.33,0c-0.26,0 -0.6,-0.1 -0.6,-0.97l0,-1.32c0,-0.32 0.05,-0.57 0.14,-0.74c0.07,-0.11 0.18,-0.23 0.48,-0.23l7.23,0c0.14,0 0.49,-0.06 0.49,-0.61l0,-1.42c0,-0.55 -0.35,-0.6 -0.49,-0.6l-7.66,0c-0.97,0 -1.69,0.31 -2.15,0.97c-0.46,0.64 -0.69,1.5 -0.69,2.52l0,1.35c0,1.23 0.25,2.22 0.69,2.84c0.55,0.74 1.37,0.84 2.12,0.84l5.32,0c0.27,0 0.63,0.11 0.63,0.98l0,1.52c0,0.32 -0.05,0.57 -0.16,0.75c-0.07,0.11 -0.18,0.23 -0.48,0.23l-7.59,0c-0.16,0 -0.51,0.06 -0.51,0.61l0,1.41c0,0.56 0.35,0.61 0.51,0.61l8.01,0c0.98,0 1.71,-0.34 2.17,-1c0.44,-0.63 0.67,-1.47 0.67,-2.5l0,-1.56c0,-1.15 -0.23,-2.06 -0.69,-2.7c-0.48,-0.64 -1.19,-0.98 -2.11,-0.98zm0,0" id="svg_79"/>
    </g>
   </g>
  </g>
  <g fill="#111b1e" id="svg_80">
   <g id="svg_81" transform="translate(228.008193, 204.275845)">
    <g id="svg_82"/>
   </g>
  </g>
  <g fill="#111b1e" id="svg_83">
   <g id="svg_84" transform="translate(238.021395, 204.275845)">
    <g id="svg_85">
     <path d="m12.27,-14.63l-6.46,0c-0.78,0 -1.46,0.1 -2.01,0.3c-0.57,0.21 -1.03,0.55 -1.37,0.99c-0.35,0.45 -0.62,1.03 -0.78,1.74c-0.16,0.69 -0.23,1.55 -0.23,2.53l0,3.51c0,1 0.07,1.85 0.23,2.56c0.16,0.69 0.43,1.28 0.78,1.74c0.36,0.44 0.82,0.78 1.37,0.97c0.55,0.2 1.23,0.31 2.01,0.31l6.46,0c0.14,0 0.5,-0.07 0.5,-0.63l0,-1.4c0,-0.55 -0.36,-0.62 -0.5,-0.62l-6.38,0c-0.37,0 -0.69,-0.03 -0.92,-0.12c-0.23,-0.07 -0.39,-0.2 -0.53,-0.39c-0.14,-0.18 -0.23,-0.45 -0.3,-0.79c-0.05,-0.35 -0.09,-0.79 -0.09,-1.33l0,-4.13c0,-0.54 0.04,-0.98 0.09,-1.32c0.07,-0.34 0.16,-0.59 0.3,-0.78c0.14,-0.2 0.3,-0.32 0.53,-0.39c0.23,-0.09 0.55,-0.12 0.92,-0.12l6.38,0c0.14,0 0.5,-0.08 0.5,-0.64l0,-1.37c0,-0.55 -0.36,-0.62 -0.5,-0.62zm0,0" id="svg_86"/>
    </g>
   </g>
  </g>
  <g fill="#111b1e" id="svg_87">
   <g id="svg_88" transform="translate(253.094453, 204.275845)">
    <g id="svg_89">
     <path d="m11.67,-2.63l-5.78,0c-0.37,0 -0.67,-0.03 -0.92,-0.12c-0.21,-0.07 -0.39,-0.2 -0.51,-0.39c-0.14,-0.2 -0.25,-0.47 -0.3,-0.79c-0.07,-0.35 -0.09,-0.79 -0.09,-1.33l0,-8.75c0,-0.57 -0.36,-0.62 -0.5,-0.62l-1.63,0c-0.16,0 -0.52,0.05 -0.52,0.62l0,8.45c0,1 0.09,1.85 0.25,2.54c0.16,0.71 0.41,1.3 0.76,1.74c0.36,0.46 0.82,0.8 1.39,0.99c0.53,0.2 1.21,0.31 1.99,0.31l5.86,0c0.16,0 0.49,-0.07 0.49,-0.63l0,-1.4c0,-0.55 -0.33,-0.62 -0.49,-0.62zm0,0" id="svg_90"/>
    </g>
   </g>
  </g>
  <g fill="#111b1e" id="svg_91">
   <g id="svg_92" transform="translate(267.563881, 204.275845)">
    <g id="svg_93">
     <path d="m13.69,-14.63l-1.63,0c-0.16,0 -0.5,0.05 -0.5,0.6l0,8.76c0,0.53 -0.03,0.99 -0.09,1.33c-0.05,0.33 -0.16,0.6 -0.28,0.8c-0.14,0.18 -0.3,0.3 -0.53,0.39c-0.23,0.07 -0.55,0.12 -0.93,0.12l-3.84,0c-0.37,0 -0.69,-0.05 -0.92,-0.12c-0.23,-0.09 -0.39,-0.21 -0.53,-0.39c-0.12,-0.2 -0.23,-0.47 -0.3,-0.8c-0.05,-0.34 -0.09,-0.8 -0.09,-1.33l0,-8.76c0,-0.55 -0.34,-0.6 -0.5,-0.6l-1.61,0c-0.16,0 -0.52,0.05 -0.52,0.6l0,8.47c0,1 0.07,1.85 0.23,2.54c0.16,0.71 0.43,1.3 0.78,1.74c0.34,0.46 0.82,0.78 1.37,0.99c0.55,0.2 1.23,0.29 2.01,0.29l3.99,0c0.79,0 1.46,-0.09 2.01,-0.29c0.57,-0.21 1.03,-0.53 1.39,-0.99c0.35,-0.44 0.6,-1.03 0.76,-1.74c0.16,-0.69 0.23,-1.54 0.23,-2.54l0,-8.47c0,-0.55 -0.34,-0.6 -0.5,-0.6zm0,0" id="svg_94"/>
    </g>
   </g>
  </g>
  <g fill="#111b1e" id="svg_95">
   <g id="svg_96" transform="translate(284.057253, 204.275845)">
    <g id="svg_97">
     <path d="m13.71,-10.11l0,-0.99c0,-1.15 -0.23,-2.04 -0.69,-2.63c-0.47,-0.6 -1.25,-0.9 -2.33,-0.9l-7.85,0l0,0.01c-0.51,0.04 -0.96,0.32 -1.22,0.75c-0.07,0.14 -0.15,0.3 -0.18,0.44l-0.02,12.13c0.04,0.2 0.11,0.39 0.2,0.55c0.28,0.48 0.79,0.77 1.34,0.77l8,0c0.53,0 0.97,-0.09 1.33,-0.27c0.37,-0.18 0.67,-0.43 0.89,-0.76c0.23,-0.32 0.37,-0.71 0.48,-1.17c0.09,-0.45 0.14,-0.96 0.14,-1.52l0,-1.18c0,-1.17 -0.34,-2.07 -0.98,-2.65c0.61,-0.6 0.89,-1.47 0.89,-2.58zm-9.68,7.39l0,-9.18c0,-0.07 0.02,-0.1 0.04,-0.1l6.16,0c0.34,0 0.59,0.08 0.73,0.24c0.14,0.16 0.21,0.45 0.21,0.82l0,1.23c0,0.33 -0.07,0.6 -0.23,0.78c-0.14,0.16 -0.44,0.25 -0.9,0.25l-3.45,0c-0.32,0 -0.59,0.26 -0.59,0.58l0,1.46c0,0.34 0.27,0.59 0.59,0.59l3.45,0c0.46,0 0.76,0.1 0.92,0.28c0.14,0.18 0.23,0.46 0.23,0.85l0,1.21c0,0.41 -0.07,0.69 -0.21,0.85c-0.15,0.16 -0.39,0.23 -0.75,0.23l-6.18,0c0,0 -0.02,-0.01 -0.02,-0.09zm0,0" id="svg_98"/>
    </g>
   </g>
  </g>
  <g clip-path="url(#ab5fe4b9e1)" id="svg_99">
   <g clip-path="url(#6cc3d3e6fa)" id="svg_100">
    <path d="m67.85,157.55l59.9,0l0,59.9l-59.9,0l0,-59.9zm0,0" fill="#ffffff" fill-rule="nonzero" id="svg_101"/>
   </g>
  </g>
  <g clip-path="url(#15a5364577)" id="svg_102">
   <g clip-path="url(#fe1c3e58eb)" id="svg_103">
    <path d="m69.25,158.95l57.11,0l0,57.1l-57.11,0l0,-57.1zm0,0" fill="#111b1e" fill-rule="nonzero" id="svg_104"/>
   </g>
  </g>
  <g clip-path="url(#0586c0eac9)" id="svg_105">
   <g clip-path="url(#489602b0a8)" id="svg_106">
    <path d="m70.56,160.26l54.48,0l0,54.48l-54.48,0l0,-54.48zm0,0" fill="#ffffff" fill-rule="nonzero" id="svg_107"/>
   </g>
  </g>
  <g clip-path="url(#bdb92abe3d)" id="svg_108">
   <g clip-path="url(#808fec9ba7)" id="svg_109">
    <path d="m79.38,169.07l36.85,0l0,36.86l-36.85,0l0,-36.86zm0,0" fill="#111b1e" fill-rule="nonzero" id="svg_110"/>
   </g>
  </g>
  <g clip-path="url(#7273cee0a5)" id="svg_111">
   <g clip-path="url(#4401d23590)" id="svg_112">
    <path d="m80.62,170.32l34.36,0l0,34.36l-34.36,0l0,-34.36zm0,0" fill="#ffffff" fill-rule="nonzero" id="svg_113"/>
   </g>
  </g>
  <g clip-path="url(#09fe75889a)" id="svg_114">
   <path d="m111.68,172.41l0,17.25c0,8.14 -6.22,14.59 -13.87,17.92c-7.63,-3.32 -13.88,-9.76 -13.88,-17.92l0,-17.25l27.75,0" fill="#ffffff" fill-rule="nonzero" id="svg_115"/>
  </g>
  <g clip-path="url(#1902d7c31b)" id="svg_116">
   <path d="m110.63,173.58l0,15.79c0,7.45 -5.72,13.35 -12.75,16.4c-7.01,-3.04 -12.75,-8.94 -12.75,-16.4l0,-15.79l25.5,0" fill="#111b1e" fill-rule="nonzero" id="svg_117"/>
  </g>
  <g clip-path="url(#1146017757)" id="svg_118">
   <path d="m108.86,174.99l0,14.31c0,6.75 -5.04,12.11 -11.25,14.87c-6.18,-2.76 -11.25,-8.1 -11.25,-14.87l0,-14.31l22.5,0" fill="#ffffff" fill-rule="nonzero" id="svg_119"/>
  </g>
  <path d="m95.29,193.99c-0.1,-0.29 -0.22,-0.58 -0.34,-0.85c-0.1,-0.24 -0.22,-0.46 -0.41,-0.64c-0.18,-0.16 -0.38,-0.31 -0.56,-0.47c-0.13,-0.11 -0.28,-0.21 -0.38,-0.33c-0.26,-0.29 -0.36,-0.63 -0.25,-1c0.08,-0.29 0.17,-0.56 0.27,-0.84c0.09,-0.25 0.33,-0.78 0.33,-0.8c-0.01,0 -0.6,0.72 -0.81,1.12c-0.17,0.33 -0.3,0.69 -0.33,1.07c-0.03,0.26 -0.03,0.52 0.03,0.77c0.05,0.18 0.12,0.36 0.18,0.53c0.03,0.12 0.07,0.24 0.09,0.36c0.04,0.29 0.05,0.58 0.01,0.87c-0.03,0.18 -0.16,0.61 -0.17,0.65c0.01,0 0.17,-0.13 0.23,-0.21c0.13,-0.2 0.24,-0.4 0.3,-0.63c0.05,-0.24 0.1,-0.48 0.09,-0.73c-0.01,-0.12 0,-0.38 0.01,-0.39c0.03,0.01 0.06,0.02 0.08,0.03c0.24,0.1 0.46,0.23 0.62,0.41c0.16,0.18 0.3,0.36 0.43,0.56c0.27,0.44 0.5,0.91 0.68,1.4c0.03,0.08 0.07,0.17 0.11,0.24c0,0 -0.02,-0.27 -0.04,-0.34c-0.05,-0.26 -0.1,-0.53 -0.17,-0.78" fill="#ffffff" fill-rule="nonzero" id="svg_120"/>
  <path d="m92.96,185.94c0.01,0.02 0.02,0.03 0.05,0.05c0,-0.03 0,-0.04 0,-0.06c0.04,-0.23 0.06,-0.45 0.11,-0.68c0.03,-0.16 0.13,-0.23 0.31,-0.23c0.02,0 0.05,0 0.07,0c0.34,0.01 0.67,0.02 1.02,0.02c-0.09,-0.1 -0.17,-0.21 -0.27,-0.29c-0.26,-0.21 -0.52,-0.41 -0.78,-0.61c-0.04,-0.04 -0.07,-0.04 -0.11,0c-0.22,0.21 -0.45,0.42 -0.67,0.63c-0.11,0.11 -0.14,0.25 -0.11,0.4c0.04,0.29 0.18,0.54 0.38,0.77" fill="#ffffff" fill-rule="nonzero" id="svg_121"/>
  <path d="m97.45,183.8c0,-0.01 -0.01,-0.02 -0.01,-0.03c-0.14,-0.25 -0.27,-0.49 -0.41,-0.73c-0.08,-0.13 -0.17,-0.25 -0.28,-0.36c-0.23,-0.23 -0.53,-0.38 -0.85,-0.48c-0.02,-0.01 -0.04,-0.01 -0.05,-0.01c0.32,0.28 0.61,0.59 0.85,0.95c-0.16,-0.06 -0.31,-0.11 -0.47,-0.16c-0.47,-0.14 -0.95,-0.19 -1.44,-0.09c-0.16,0.03 -0.3,0.08 -0.45,0.17c1.13,-0.09 2.14,0.24 3.11,0.74" fill="#ffffff" fill-rule="nonzero" id="svg_122"/>
  <path d="m93.9,186.29c-0.02,0 -1.07,0.6 -1.54,0.95c-0.26,0.19 -0.5,0.4 -0.62,0.7c-0.11,0.27 -0.31,0.85 -0.31,0.87c0.39,-0.44 0.77,-0.89 1.18,-1.31c0.41,-0.41 0.85,-0.8 1.29,-1.21" fill="#ffffff" fill-rule="nonzero" id="svg_123"/>
  <path d="m96.77,186.58c-0.13,-0.08 -0.25,-0.18 -0.41,-0.18c-0.04,0 -0.07,-0.01 -0.11,-0.02c-0.24,-0.06 -0.7,-0.31 -0.72,-0.32c-0.01,0.1 0.01,0.18 0.04,0.26c0.07,0.15 0.17,0.27 0.32,0.35c0.2,0.11 0.41,0.2 0.62,0.3c0.05,0.02 0.07,0.05 0.09,0.09c0.08,0.2 0.17,0.4 0.25,0.6c0.01,0.01 0.02,0.02 0.03,0.05c0.01,-0.03 0.01,-0.04 0.01,-0.05c0,-0.28 -0.01,-0.57 0,-0.86c0,-0.1 -0.03,-0.16 -0.12,-0.22" fill="#111b1e" fill-rule="nonzero" id="svg_124"/>
  <g clip-path="url(#7d78ccbb23)" id="svg_125">
   <path d="m106.31,187.51c-0.2,-0.18 -0.35,-0.39 -0.44,-0.63c-0.15,-0.39 -0.29,-0.77 -0.44,-1.15c-0.18,-0.47 -0.36,-0.94 -0.55,-1.4c-0.17,-0.38 -0.41,-0.71 -0.72,-0.98c-0.21,-0.18 -0.45,-0.34 -0.67,-0.51c-0.04,-0.03 -0.08,-0.06 -0.13,-0.09c0.03,-0.04 0.05,-0.08 0.08,-0.12c0.1,-0.17 0.22,-0.34 0.31,-0.51c0.05,-0.1 0.07,-0.21 0.08,-0.32c0.02,-0.21 -0.01,-0.41 -0.06,-0.62c-0.04,-0.16 -0.12,-0.3 -0.25,-0.43c-0.05,-0.05 -0.16,-0.15 -0.17,-0.14c0,0.12 0.01,0.24 0,0.35c-0.01,0.16 -0.05,0.3 -0.14,0.43c-0.14,0.19 -0.56,0.36 -0.85,0.16c-0.12,-0.08 -0.25,-0.16 -0.37,-0.24c-0.16,-0.11 -0.34,-0.14 -0.53,-0.11c-0.22,0.04 -0.44,0.09 -0.66,0.13c-0.02,0.01 -0.04,0.01 -0.07,0.02c0.03,-0.09 0.05,-0.17 0.07,-0.25c0.06,-0.21 0.04,-0.4 -0.04,-0.6c-0.12,-0.3 -0.55,-0.81 -0.56,-0.81c0.01,0.04 0.02,0.08 0.02,0.12c0.03,0.24 0.01,0.47 -0.09,0.69c-0.15,0.3 -0.52,0.49 -0.87,0.45c-0.07,-0.01 -0.13,-0.03 -0.19,-0.04c-0.19,-0.05 -0.3,-0.19 -0.41,-0.34c-0.16,-0.24 -0.32,-0.48 -0.48,-0.71c-0.11,-0.15 -0.15,-0.31 -0.2,-0.48c-0.01,-0.02 -0.02,-0.04 -0.03,-0.06c0,0 0,0 0,-0.01c0,0 0,0.01 0,0.01c0,0 0,-0.01 0,-0.01c0,0.01 0,0.01 0,0.01c0,0.02 -0.01,0.04 -0.02,0.06c-0.05,0.17 -0.09,0.33 -0.2,0.48c-0.16,0.23 -0.33,0.47 -0.49,0.71c-0.1,0.15 -0.2,0.29 -0.4,0.34c-0.06,0.01 -0.13,0.03 -0.19,0.04c-0.35,0.04 -0.72,-0.15 -0.87,-0.45c-0.1,-0.22 -0.12,-0.45 -0.09,-0.69c0,-0.04 0.01,-0.08 0.01,-0.12c-0.01,0 -0.43,0.51 -0.55,0.81c-0.08,0.2 -0.1,0.39 -0.04,0.6c0.02,0.08 0.04,0.16 0.07,0.25c-0.03,-0.01 -0.05,-0.01 -0.07,-0.02c-0.22,-0.04 -0.44,-0.09 -0.66,-0.13c-0.19,-0.03 -0.37,0 -0.54,0.11c-0.12,0.08 -0.24,0.16 -0.36,0.24c-0.29,0.2 -0.71,0.03 -0.85,-0.16c-0.09,-0.13 -0.13,-0.27 -0.14,-0.43c-0.01,-0.11 -0.01,-0.23 -0.01,-0.35c0,-0.01 -0.11,0.09 -0.17,0.14c-0.12,0.13 -0.2,0.27 -0.24,0.43c-0.05,0.21 -0.08,0.41 -0.06,0.62c0.01,0.11 0.03,0.22 0.08,0.32c0.09,0.17 0.21,0.34 0.31,0.51c0.03,0.04 0.05,0.08 0.07,0.12c-0.04,0.03 -0.09,0.06 -0.13,0.09c-0.22,0.17 -0.45,0.33 -0.66,0.51c-0.32,0.27 -0.55,0.6 -0.72,0.98c-0.19,0.46 -0.37,0.93 -0.55,1.4c-0.15,0.38 -0.3,0.76 -0.44,1.15c-0.09,0.24 -0.24,0.45 -0.44,0.63c-0.3,0.25 -0.98,0.7 -1.02,0.73c0.06,0.01 0.49,0.07 0.67,0.09c0.26,0.02 0.53,0.04 0.8,-0.01c0.21,-0.03 0.6,-0.25 0.61,-0.25c-0.02,0.05 -0.05,0.09 -0.08,0.13c-0.14,0.18 -0.28,0.36 -0.38,0.56c-0.14,0.29 -0.27,0.6 -0.33,0.91c-0.07,0.35 -0.12,0.7 -0.11,1.05c0.01,0.24 0.06,0.8 0.08,0.81c0.26,-0.74 0.8,-1.26 1.37,-1.78c0,0.02 -0.35,0.75 -0.52,1.09c-0.17,0.34 -0.3,0.68 -0.39,1.04c-0.05,0.23 -0.09,0.46 -0.03,0.69c0.05,0.27 0.14,0.52 0.28,0.75c0.22,0.34 0.43,0.69 0.65,1.02c0.3,0.45 0.57,0.91 0.65,1.46c0.04,0.27 0.01,0.52 -0.1,0.77c-0.09,0.22 -0.23,0.4 -0.39,0.58c-0.02,0.01 -0.03,0.03 -0.04,0.04c0,0.01 1.37,-0.4 1.84,-0.98c0.07,0.51 0.23,0.98 0.5,1.41c0.14,0.21 0.27,0.43 0.49,0.58c0.2,0.14 0.41,0.28 0.63,0.41c0.29,0.18 0.6,0.35 0.86,0.57c0.05,0.04 0.11,0.08 0.17,0.13c-0.01,-0.02 -0.39,-0.94 -0.58,-1.39c-0.08,-0.21 -0.14,-0.41 -0.17,-0.64c0.01,0.01 0.3,0.32 0.44,0.46c0.27,0.29 0.54,0.58 0.82,0.87c0.22,0.22 0.4,0.47 0.54,0.75c0.11,0.19 0.19,0.41 0.3,0.6c0.14,0.23 0.29,0.45 0.45,0.67c0.1,0.14 0.23,0.26 0.34,0.4c0,0 0,0 0,0c0,0 0,0 0,0c0,0 0,0 0,0c0,0 0,0 0,0c0.12,-0.14 0.25,-0.26 0.35,-0.4c0.16,-0.22 0.31,-0.44 0.45,-0.67c0.11,-0.19 0.19,-0.41 0.3,-0.6c0.14,-0.28 0.32,-0.53 0.54,-0.75c0.28,-0.29 0.55,-0.58 0.82,-0.87c0.14,-0.14 0.42,-0.45 0.44,-0.46c-0.03,0.23 -0.09,0.43 -0.17,0.64c-0.19,0.45 -0.57,1.37 -0.58,1.39c0.06,-0.05 0.12,-0.09 0.17,-0.13c0.27,-0.22 0.57,-0.39 0.86,-0.57c0.22,-0.13 0.42,-0.27 0.63,-0.41c0.21,-0.15 0.35,-0.37 0.48,-0.58c0.28,-0.43 0.43,-0.9 0.51,-1.41c0.46,0.58 1.83,0.99 1.84,0.98c-0.01,-0.01 -0.02,-0.03 -0.04,-0.04c-0.16,-0.18 -0.3,-0.36 -0.4,-0.58c-0.11,-0.25 -0.13,-0.5 -0.09,-0.77c0.07,-0.55 0.35,-1.01 0.65,-1.46c0.22,-0.33 0.43,-0.68 0.65,-1.02c0.14,-0.23 0.22,-0.48 0.28,-0.75c0.06,-0.23 0.02,-0.46 -0.03,-0.69c-0.09,-0.36 -0.23,-0.7 -0.39,-1.04c-0.17,-0.34 -0.52,-1.07 -0.52,-1.09c0.57,0.52 1.11,1.04 1.37,1.78c0.01,-0.01 0.07,-0.57 0.08,-0.81c0.01,-0.35 -0.04,-0.7 -0.11,-1.05c-0.07,-0.31 -0.19,-0.62 -0.34,-0.91c-0.09,-0.2 -0.24,-0.38 -0.37,-0.56c-0.03,-0.04 -0.06,-0.08 -0.09,-0.13c0.02,0 0.41,0.22 0.62,0.25c0.27,0.05 0.53,0.03 0.8,0.01c0.18,-0.02 0.61,-0.08 0.67,-0.09c-0.04,-0.03 -0.73,-0.48 -1.02,-0.73zm-4.65,-2.76c0.25,-0.21 0.52,-0.41 0.78,-0.61c0.04,-0.04 0.07,-0.04 0.11,0c0.22,0.21 0.45,0.42 0.66,0.63c0.11,0.11 0.14,0.25 0.12,0.4c-0.04,0.29 -0.19,0.54 -0.38,0.77c-0.01,0.02 -0.03,0.03 -0.05,0.05c0,-0.03 0,-0.04 -0.01,-0.06c-0.03,-0.23 -0.05,-0.45 -0.1,-0.68c-0.03,-0.16 -0.14,-0.23 -0.31,-0.23c-0.02,0 -0.05,0 -0.08,0c-0.33,0.01 -0.66,0.02 -1.01,0.02c0.09,-0.1 0.17,-0.21 0.27,-0.29zm-3.19,-0.98c0.14,-0.25 0.26,-0.49 0.41,-0.73c0.08,-0.13 0.17,-0.25 0.27,-0.36c0.24,-0.23 0.54,-0.38 0.86,-0.48c0.02,-0.01 0.03,-0.01 0.05,-0.01c-0.32,0.28 -0.61,0.59 -0.85,0.95c0.16,-0.06 0.31,-0.11 0.47,-0.16c0.47,-0.14 0.95,-0.19 1.44,-0.09c0.15,0.03 0.3,0.08 0.45,0.17c-1.14,-0.09 -2.14,0.24 -3.11,0.74c0,-0.01 0,-0.02 0.01,-0.03zm-3.68,-0.88c0.49,-0.1 0.97,-0.05 1.44,0.09c0.16,0.05 0.31,0.1 0.47,0.16c-0.24,-0.36 -0.53,-0.67 -0.85,-0.95c0.01,0 0.03,0 0.05,0.01c0.32,0.1 0.62,0.25 0.85,0.48c0.11,0.11 0.2,0.23 0.28,0.36c0.14,0.24 0.27,0.48 0.41,0.73c0,0.01 0.01,0.02 0.01,0.03c-0.97,-0.5 -1.98,-0.83 -3.11,-0.74c0.15,-0.09 0.29,-0.14 0.45,-0.17zm-2.1,1.88c0.22,-0.21 0.45,-0.42 0.67,-0.63c0.04,-0.04 0.07,-0.04 0.11,0c0.26,0.2 0.52,0.4 0.78,0.61c0.1,0.08 0.18,0.19 0.27,0.29c-0.35,0 -0.68,-0.01 -1.02,-0.02c-0.02,0 -0.05,0 -0.07,0c-0.18,0 -0.28,0.07 -0.31,0.23c-0.05,0.23 -0.07,0.45 -0.11,0.68c0,0.02 0,0.03 0,0.06c-0.03,-0.02 -0.04,-0.03 -0.05,-0.05c-0.2,-0.23 -0.34,-0.48 -0.38,-0.77c-0.03,-0.15 0,-0.29 0.11,-0.4zm-1.26,4.04c0,-0.02 0.2,-0.6 0.31,-0.87c0.12,-0.3 0.36,-0.51 0.62,-0.7c0.47,-0.35 1.52,-0.95 1.54,-0.95c-0.44,0.41 -0.88,0.8 -1.29,1.21c-0.41,0.42 -0.79,0.87 -1.18,1.31zm4.07,6.3c-0.04,-0.07 -0.08,-0.16 -0.11,-0.24c-0.18,-0.49 -0.41,-0.96 -0.68,-1.4c-0.13,-0.2 -0.27,-0.38 -0.43,-0.56c-0.16,-0.18 -0.38,-0.31 -0.62,-0.41c-0.02,-0.01 -0.05,-0.02 -0.08,-0.03c-0.01,0.01 -0.02,0.27 -0.01,0.39c0.01,0.25 -0.04,0.49 -0.09,0.73c-0.06,0.23 -0.17,0.43 -0.3,0.63c-0.06,0.08 -0.22,0.21 -0.23,0.21c0.01,-0.04 0.14,-0.47 0.17,-0.65c0.04,-0.29 0.03,-0.58 -0.01,-0.87c-0.02,-0.12 -0.06,-0.24 -0.09,-0.36c-0.06,-0.17 -0.13,-0.35 -0.18,-0.53c-0.06,-0.25 -0.06,-0.51 -0.03,-0.77c0.03,-0.38 0.16,-0.74 0.33,-1.07c0.21,-0.4 0.8,-1.12 0.81,-1.12c0,0.02 -0.24,0.55 -0.33,0.8c-0.1,0.28 -0.19,0.55 -0.27,0.84c-0.11,0.37 -0.01,0.71 0.25,1c0.1,0.12 0.25,0.22 0.38,0.33c0.18,0.16 0.38,0.31 0.56,0.47c0.19,0.18 0.31,0.4 0.41,0.64c0.12,0.27 0.24,0.56 0.34,0.85c0.07,0.25 0.12,0.52 0.17,0.78c0.02,0.07 0.04,0.34 0.04,0.34zm3.39,-3.47c0.01,0.12 0.02,0.23 0.06,0.34c0.05,0.17 0.1,0.34 0.1,0.53c-0.01,0.21 -0.12,0.37 -0.29,0.51c-0.01,-0.17 0.03,-0.33 -0.04,-0.48c-0.06,-0.15 -0.13,-0.29 -0.26,-0.4c0.04,0.52 -0.18,0.95 -0.51,1.34c-0.32,-0.39 -0.54,-0.82 -0.5,-1.34c-0.13,0.11 -0.2,0.25 -0.26,0.4c-0.07,0.15 -0.03,0.31 -0.04,0.48c-0.17,-0.14 -0.27,-0.3 -0.29,-0.51c-0.01,-0.19 0.05,-0.36 0.1,-0.53c0.03,-0.11 0.04,-0.22 0.06,-0.34c-0.2,0.27 -0.49,0.35 -0.8,0.46c0.03,-0.06 0.05,-0.1 0.07,-0.14c0.09,-0.18 0.18,-0.36 0.27,-0.55c0.05,-0.11 0.07,-0.23 0.06,-0.36c0,-0.11 0,-0.22 0,-0.33c-0.01,-0.04 0.01,-0.05 0.05,-0.06c0.1,-0.01 0.2,-0.02 0.29,-0.05c0.08,-0.04 0.15,-0.1 0.21,-0.16c0.09,-0.09 0.17,-0.2 0.25,-0.29c0.03,-0.03 0.07,-0.05 0.1,-0.05c0.14,-0.01 0.29,-0.01 0.43,-0.01c0.15,0 0.29,0 0.44,0.01c0.03,0 0.07,0.02 0.09,0.05c0.09,0.09 0.17,0.2 0.26,0.29c0.06,0.06 0.13,0.12 0.21,0.16c0.09,0.03 0.19,0.04 0.29,0.05c0.04,0.01 0.05,0.02 0.05,0.06c0,0.11 0,0.22 0,0.33c0,0.13 0.01,0.25 0.06,0.36c0.09,0.19 0.18,0.37 0.27,0.55c0.02,0.04 0.04,0.08 0.06,0.14c-0.3,-0.11 -0.59,-0.19 -0.79,-0.46zm1.1,-2.09c-0.05,0.05 -0.1,0.09 -0.15,0.14c-0.02,0.02 -0.05,0.02 -0.08,0c-0.15,-0.09 -0.3,-0.18 -0.45,-0.27c-0.1,-0.05 -0.2,-0.1 -0.29,-0.14c-0.01,0 0.28,0.42 0.43,0.63c-0.12,0.05 -0.22,0.1 -0.33,0.14c-0.02,0.01 -0.05,0 -0.07,0c-0.25,-0.05 -0.47,-0.16 -0.69,-0.26c-0.08,-0.04 -0.15,-0.09 -0.21,-0.14c-0.02,-0.01 -0.04,-0.04 -0.04,-0.06c0,-0.18 0,-0.35 0,-0.52c0,-0.02 0.02,-0.05 0.04,-0.06c0.08,-0.04 0.17,-0.07 0.25,-0.11c0.11,-0.06 0.24,-0.1 0.32,-0.17c0.15,-0.14 0.42,-0.47 0.44,-0.5c-0.1,0.03 -0.18,0.04 -0.27,0.07c-0.3,0.11 -0.61,0.16 -0.94,0.15c-0.32,0.01 -0.63,-0.04 -0.94,-0.15c-0.08,-0.03 -0.16,-0.04 -0.26,-0.07c0.01,0.03 0.29,0.36 0.43,0.5c0.09,0.07 0.21,0.11 0.32,0.17c0.09,0.04 0.18,0.07 0.26,0.11c0.02,0.01 0.04,0.04 0.04,0.06c0,0.17 0,0.34 0,0.52c0,0.02 -0.02,0.05 -0.04,0.06c-0.07,0.05 -0.13,0.1 -0.21,0.14c-0.22,0.1 -0.45,0.21 -0.69,0.26c-0.03,0 -0.05,0.01 -0.07,0c-0.11,-0.04 -0.22,-0.09 -0.33,-0.14c0.15,-0.21 0.43,-0.63 0.43,-0.63c-0.1,0.04 -0.19,0.09 -0.29,0.14c-0.15,0.09 -0.3,0.18 -0.45,0.27c-0.04,0.02 -0.06,0.02 -0.09,0c-0.04,-0.05 -0.09,-0.09 -0.15,-0.14c0.26,-0.17 0.5,-0.35 0.75,-0.51c0,-0.01 -0.59,0.09 -0.87,0.14c0,0 0,-0.01 0,-0.02c0.1,-0.17 0.17,-0.35 0.22,-0.54c0.05,-0.18 0.18,-0.29 0.31,-0.41c0.06,-0.06 0.13,-0.12 0.2,-0.19c-0.05,0 -0.08,-0.01 -0.11,-0.01c-0.32,-0.04 -0.63,-0.07 -0.95,-0.12c-0.19,-0.03 -0.35,-0.15 -0.49,-0.28c-0.05,-0.06 -0.08,-0.13 -0.06,-0.21c0.02,-0.12 0.04,-0.24 0.07,-0.35c0.04,-0.11 0.04,-0.22 0.03,-0.33c-0.01,-0.22 -0.03,-0.45 -0.03,-0.67c-0.01,-0.13 0.03,-0.24 0.15,-0.32c0.2,-0.13 0.41,-0.27 0.61,-0.4c0.07,-0.04 0.09,-0.07 0.08,-0.15c-0.03,-0.19 -0.04,-0.38 0,-0.56c0.02,-0.1 0.08,-0.16 0.18,-0.17c0.24,-0.01 0.48,-0.02 0.73,-0.02c0.11,0.01 0.24,0.02 0.36,0.05c0.35,0.1 0.67,0.26 0.86,0.59c0.2,-0.32 0.51,-0.49 0.87,-0.59c0.12,-0.03 0.24,-0.04 0.36,-0.05c0.25,0 0.49,0.01 0.73,0.02c0.1,0.01 0.16,0.07 0.18,0.17c0.04,0.18 0.04,0.37 0,0.56c-0.02,0.08 0.01,0.11 0.07,0.15c0.22,0.13 0.42,0.27 0.62,0.4c0.11,0.08 0.16,0.19 0.15,0.32c-0.01,0.22 -0.02,0.45 -0.03,0.67c-0.01,0.11 -0.01,0.22 0.03,0.33c0.03,0.11 0.05,0.23 0.07,0.35c0.02,0.08 -0.01,0.15 -0.07,0.21c-0.14,0.13 -0.3,0.25 -0.49,0.28c-0.31,0.05 -0.62,0.08 -0.94,0.12c-0.03,0 -0.07,0.01 -0.11,0.01c0.07,0.07 0.14,0.13 0.2,0.19c0.13,0.12 0.26,0.23 0.31,0.41c0.05,0.19 0.11,0.37 0.22,0.54c0,0.01 0,0.02 0.01,0.02c-0.29,-0.05 -0.88,-0.15 -0.88,-0.14c0.25,0.16 0.49,0.34 0.74,0.51zm3.08,2.47c-0.05,0.18 -0.12,0.36 -0.18,0.53c-0.04,0.12 -0.08,0.24 -0.09,0.36c-0.04,0.29 -0.05,0.58 -0.01,0.87c0.03,0.18 0.15,0.61 0.17,0.65c-0.01,0 -0.17,-0.13 -0.23,-0.21c-0.13,-0.2 -0.25,-0.4 -0.3,-0.63c-0.05,-0.24 -0.11,-0.48 -0.09,-0.73c0,-0.12 -0.01,-0.38 -0.01,-0.39c-0.03,0.01 -0.06,0.02 -0.09,0.03c-0.23,0.1 -0.45,0.23 -0.61,0.41c-0.16,0.18 -0.31,0.36 -0.43,0.56c-0.27,0.44 -0.5,0.91 -0.68,1.4c-0.03,0.08 -0.07,0.17 -0.11,0.24c-0.01,0 0.02,-0.27 0.03,-0.34c0.06,-0.26 0.1,-0.53 0.19,-0.78c0.08,-0.29 0.21,-0.58 0.33,-0.85c0.09,-0.24 0.22,-0.46 0.41,-0.64c0.18,-0.16 0.38,-0.31 0.56,-0.47c0.13,-0.11 0.27,-0.21 0.38,-0.33c0.25,-0.29 0.35,-0.63 0.25,-1c-0.08,-0.29 -0.17,-0.56 -0.27,-0.84c-0.09,-0.25 -0.33,-0.78 -0.33,-0.8c0.01,0 0.6,0.72 0.8,1.12c0.18,0.33 0.3,0.69 0.34,1.07c0.03,0.26 0.03,0.52 -0.03,0.77zm0.23,-4.52c-0.41,-0.41 -0.85,-0.8 -1.29,-1.21c0.02,0 1.06,0.6 1.54,0.95c0.25,0.19 0.5,0.4 0.62,0.7c0.11,0.27 0.31,0.85 0.31,0.87c-0.39,-0.44 -0.77,-0.89 -1.18,-1.31" fill="#111b1e" fill-rule="nonzero" id="svg_126"/>
  </g>
  <path d="m100.13,189.18c-0.01,0 -0.01,-0.01 -0.01,-0.02c-0.11,-0.17 -0.17,-0.35 -0.22,-0.54c-0.05,-0.18 -0.18,-0.29 -0.31,-0.41c-0.06,-0.06 -0.13,-0.12 -0.2,-0.19c0.04,0 0.08,-0.01 0.11,-0.01c0.32,-0.04 0.63,-0.07 0.94,-0.12c0.19,-0.03 0.35,-0.15 0.49,-0.28c0.06,-0.06 0.09,-0.13 0.07,-0.21c-0.02,-0.12 -0.04,-0.24 -0.07,-0.35c-0.04,-0.11 -0.04,-0.22 -0.03,-0.33c0.01,-0.22 0.02,-0.45 0.03,-0.67c0.01,-0.13 -0.04,-0.24 -0.15,-0.32c-0.2,-0.13 -0.4,-0.27 -0.62,-0.4c-0.06,-0.04 -0.09,-0.07 -0.07,-0.15c0.04,-0.19 0.04,-0.38 0,-0.56c-0.02,-0.1 -0.08,-0.16 -0.18,-0.17c-0.24,-0.01 -0.48,-0.02 -0.73,-0.02c-0.12,0.01 -0.24,0.02 -0.36,0.05c-0.36,0.1 -0.67,0.27 -0.87,0.59c-0.19,-0.33 -0.51,-0.49 -0.86,-0.59c-0.12,-0.03 -0.25,-0.04 -0.36,-0.05c-0.25,0 -0.49,0.01 -0.73,0.02c-0.1,0.01 -0.16,0.07 -0.18,0.17c-0.04,0.18 -0.03,0.37 0,0.56c0.01,0.08 -0.01,0.11 -0.08,0.15c-0.2,0.13 -0.41,0.27 -0.61,0.4c-0.12,0.08 -0.16,0.19 -0.15,0.32c0,0.22 0.02,0.45 0.03,0.67c0.01,0.11 0.01,0.22 -0.03,0.33c-0.03,0.11 -0.05,0.23 -0.07,0.35c-0.02,0.08 0.01,0.15 0.06,0.21c0.14,0.13 0.3,0.25 0.49,0.28c0.32,0.05 0.63,0.08 0.95,0.12c0.03,0 0.06,0.01 0.11,0.01c-0.07,0.07 -0.14,0.13 -0.2,0.19c-0.13,0.12 -0.26,0.23 -0.31,0.41c-0.05,0.19 -0.12,0.37 -0.22,0.54c0,0.01 0,0.02 0,0.02c0.28,-0.05 0.87,-0.15 0.87,-0.14c-0.25,0.16 -0.49,0.34 -0.75,0.51c0.06,0.05 0.11,0.09 0.15,0.14c0.03,0.02 0.05,0.02 0.09,0c0.15,-0.09 0.3,-0.18 0.45,-0.27c0.1,-0.05 0.19,-0.1 0.29,-0.14c0,0 -0.28,0.42 -0.43,0.63c0.11,0.05 0.22,0.1 0.33,0.14c0.02,0.01 0.04,0 0.07,0c0.24,-0.05 0.47,-0.16 0.69,-0.26c0.08,-0.04 0.14,-0.09 0.21,-0.14c0.02,-0.01 0.04,-0.04 0.04,-0.06c0,-0.18 0,-0.35 0,-0.52c0,-0.02 -0.02,-0.05 -0.04,-0.06c-0.08,-0.04 -0.17,-0.07 -0.26,-0.11c-0.11,-0.06 -0.23,-0.1 -0.32,-0.17c-0.14,-0.14 -0.42,-0.47 -0.43,-0.5c0.1,0.03 0.18,0.04 0.26,0.07c0.31,0.11 0.62,0.16 0.94,0.15c0.33,0.01 0.64,-0.04 0.94,-0.15c0.09,-0.03 0.17,-0.04 0.27,-0.07c-0.02,0.03 -0.29,0.36 -0.44,0.5c-0.08,0.07 -0.21,0.11 -0.32,0.17c-0.08,0.04 -0.17,0.07 -0.25,0.11c-0.02,0.01 -0.04,0.04 -0.04,0.06c0,0.17 0,0.34 0,0.52c0,0.02 0.02,0.05 0.04,0.06c0.06,0.05 0.13,0.1 0.21,0.14c0.22,0.1 0.44,0.21 0.69,0.26c0.02,0 0.05,0.01 0.07,0c0.11,-0.04 0.21,-0.09 0.33,-0.14c-0.15,-0.21 -0.44,-0.63 -0.43,-0.63c0.09,0.04 0.19,0.09 0.29,0.14c0.15,0.09 0.3,0.18 0.45,0.27c0.03,0.02 0.06,0.02 0.08,0c0.05,-0.05 0.1,-0.09 0.15,-0.14c-0.25,-0.17 -0.49,-0.35 -0.74,-0.51c0,-0.01 0.59,0.09 0.88,0.14zm-3.24,-1.52c0,0.01 0,0.02 -0.01,0.05c-0.01,-0.03 -0.02,-0.04 -0.03,-0.05c-0.08,-0.2 -0.17,-0.4 -0.25,-0.6c-0.02,-0.04 -0.04,-0.07 -0.09,-0.09c-0.21,-0.1 -0.42,-0.19 -0.62,-0.3c-0.15,-0.08 -0.25,-0.2 -0.32,-0.35c-0.03,-0.08 -0.05,-0.16 -0.04,-0.26c0.02,0.01 0.48,0.26 0.72,0.32c0.04,0.01 0.07,0.02 0.11,0.02c0.16,0 0.28,0.1 0.41,0.18c0.09,0.06 0.12,0.12 0.12,0.22c-0.01,0.29 0,0.58 0,0.86zm1.06,-1.29c-0.27,-0.01 -0.52,0.07 -0.77,0.21c0.02,-0.04 0.02,-0.07 0.03,-0.09c0.08,-0.15 0.17,-0.29 0.31,-0.38c0.23,-0.15 0.36,-0.36 0.42,-0.62c0,-0.01 0.01,-0.03 0.01,-0.04c0.01,0.01 0.01,0.02 0.02,0.04c0.05,0.26 0.19,0.47 0.42,0.62c0.15,0.09 0.23,0.23 0.31,0.38c0.01,0.02 0.01,0.05 0.03,0.09c-0.25,-0.14 -0.5,-0.22 -0.78,-0.21zm1.11,1.29c-0.01,0.01 -0.02,0.02 -0.04,0.05c0,-0.03 0,-0.04 0,-0.05c0,-0.28 0.01,-0.57 0,-0.86c0,-0.1 0.02,-0.16 0.12,-0.22c0.13,-0.08 0.25,-0.18 0.41,-0.18c0.04,0 0.07,-0.01 0.11,-0.02c0.24,-0.06 0.7,-0.31 0.72,-0.32c0,0.1 -0.01,0.18 -0.04,0.26c-0.07,0.15 -0.18,0.27 -0.32,0.35c-0.2,0.11 -0.41,0.2 -0.63,0.3c-0.04,0.02 -0.07,0.05 -0.08,0.09c-0.08,0.2 -0.17,0.4 -0.25,0.6" fill="#ffffff" fill-rule="nonzero" id="svg_127"/>
  <path d="m99.35,191.41c-0.05,-0.11 -0.06,-0.23 -0.06,-0.36c0,-0.11 0,-0.22 0,-0.33c0,-0.04 -0.01,-0.05 -0.05,-0.06c-0.1,-0.01 -0.2,-0.02 -0.29,-0.05c-0.08,-0.04 -0.15,-0.1 -0.21,-0.16c-0.09,-0.09 -0.17,-0.2 -0.26,-0.29c-0.02,-0.03 -0.06,-0.05 -0.09,-0.05c-0.15,-0.01 -0.29,-0.01 -0.44,-0.01c-0.14,0 -0.29,0 -0.43,0.01c-0.03,0 -0.07,0.02 -0.1,0.05c-0.08,0.09 -0.16,0.2 -0.25,0.29c-0.06,0.06 -0.13,0.12 -0.21,0.16c-0.09,0.03 -0.19,0.04 -0.29,0.05c-0.04,0.01 -0.06,0.02 -0.05,0.06c0,0.11 0,0.22 0,0.33c0.01,0.13 -0.01,0.25 -0.06,0.36c-0.09,0.19 -0.18,0.37 -0.27,0.55c-0.02,0.04 -0.04,0.08 -0.07,0.14c0.31,-0.11 0.6,-0.19 0.8,-0.46c-0.02,0.12 -0.03,0.23 -0.06,0.34c-0.05,0.17 -0.11,0.34 -0.1,0.53c0.02,0.21 0.12,0.37 0.29,0.51c0.01,-0.17 -0.03,-0.33 0.04,-0.48c0.06,-0.15 0.13,-0.29 0.26,-0.4c-0.04,0.52 0.18,0.95 0.5,1.34c0.33,-0.39 0.55,-0.82 0.51,-1.34c0.13,0.11 0.2,0.25 0.26,0.4c0.07,0.15 0.03,0.31 0.04,0.48c0.17,-0.14 0.28,-0.3 0.29,-0.51c0,-0.19 -0.05,-0.36 -0.1,-0.53c-0.04,-0.11 -0.05,-0.22 -0.06,-0.34c0.2,0.27 0.49,0.35 0.79,0.46c-0.02,-0.06 -0.04,-0.1 -0.06,-0.14c-0.09,-0.18 -0.18,-0.36 -0.27,-0.55" fill="#ffffff" fill-rule="nonzero" id="svg_128"/>
  <path d="m98.39,186.11c-0.23,-0.15 -0.37,-0.36 -0.42,-0.62c-0.01,-0.02 -0.01,-0.03 -0.02,-0.04c0,0.01 -0.01,0.03 -0.01,0.04c-0.06,0.26 -0.19,0.47 -0.42,0.62c-0.14,0.09 -0.23,0.23 -0.31,0.38c-0.01,0.02 -0.01,0.05 -0.03,0.09c0.25,-0.14 0.5,-0.22 0.77,-0.21c0.28,-0.01 0.53,0.07 0.78,0.21c-0.02,-0.04 -0.02,-0.07 -0.03,-0.09c-0.08,-0.15 -0.16,-0.29 -0.31,-0.38" fill="#111b1e" fill-rule="nonzero" id="svg_129"/>
  <path d="m102.76,190.18c-0.2,-0.4 -0.79,-1.12 -0.8,-1.12c0,0.02 0.24,0.55 0.33,0.8c0.1,0.28 0.19,0.55 0.27,0.84c0.1,0.37 0,0.71 -0.25,1c-0.11,0.12 -0.25,0.22 -0.38,0.33c-0.18,0.16 -0.38,0.31 -0.56,0.47c-0.19,0.18 -0.32,0.4 -0.41,0.64c-0.12,0.27 -0.25,0.56 -0.33,0.85c-0.09,0.25 -0.13,0.52 -0.19,0.78c-0.01,0.07 -0.04,0.34 -0.03,0.34c0.04,-0.07 0.08,-0.16 0.11,-0.24c0.18,-0.49 0.41,-0.96 0.68,-1.4c0.12,-0.2 0.27,-0.38 0.43,-0.56c0.16,-0.18 0.38,-0.31 0.61,-0.41c0.03,-0.01 0.06,-0.02 0.09,-0.03c0,0.01 0.01,0.27 0.01,0.39c-0.02,0.25 0.04,0.49 0.09,0.73c0.05,0.23 0.17,0.43 0.3,0.63c0.06,0.08 0.22,0.21 0.23,0.21c-0.02,-0.04 -0.14,-0.47 -0.17,-0.65c-0.04,-0.29 -0.03,-0.58 0.01,-0.87c0.01,-0.12 0.05,-0.24 0.09,-0.36c0.06,-0.17 0.13,-0.35 0.18,-0.53c0.06,-0.25 0.06,-0.51 0.03,-0.77c-0.04,-0.38 -0.16,-0.74 -0.34,-1.07" fill="#ffffff" fill-rule="nonzero" id="svg_130"/>
  <path d="m102.4,185.02c0.03,0 0.06,0 0.08,0c0.17,0 0.28,0.07 0.31,0.23c0.05,0.23 0.07,0.45 0.1,0.68c0.01,0.02 0.01,0.03 0.01,0.06c0.02,-0.02 0.04,-0.03 0.05,-0.05c0.19,-0.23 0.34,-0.48 0.38,-0.77c0.02,-0.15 -0.01,-0.29 -0.12,-0.4c-0.21,-0.21 -0.44,-0.42 -0.66,-0.63c-0.04,-0.04 -0.07,-0.04 -0.11,0c-0.26,0.2 -0.53,0.4 -0.78,0.61c-0.1,0.08 -0.18,0.19 -0.27,0.29c0.35,0 0.68,-0.01 1.01,-0.02" fill="#ffffff" fill-rule="nonzero" id="svg_131"/>
  <path d="m101.57,183.06c-0.15,-0.09 -0.3,-0.14 -0.45,-0.17c-0.49,-0.1 -0.97,-0.05 -1.44,0.09c-0.16,0.05 -0.31,0.1 -0.47,0.16c0.24,-0.36 0.53,-0.67 0.85,-0.95c-0.02,0 -0.03,0 -0.05,0.01c-0.32,0.1 -0.62,0.25 -0.86,0.48c-0.1,0.11 -0.19,0.23 -0.27,0.36c-0.15,0.24 -0.27,0.48 -0.41,0.73c-0.01,0.01 -0.01,0.02 -0.01,0.03c0.97,-0.5 1.97,-0.83 3.11,-0.74" fill="#ffffff" fill-rule="nonzero" id="svg_132"/>
  <path d="m103.55,187.24c-0.48,-0.35 -1.52,-0.95 -1.54,-0.95c0.44,0.41 0.88,0.8 1.29,1.21c0.41,0.42 0.79,0.87 1.18,1.31c0,-0.02 -0.2,-0.6 -0.31,-0.87c-0.12,-0.3 -0.37,-0.51 -0.62,-0.7" fill="#ffffff" fill-rule="nonzero" id="svg_133"/>
  <path d="m99.39,186.97c0.22,-0.1 0.43,-0.19 0.63,-0.3c0.14,-0.08 0.25,-0.2 0.32,-0.35c0.03,-0.08 0.04,-0.16 0.04,-0.26c-0.02,0.01 -0.48,0.26 -0.72,0.32c-0.04,0.01 -0.07,0.02 -0.11,0.02c-0.16,0 -0.28,0.1 -0.41,0.18c-0.1,0.06 -0.12,0.12 -0.12,0.22c0.01,0.29 0,0.58 0,0.86c0,0.01 0,0.02 0,0.05c0.02,-0.03 0.03,-0.04 0.04,-0.05c0.08,-0.2 0.17,-0.4 0.25,-0.6c0.01,-0.04 0.04,-0.07 0.08,-0.09" fill="#111b1e" fill-rule="nonzero" id="svg_134"/>
  <g clip-path="url(#a2666a4e24)" id="svg_135">
   <path d="m118.04,187.22c0.08,0.01 0.65,0.1 0.91,0.12c0.07,0.01 0.13,0.05 0.16,0.1l0.02,0.02c-0.02,0.06 -0.01,0.13 0.03,0.18l0.35,0.5c0.04,-0.07 0.08,-0.13 0.12,-0.19l-0.3,-0.43l0.23,-0.17l0.26,0.37c0.06,-0.05 0.11,-0.09 0.16,-0.13l-0.26,-0.37c-0.03,-0.04 -0.08,-0.07 -0.13,-0.08c-0.01,0 -0.03,0 -0.05,0l-0.01,-0.01c-0.03,-0.06 -0.05,-0.12 -0.03,-0.18c0.05,-0.25 0.16,-0.82 0.16,-0.9c0.03,-0.35 -0.07,-0.71 -0.28,-1.01c-0.47,-0.66 -1.36,-0.83 -1.97,-0.4c-0.27,0.2 -0.46,0.52 -0.52,0.87c-0.06,0.38 0.04,0.79 0.28,1.12c0.22,0.3 0.53,0.51 0.87,0.59zm-0.73,-1.64c0.01,-0.06 0.06,-0.1 0.12,-0.09c0.05,0.01 0.09,0.06 0.09,0.12c-0.04,0.23 0.02,0.46 0.16,0.65c0.12,0.17 0.31,0.3 0.51,0.35c0.06,0.02 0.09,0.07 0.08,0.12c-0.01,0.05 -0.06,0.08 -0.1,0.08c-0.01,0 -0.02,0 -0.03,0c-0.25,-0.06 -0.47,-0.22 -0.63,-0.43c-0.17,-0.24 -0.25,-0.53 -0.2,-0.8zm0,0" fill="#000000" fill-rule="nonzero" id="svg_136"/>
  </g>
  <g clip-path="url(#5796904ec2)" id="svg_137">
   <path d="m119.91,189.06c-0.06,-0.06 -0.16,-0.15 -0.27,-0.24c-0.28,-0.21 -0.71,-0.47 -1.2,-0.47c-0.49,0 -0.92,0.26 -1.19,0.47c-0.12,0.09 -0.22,0.18 -0.27,0.24c-0.07,0.06 -0.1,0.15 -0.1,0.24c0,0.09 0.03,0.17 0.1,0.23c0.05,0.06 0.15,0.15 0.27,0.24c0.27,0.22 0.7,0.47 1.19,0.47c0.49,0 0.92,-0.26 1.2,-0.47c0.11,-0.09 0.21,-0.18 0.27,-0.24c0.06,-0.06 0.1,-0.14 0.1,-0.23c0,-0.09 -0.04,-0.18 -0.1,-0.24zm-2.54,0.53c-0.01,0 -0.01,0 -0.02,0c-0.1,-0.08 -0.18,-0.16 -0.23,-0.21c-0.05,-0.05 -0.05,-0.13 0,-0.17c0.06,-0.06 0.14,-0.14 0.24,-0.22c0,0.01 0.01,0.01 0.01,0.01c0.02,0.09 0.03,0.19 0.03,0.29c0,0.1 -0.01,0.21 -0.03,0.3zm1.58,-0.17l-0.02,0l0,0.01c0,0.06 -0.05,0.11 -0.1,0.11c-0.06,0 -0.11,-0.05 -0.11,-0.11l0,-0.01l-0.15,0l0,0.01c0,0.06 -0.05,0.11 -0.1,0.11c-0.06,0 -0.11,-0.05 -0.11,-0.11l0,-0.01l-0.15,0l0,0.01c0,0.06 -0.05,0.11 -0.1,0.11c-0.06,0 -0.11,-0.05 -0.11,-0.11l0,-0.01l-0.01,0c-0.06,0 -0.11,-0.05 -0.11,-0.11c0,-0.06 0.05,-0.1 0.11,-0.1l0.01,0l0,-0.02c0,-0.06 0.05,-0.1 0.11,-0.1c0.05,0 0.1,0.04 0.1,0.1l0,0.02l0.15,0l0,-0.02c0,-0.06 0.05,-0.1 0.11,-0.1c0.05,0 0.1,0.04 0.1,0.1l0,0.02l0.15,0l0,-0.02c0,-0.06 0.05,-0.1 0.11,-0.1c0.05,0 0.1,0.04 0.1,0.1l0,0.02l0.02,0c0.05,0 0.1,0.04 0.1,0.1c0,0.06 -0.05,0.11 -0.1,0.11zm0.81,-0.04c-0.06,0.06 -0.13,0.13 -0.24,0.22c0,-0.01 0,-0.01 0,-0.01c-0.02,-0.09 -0.04,-0.2 -0.04,-0.29c0,-0.1 0.02,-0.2 0.04,-0.29c0,-0.01 0,-0.01 0,-0.01c0.11,0.08 0.19,0.15 0.24,0.21c0.05,0.05 0.05,0.12 0,0.17zm0,0" fill="#000000" fill-rule="nonzero" id="svg_138"/>
  </g>
  <g clip-path="url(#deb6732b4a)" id="svg_139">
   <path d="m122.82,188.72c-0.23,0 -0.44,0.11 -0.57,0.29c0,-0.05 0,-0.09 0,-0.13c0,-0.76 -0.61,-1.37 -1.36,-1.37c-0.62,0 -1.15,0.43 -1.31,1.01c0.07,0.05 0.13,0.09 0.19,0.13c0.01,-0.04 0.01,-0.08 0.03,-0.11c0.33,-0.15 0.71,-0.11 1.02,0.07c0.05,-0.05 0.1,-0.11 0.16,-0.16c-0.35,-0.32 -0.68,-0.42 -0.83,-0.45c0.07,-0.06 0.15,-0.11 0.23,-0.16c0.2,0.07 0.48,0.21 0.75,0.47c0.03,-0.02 0.07,-0.06 0.1,-0.08c-0.09,-0.15 -0.16,-0.32 -0.17,-0.5c0.07,0.01 0.15,0.03 0.22,0.05c0.02,0.12 0.06,0.22 0.12,0.32c0.07,-0.05 0.14,-0.1 0.2,-0.14c0.06,0.05 0.11,0.09 0.16,0.15c-0.08,0.05 -0.16,0.1 -0.23,0.15c0.12,0.12 0.27,0.19 0.44,0.22c0.03,0.07 0.05,0.14 0.05,0.22c-0.25,-0.02 -0.48,-0.13 -0.66,-0.31c0,0 0,0 0,0c-0.03,0.02 -0.06,0.04 -0.09,0.06c0.25,0.28 0.45,0.62 0.61,1.01c-0.05,0.07 -0.1,0.14 -0.16,0.2c-0.15,-0.43 -0.36,-0.79 -0.6,-1.06c-0.05,0.04 -0.1,0.09 -0.14,0.13c0,0.01 0.01,0.02 0.02,0.02c0.3,0.32 0.39,0.81 0.23,1.22c-0.09,0.03 -0.17,0.04 -0.26,0.05c0.21,-0.36 0.16,-0.83 -0.12,-1.12c0,-0.01 -0.01,-0.01 -0.01,-0.01c-0.34,0.38 -0.53,0.74 -0.61,0.91c-0.06,-0.03 -0.12,-0.08 -0.17,-0.14c0,0 0.01,-0.01 0.01,-0.01c-0.01,0.01 -0.01,0.01 -0.02,0.02c-0.03,0.04 -0.08,0.08 -0.14,0.13c0.24,0.27 0.59,0.43 0.98,0.43c0.41,0 0.79,-0.19 1.04,-0.49c0.06,-0.07 0.11,-0.15 0.16,-0.24c0.02,0.38 0.34,0.68 0.73,0.68c0.4,0 0.73,-0.33 0.73,-0.73c0,-0.4 -0.32,-0.73 -0.73,-0.73zm-0.43,1.06c-0.06,-0.09 -0.1,-0.21 -0.1,-0.33c0,-0.12 0.04,-0.23 0.1,-0.32c0.08,0.09 0.12,0.2 0.12,0.32c0,0.12 -0.04,0.23 -0.12,0.33zm0.86,0c-0.07,-0.1 -0.11,-0.21 -0.11,-0.33c0,-0.12 0.04,-0.23 0.11,-0.32c0.07,0.09 0.11,0.2 0.11,0.32c0,0.12 -0.04,0.24 -0.11,0.33zm0,0" fill="#000000" fill-rule="nonzero" id="svg_140"/>
  </g>
  <g clip-path="url(#2f4f1aec00)" id="svg_141">
   <path d="m121.25,187.34c0.01,0 0.01,0 0.01,0c0.03,0.01 0.07,0.02 0.1,0.03l0.43,-1.06l0.76,0.32l-0.48,1.19c0.05,0.07 0.1,0.13 0.14,0.2c0,0 0.99,-2.48 0.99,-2.48c0.01,-0.03 0.01,-0.05 0,-0.08l-0.14,-0.42l0.47,-1.17c0.04,-0.11 -0.01,-0.23 -0.11,-0.28l-0.19,-0.07c-0.06,-0.03 -0.11,-0.03 -0.17,0c-0.05,0.02 -0.08,0.06 -0.11,0.11l-0.47,1.17l-0.38,0.21c-0.02,0.01 -0.05,0.03 -0.05,0.05l-0.9,2.26c0.04,0 0.07,0.01 0.1,0.02zm1.37,-2.35c0.01,-0.01 0.01,-0.01 0.02,-0.01l0.22,0.09c0,0 0,0.01 0,0.01l0.08,0.24l-0.54,-0.22l0.22,-0.11zm0,0" fill="#000000" fill-rule="nonzero" id="svg_142"/>
  </g>
  <g clip-path="url(#29d1850fb8)" id="svg_143">
   <path d="m120.19,186.98c0.01,0.09 0.02,0.19 0.02,0.29l0,0.18c0.04,-0.01 0.07,-0.02 0.1,-0.04c0,0 0.01,0 0.02,-0.01c0.03,-0.01 0.06,-0.02 0.09,-0.03c0.07,-0.02 0.14,-0.04 0.21,-0.05c0.07,-0.01 0.14,-0.02 0.21,-0.02l0,-0.03c0,-0.1 0.01,-0.2 0.03,-0.29l0.06,-0.41c0.05,-0.23 0.07,-0.49 0.07,-0.73l0,-1.91c0,-0.23 -0.18,-0.42 -0.41,-0.42l-0.13,0c-0.22,0 -0.4,0.19 -0.4,0.42l0,1.9c0,0.25 0.02,0.5 0.06,0.74l0.07,0.41zm0,0" fill="#000000" fill-rule="nonzero" id="svg_144"/>
  </g>
  <path d="m120.67,188.77c-0.25,-0.14 -0.55,-0.15 -0.81,-0.04c0.09,0.07 0.15,0.13 0.19,0.18c0.11,0.11 0.16,0.24 0.16,0.39c0,0.04 -0.01,0.09 -0.01,0.13c0.11,-0.19 0.26,-0.42 0.47,-0.66zm0,0" fill="#000000" fill-rule="nonzero" id="svg_145"/>
  <g clip-path="url(#aebbe3434e)" id="svg_146">
   <path d="m72.93,187.22c0.07,0.01 0.65,0.1 0.91,0.12c0.06,0.01 0.12,0.05 0.16,0.1l0.02,0.02c-0.02,0.06 -0.02,0.13 0.02,0.18l0.35,0.5c0.04,-0.07 0.08,-0.13 0.13,-0.19l-0.31,-0.43l0.24,-0.17l0.26,0.37c0.05,-0.05 0.1,-0.09 0.16,-0.13l-0.26,-0.37c-0.03,-0.04 -0.08,-0.07 -0.13,-0.08c-0.02,0 -0.04,0 -0.05,0l-0.01,-0.01c-0.04,-0.06 -0.06,-0.12 -0.04,-0.18c0.06,-0.25 0.16,-0.82 0.17,-0.9c0.03,-0.35 -0.07,-0.71 -0.29,-1.01c-0.47,-0.66 -1.35,-0.83 -1.96,-0.4c-0.28,0.2 -0.46,0.52 -0.52,0.87c-0.07,0.38 0.03,0.79 0.27,1.12c0.22,0.3 0.53,0.51 0.88,0.59zm-0.73,-1.64c0,-0.06 0.06,-0.1 0.12,-0.09c0.05,0.01 0.09,0.06 0.08,0.12c-0.03,0.23 0.03,0.46 0.17,0.65c0.12,0.17 0.3,0.3 0.51,0.35c0.05,0.02 0.08,0.07 0.08,0.12c-0.02,0.05 -0.06,0.08 -0.11,0.08c-0.01,0 -0.01,0 -0.02,0c-0.25,-0.06 -0.48,-0.22 -0.63,-0.43c-0.18,-0.24 -0.25,-0.53 -0.2,-0.8zm0,0" fill="#000000" fill-rule="nonzero" id="svg_147"/>
  </g>
  <g clip-path="url(#f3b9d22828)" id="svg_148">
   <path d="m74.79,189.06c-0.06,-0.06 -0.15,-0.15 -0.27,-0.24c-0.27,-0.21 -0.7,-0.47 -1.19,-0.47c-0.49,0 -0.93,0.26 -1.2,0.47c-0.12,0.09 -0.21,0.18 -0.27,0.24c-0.06,0.06 -0.1,0.15 -0.1,0.24c0,0.09 0.04,0.17 0.1,0.23c0.06,0.06 0.15,0.15 0.27,0.24c0.28,0.22 0.71,0.47 1.2,0.47c0.49,0 0.92,-0.26 1.19,-0.47c0.12,-0.09 0.21,-0.18 0.27,-0.24c0.07,-0.06 0.1,-0.14 0.1,-0.23c0,-0.09 -0.03,-0.18 -0.1,-0.24zm-2.54,0.53c0,0 -0.01,0 -0.02,0c-0.09,-0.08 -0.17,-0.16 -0.22,-0.21c-0.05,-0.05 -0.05,-0.13 0,-0.17c0.05,-0.06 0.14,-0.14 0.24,-0.22c0,0.01 0,0.01 0,0.01c0.02,0.09 0.03,0.19 0.03,0.29c0,0.1 -0.01,0.21 -0.03,0.3zm1.58,-0.17l-0.01,0l0,0.01c0,0.06 -0.05,0.11 -0.11,0.11c-0.05,0 -0.1,-0.05 -0.1,-0.11l0,-0.01l-0.15,0l0,0.01c0,0.06 -0.05,0.11 -0.11,0.11c-0.05,0 -0.1,-0.05 -0.1,-0.11l0,-0.01l-0.15,0l0,0.01c0,0.06 -0.05,0.11 -0.11,0.11c-0.06,0 -0.1,-0.05 -0.1,-0.11l0,-0.01l-0.02,0c-0.05,0 -0.1,-0.05 -0.1,-0.11c0,-0.06 0.05,-0.1 0.1,-0.1l0.02,0l0,-0.02c0,-0.06 0.04,-0.1 0.1,-0.1c0.06,0 0.11,0.04 0.11,0.1l0,0.02l0.15,0l0,-0.02c0,-0.06 0.05,-0.1 0.1,-0.1c0.06,0 0.11,0.04 0.11,0.1l0,0.02l0.15,0l0,-0.02c0,-0.06 0.05,-0.1 0.1,-0.1c0.06,0 0.11,0.04 0.11,0.1l0,0.02l0.01,0c0.06,0 0.11,0.04 0.11,0.1c0,0.06 -0.05,0.11 -0.11,0.11zm0.82,-0.04c-0.06,0.06 -0.14,0.13 -0.24,0.22c0,-0.01 -0.01,-0.01 -0.01,-0.01c-0.02,-0.09 -0.03,-0.2 -0.03,-0.29c0,-0.1 0.01,-0.2 0.03,-0.29c0,-0.01 0.01,-0.01 0.01,-0.01c0.1,0.08 0.18,0.15 0.24,0.21c0.05,0.05 0.05,0.12 0,0.17zm0,0" fill="#000000" fill-rule="nonzero" id="svg_149"/>
  </g>
  <g clip-path="url(#bd7f3576af)" id="svg_150">
   <path d="m77.71,188.72c-0.24,0 -0.45,0.11 -0.58,0.29c0.01,-0.05 0.01,-0.09 0.01,-0.13c0,-0.76 -0.62,-1.37 -1.36,-1.37c-0.63,0 -1.15,0.43 -1.31,1.01c0.07,0.05 0.12,0.09 0.18,0.13c0.01,-0.04 0.02,-0.08 0.03,-0.11c0.34,-0.15 0.72,-0.11 1.02,0.07c0.05,-0.05 0.1,-0.11 0.16,-0.16c-0.34,-0.32 -0.68,-0.42 -0.82,-0.45c0.07,-0.06 0.14,-0.11 0.23,-0.16c0.19,0.07 0.47,0.21 0.75,0.47c0.03,-0.02 0.07,-0.06 0.1,-0.08c-0.1,-0.15 -0.16,-0.32 -0.17,-0.5c0.07,0.01 0.14,0.03 0.21,0.05c0.03,0.12 0.07,0.22 0.13,0.32c0.06,-0.05 0.13,-0.1 0.2,-0.14c0.06,0.05 0.11,0.09 0.15,0.15c-0.07,0.05 -0.15,0.1 -0.23,0.15c0.13,0.12 0.28,0.19 0.45,0.22c0.03,0.07 0.04,0.14 0.05,0.22c-0.25,-0.02 -0.49,-0.13 -0.66,-0.31c0,0 -0.01,0 -0.01,0c-0.02,0.02 -0.05,0.04 -0.08,0.06c0.24,0.28 0.44,0.62 0.6,1.01c-0.04,0.07 -0.1,0.14 -0.15,0.2c-0.16,-0.43 -0.36,-0.79 -0.61,-1.06c-0.04,0.04 -0.09,0.09 -0.14,0.13c0.01,0.01 0.02,0.02 0.02,0.02c0.31,0.32 0.39,0.81 0.23,1.22c-0.08,0.03 -0.16,0.04 -0.25,0.05c0.21,-0.36 0.16,-0.83 -0.12,-1.12c-0.01,-0.01 -0.01,-0.01 -0.02,-0.01c-0.33,0.38 -0.52,0.74 -0.61,0.91c-0.06,-0.03 -0.11,-0.08 -0.16,-0.14c0,0 0,-0.01 0,-0.01c0,0.01 0,0.01 -0.01,0.02c-0.04,0.04 -0.08,0.08 -0.15,0.13c0.25,0.27 0.6,0.43 0.98,0.43c0.42,0 0.8,-0.19 1.04,-0.49c0.07,-0.07 0.12,-0.15 0.16,-0.24c0.03,0.38 0.35,0.68 0.73,0.68c0.41,0 0.73,-0.33 0.73,-0.73c0.01,-0.4 -0.32,-0.73 -0.72,-0.73zm-0.43,1.06c-0.07,-0.09 -0.11,-0.21 -0.11,-0.33c0,-0.12 0.04,-0.23 0.11,-0.32c0.08,0.09 0.11,0.2 0.11,0.32c0,0.12 -0.03,0.23 -0.11,0.33zm0.86,0c-0.08,-0.1 -0.12,-0.21 -0.12,-0.33c0,-0.12 0.04,-0.23 0.12,-0.32c0.06,0.09 0.11,0.2 0.11,0.32c-0.01,0.12 -0.05,0.24 -0.11,0.33zm0,0" fill="#000000" fill-rule="nonzero" id="svg_151"/>
  </g>
  <g clip-path="url(#4fd44fc29a)" id="svg_152">
   <path d="m76.14,187.34c0,0 0,0 0.01,0c0.03,0.01 0.07,0.02 0.1,0.03l0.42,-1.06l0.76,0.32l-0.48,1.19c0.05,0.07 0.11,0.13 0.15,0.2c0,0 0.99,-2.48 0.99,-2.48c0.01,-0.03 0.01,-0.05 0,-0.08l-0.14,-0.42l0.47,-1.17c0.04,-0.11 -0.01,-0.23 -0.12,-0.28l-0.19,-0.07c-0.05,-0.03 -0.11,-0.03 -0.16,0c-0.05,0.02 -0.09,0.06 -0.11,0.11l-0.47,1.17l-0.39,0.21c-0.02,0.01 -0.04,0.03 -0.04,0.05l-0.9,2.26c0.04,0 0.07,0.01 0.1,0.02zm1.36,-2.35c0.01,-0.01 0.02,-0.01 0.02,-0.01l0.22,0.09c0,0 0,0.01 0.01,0.01l0.07,0.24l-0.53,-0.22l0.21,-0.11zm0,0" fill="#000000" fill-rule="nonzero" id="svg_153"/>
  </g>
  <g clip-path="url(#c7246ad586)" id="svg_154">
   <path d="m75.07,186.98c0.02,0.09 0.03,0.19 0.03,0.29l0,0.18c0.03,-0.01 0.06,-0.02 0.1,-0.04c0,0 0.01,0 0.01,-0.01c0.04,-0.01 0.07,-0.02 0.1,-0.03c0.07,-0.02 0.14,-0.04 0.21,-0.05c0.07,-0.01 0.13,-0.02 0.21,-0.02l0,-0.03c0,-0.1 0.01,-0.2 0.02,-0.29l0.07,-0.41c0.04,-0.23 0.06,-0.49 0.06,-0.73l0,-1.91c0,-0.23 -0.18,-0.42 -0.41,-0.42l-0.12,0c-0.22,0 -0.4,0.19 -0.4,0.42l0,1.9c0,0.25 0.01,0.5 0.06,0.74l0.06,0.41zm0,0" fill="#000000" fill-rule="nonzero" id="svg_155"/>
  </g>
  <path d="m75.55,188.77c-0.24,-0.14 -0.54,-0.15 -0.8,-0.04c0.08,0.07 0.15,0.13 0.19,0.18c0.1,0.11 0.15,0.24 0.15,0.39c0,0.04 0,0.09 -0.01,0.13c0.12,-0.19 0.27,-0.42 0.47,-0.66zm0,0" fill="#000000" fill-rule="nonzero" id="svg_156"/>
  <g fill="#111b1e" id="svg_157">
   <g id="svg_158" transform="translate(82.341267, 173.599193)">
    <g id="svg_159">
     <path d="m1.66,-1.26c0.91,-0.79 1.08,-1.7 0.44,-2.44c-0.69,-0.8 -1.49,-0.4 -2.1,-0.1c-0.36,0.17 -0.64,0.31 -0.79,0.14c-0.08,-0.1 -0.07,-0.22 0.06,-0.32c0.12,-0.11 0.25,-0.09 0.37,0.04l1.16,-1.01c-0.61,-0.71 -1.48,-0.69 -2.33,0.05c-0.87,0.75 -1.02,1.6 -0.43,2.29c0.72,0.83 1.48,0.44 2.06,0.15c0.35,-0.18 0.63,-0.33 0.79,-0.14c0.11,0.12 0.07,0.27 -0.06,0.39c-0.14,0.12 -0.31,0.11 -0.44,-0.04l-1.21,1.05c0.64,0.75 1.57,0.73 2.48,-0.06zm0,0" id="svg_160"/>
    </g>
   </g>
  </g>
  <g fill="#111b1e" id="svg_161">
   <g id="svg_162" transform="translate(85.696286, 170.674499)">
    <g id="svg_163">
     <path d="m3.04,-1.6l1.5,-0.79l-3.76,-3.19l-1.35,0.71l0.51,4.9l1.45,-0.76l-0.11,-0.66l1.29,-0.68l0.47,0.47zm-1.22,-1.28l-0.79,0.42l-0.19,-1.32l0.98,0.9zm0,0" id="svg_164"/>
    </g>
   </g>
  </g>
  <g fill="#111b1e" id="svg_165">
   <g id="svg_166" transform="translate(90.421343, 168.227746)">
    <g id="svg_167">
     <path d="m2.05,-5.2l0.49,2.01l-2.01,-1.65l-1.25,0.3l1.07,4.45l1.41,-0.34l-0.51,-2.09l2.08,1.72l1.21,-0.29l-1.08,-4.45l-1.41,0.34zm0,0" id="svg_168"/>
    </g>
   </g>
  </g>
  <g fill="#111b1e" id="svg_169">
   <g id="svg_170" transform="translate(95.575811, 167.026362)">
    <g id="svg_171">
     <path d="m2.36,-4.56l-1.97,-0.01l-0.03,4.57l1.96,0.02c1.44,0.01 2.43,-0.93 2.44,-2.27c0.01,-1.36 -0.97,-2.3 -2.4,-2.31zm-0.13,3.2l-0.33,0l0.01,-1.83l0.33,0c0.6,0.01 0.96,0.36 0.96,0.92c0,0.57 -0.38,0.92 -0.97,0.91zm0,0" id="svg_172"/>
    </g>
   </g>
  </g>
  <g fill="#111b1e" id="svg_173">
   <g id="svg_174" transform="translate(100.736021, 167.096915)">
    <g id="svg_175">
     <path d="m4.01,-3.71l-0.38,1.51l-1.04,-0.27l0.38,-1.5l-1.5,-0.38l-1.12,4.44l1.49,0.38l0.4,-1.58l1.04,0.27l-0.4,1.57l1.5,0.38l1.12,-4.44l-1.49,-0.38zm0,0" id="svg_176"/>
    </g>
   </g>
  </g>
  <g fill="#111b1e" id="svg_177">
   <g id="svg_178" transform="translate(105.718864, 168.393133)">
    <g id="svg_179">
     <path d="m2.08,1.25c1.12,0.6 2.24,0.31 2.79,-0.74l1.29,-2.42l-1.4,-0.75l-1.29,2.44c-0.15,0.29 -0.44,0.39 -0.73,0.24c-0.29,-0.16 -0.37,-0.46 -0.22,-0.75l1.29,-2.43l-1.4,-0.74l-1.28,2.43c-0.56,1.05 -0.17,2.13 0.95,2.72zm0,0" id="svg_180"/>
    </g>
   </g>
  </g>
  <g fill="#111b1e" id="svg_181">
   <g id="svg_182" transform="translate(110.226533, 170.863424)">
    <g id="svg_183">
     <path d="m6.09,-0.79l-3.03,-2.62l-0.87,1.01l0.94,0.81l-2.13,2.46l1.16,1l2.13,-2.46l0.93,0.8l0.87,-1zm0,0" id="svg_184"/>
    </g>
   </g>
  </g>
  <g fill="#111b1e" id="svg_185">
   <g id="svg_186" transform="translate(79.40881, 204.416143)">
    <g id="svg_187">
     <path d="m1.02,1.19c0.63,0.65 1.32,0.73 1.84,0.22c0.57,-0.55 0.24,-1.14 -0.01,-1.58c-0.15,-0.26 -0.26,-0.47 -0.15,-0.58c0.07,-0.07 0.16,-0.06 0.25,0.02c0.08,0.09 0.08,0.19 -0.02,0.28l0.81,0.83c0.5,-0.49 0.45,-1.14 -0.14,-1.74c-0.6,-0.62 -1.24,-0.7 -1.73,-0.23c-0.59,0.58 -0.26,1.14 -0.02,1.55c0.15,0.26 0.27,0.46 0.14,0.59c-0.09,0.09 -0.2,0.07 -0.29,-0.03c-0.1,-0.1 -0.11,-0.22 0,-0.33l-0.83,-0.86c-0.54,0.52 -0.48,1.21 0.15,1.86zm0,0" id="svg_188"/>
    </g>
   </g>
  </g>
  <g fill="#111b1e" id="svg_189">
   <g id="svg_190" transform="translate(82.108882, 207.116782)">
    <g id="svg_191">
     <path d="m3.57,-1.63l-1.31,-0.97l-2.04,2.76l0.92,0.68l0.49,-0.66l0.39,0.28c0.62,0.47 1.39,0.36 1.85,-0.25c0.45,-0.62 0.32,-1.38 -0.3,-1.84zm-1.17,1.21l-0.22,-0.16l0.44,-0.58l0.21,0.15c0.18,0.13 0.21,0.34 0.08,0.51c-0.13,0.18 -0.34,0.21 -0.51,0.08zm0,0" id="svg_192"/>
    </g>
   </g>
  </g>
  <g fill="#111b1e" id="svg_193">
   <g id="svg_194" transform="translate(85.365966, 209.48895)">
    <g id="svg_195">
     <path d="m1.82,0.99c1.06,0.52 2.09,0.21 2.56,-0.77c0.48,-0.98 0.09,-1.98 -0.97,-2.49c-1.06,-0.52 -2.08,-0.2 -2.56,0.77c-0.47,0.98 -0.08,1.98 0.97,2.49zm0.46,-0.94c-0.4,-0.19 -0.54,-0.6 -0.33,-1.01c0.2,-0.42 0.6,-0.56 1,-0.37c0.4,0.2 0.54,0.6 0.34,1.02c-0.2,0.41 -0.61,0.56 -1.01,0.36zm0,0" id="svg_196"/>
    </g>
   </g>
  </g>
  <g fill="#111b1e" id="svg_197">
   <g id="svg_198" transform="translate(89.800343, 211.526607)">
    <g id="svg_199">
     <path d="m2.01,0.55l1.23,0.33l-0.26,-1.32c0.34,-0.12 0.59,-0.39 0.7,-0.77c0.2,-0.75 -0.2,-1.4 -0.97,-1.61l-1.55,-0.42l-0.9,3.31l1.1,0.3l0.24,-0.9l0.22,0.06l0.19,1.02zm-0.01,-2.55l0.27,0.07c0.23,0.06 0.32,0.23 0.27,0.41c-0.05,0.18 -0.22,0.28 -0.44,0.22l-0.27,-0.08l0.17,-0.62zm0,0" id="svg_200"/>
    </g>
   </g>
  </g>
  <g fill="#111b1e" id="svg_201">
   <g id="svg_202" transform="translate(93.775747, 212.534051)">
    <g id="svg_203">
     <path d="m3.4,-3.11l-2.99,-0.3l-0.1,0.99l0.92,0.1l-0.24,2.42l1.14,0.11l0.25,-2.42l0.92,0.09l0.1,-0.99zm0,0" id="svg_204"/>
    </g>
   </g>
  </g>
  <g fill="#111b1e" id="svg_205">
   <g id="svg_206" transform="translate(97.595203, 212.861828)">
    <g id="svg_207">
     <path d="m1.56,0.01c0.91,-0.06 1.42,-0.52 1.38,-1.25c-0.05,-0.79 -0.71,-0.92 -1.2,-1.02c-0.29,-0.06 -0.53,-0.11 -0.54,-0.28c0,-0.09 0.06,-0.16 0.18,-0.16c0.12,-0.01 0.19,0.06 0.2,0.19l1.16,-0.07c-0.04,-0.7 -0.57,-1.08 -1.42,-1.03c-0.86,0.04 -1.34,0.48 -1.3,1.16c0.05,0.82 0.69,0.94 1.16,1.03c0.29,0.06 0.53,0.1 0.53,0.28c0.01,0.12 -0.08,0.19 -0.2,0.2c-0.14,0.01 -0.24,-0.07 -0.25,-0.22l-1.2,0.07c0.04,0.74 0.6,1.15 1.5,1.1zm0,0" id="svg_208"/>
    </g>
   </g>
  </g>
  <g fill="#111b1e" id="svg_209">
   <g id="svg_210" transform="translate(101.330138, 212.548256)">
    <g id="svg_211"/>
   </g>
  </g>
  <g fill="#111b1e" id="svg_212">
   <g id="svg_213" transform="translate(102.927996, 212.329753)">
    <g id="svg_214">
     <path d="m1.94,-0.49c0.95,-0.3 1.47,-1.14 1.29,-2.08l-1.13,0.35c0.03,0.34 -0.16,0.63 -0.46,0.72c-0.39,0.12 -0.75,-0.09 -0.88,-0.53c-0.13,-0.44 0.04,-0.82 0.43,-0.93c0.28,-0.09 0.6,0.03 0.77,0.29l1.12,-0.34c-0.39,-0.85 -1.27,-1.24 -2.2,-0.95c-1.05,0.32 -1.59,1.28 -1.28,2.29c0.31,1 1.29,1.5 2.34,1.18zm0,0" id="svg_215"/>
    </g>
   </g>
  </g>
  <g fill="#111b1e" id="svg_216">
   <g id="svg_217" transform="translate(107.324582, 210.864296)">
    <g id="svg_218">
     <path d="m0.82,-1.56l-1.07,-2.15l-1.04,0.52l1.53,3.07l2.07,-1.03l-0.46,-0.92l-1.03,0.51zm0,0" id="svg_219"/>
    </g>
   </g>
  </g>
  <g fill="#111b1e" id="svg_220">
   <g id="svg_221" transform="translate(110.315254, 209.350858)">
    <g id="svg_222">
     <path d="m1.54,-0.98c0.77,-0.56 0.95,-1.4 0.43,-2.13l-1.2,-1.67l-0.97,0.69l1.21,1.68c0.14,0.2 0.11,0.43 -0.09,0.57c-0.2,0.15 -0.42,0.1 -0.57,-0.1l-1.2,-1.67l-0.97,0.69l1.21,1.67c0.52,0.73 1.37,0.82 2.15,0.27zm0,0" id="svg_223"/>
    </g>
   </g>
  </g>
  <g fill="#111b1e" id="svg_224">
   <g id="svg_225" transform="translate(113.803286, 206.748669)">
    <g id="svg_226">
     <path d="m0.53,-3.11c0.07,-0.31 0,-0.64 -0.23,-0.86c-0.36,-0.35 -0.93,-0.29 -1.37,0.15l-1.19,1.23l2.45,2.4l1.21,-1.24c0.48,-0.48 0.52,-1.09 0.12,-1.48c-0.27,-0.26 -0.64,-0.32 -0.99,-0.2zm-0.83,0.04c0.1,0.11 0.09,0.25 -0.02,0.37l-0.26,0.26l-0.35,-0.34l0.26,-0.26c0.12,-0.12 0.26,-0.13 0.37,-0.03zm0.91,1.25l-0.27,0.28l-0.38,-0.36l0.28,-0.28c0.12,-0.13 0.28,-0.14 0.39,-0.03c0.12,0.1 0.1,0.26 -0.02,0.39zm0,0" id="svg_227"/>
    </g>
   </g>
  </g>
  <g fill="#111b1e" id="svg_228">
   <g id="svg_229" transform="translate(90.253859, 178.501844)">
    <g id="svg_230">
     <path d="m0.73,-0.48l0,-0.2l0.57,0l0,-0.44l-0.57,0l0,-0.2l0.64,0l0,-0.48l-1.23,0l0,1.8l1.24,0l0,-0.48l-0.65,0zm0,0" id="svg_231"/>
    </g>
   </g>
  </g>
  <g fill="#111b1e" id="svg_232">
   <g id="svg_233" transform="translate(91.861021, 178.501844)">
    <g id="svg_234">
     <path d="m0.82,0.05c0.47,0 0.75,-0.23 0.75,-0.61c0,-0.41 -0.34,-0.5 -0.59,-0.57c-0.15,-0.04 -0.27,-0.07 -0.27,-0.16c0,-0.05 0.03,-0.08 0.09,-0.08c0.07,0 0.1,0.04 0.1,0.11l0.61,0c0,-0.37 -0.26,-0.59 -0.71,-0.59c-0.45,0 -0.71,0.21 -0.71,0.57c0,0.43 0.32,0.51 0.57,0.57c0.15,0.04 0.27,0.07 0.27,0.17c0,0.06 -0.05,0.09 -0.11,0.09c-0.08,0 -0.13,-0.04 -0.13,-0.12l-0.63,0c0,0.39 0.28,0.62 0.76,0.62zm0,0" id="svg_235"/>
    </g>
   </g>
  </g>
  <g fill="#111b1e" id="svg_236">
   <g id="svg_237" transform="translate(93.622215, 178.501844)">
    <g id="svg_238">
     <path d="m1.61,-1.8l-1.57,0l0,0.52l0.48,0l0,1.28l0.6,0l0,-1.28l0.49,0l0,-0.52zm0,0" id="svg_239"/>
    </g>
   </g>
  </g>
  <g fill="#111b1e" id="svg_240">
   <g id="svg_241" transform="translate(95.393678, 178.501844)">
    <g id="svg_242">
     <path d="m0.91,-1.8l-0.77,0l0,1.8l0.77,0c0.57,0 0.95,-0.37 0.95,-0.9c0,-0.53 -0.38,-0.9 -0.95,-0.9zm-0.04,1.26l-0.13,0l0,-0.72l0.13,0c0.24,0 0.38,0.14 0.38,0.36c0,0.22 -0.14,0.36 -0.38,0.36zm0,0" id="svg_243"/>
    </g>
   </g>
  </g>
  <g fill="#111b1e" id="svg_244">
   <g id="svg_245" transform="translate(97.442401, 178.501844)">
    <g id="svg_246"/>
   </g>
  </g>
  <g fill="#111b1e" id="svg_247">
   <g id="svg_248" transform="translate(98.068891, 178.501844)">
    <g id="svg_249">
     <path d="m0.94,-0.45c0.36,-0.41 0.43,-0.54 0.43,-0.77c0,-0.32 -0.26,-0.54 -0.65,-0.54c-0.41,0 -0.65,0.22 -0.65,0.6l0,0.03l0.53,0l0,-0.03c0,-0.1 0.04,-0.15 0.12,-0.15c0.07,0 0.12,0.05 0.12,0.12c0,0.12 -0.1,0.25 -0.79,1.06l0,0.13l1.36,0l0,-0.45l-0.47,0zm0,0" id="svg_250"/>
    </g>
   </g>
  </g>
  <g fill="#111b1e" id="svg_251">
   <g id="svg_252" transform="translate(99.694024, 178.501844)">
    <g id="svg_253">
     <path d="m0.89,0.06c0.49,0 0.81,-0.36 0.81,-0.91c0,-0.54 -0.32,-0.91 -0.81,-0.91c-0.49,0 -0.82,0.37 -0.82,0.91c0,0.55 0.33,0.91 0.82,0.91zm0,-0.45c-0.16,0 -0.26,-0.17 -0.26,-0.46c0,-0.28 0.1,-0.45 0.26,-0.45c0.16,0 0.25,0.17 0.25,0.45c0,0.29 -0.09,0.46 -0.25,0.46zm0,0" id="svg_254"/>
    </g>
   </g>
  </g>
  <g fill="#111b1e" id="svg_255">
   <g id="svg_256" transform="translate(101.598983, 178.501844)">
    <g id="svg_257">
     <path d="m0.94,-0.45c0.36,-0.41 0.43,-0.54 0.43,-0.77c0,-0.32 -0.26,-0.54 -0.65,-0.54c-0.41,0 -0.65,0.22 -0.65,0.6l0,0.03l0.53,0l0,-0.03c0,-0.1 0.04,-0.15 0.12,-0.15c0.07,0 0.12,0.05 0.12,0.12c0,0.12 -0.1,0.25 -0.79,1.06l0,0.13l1.36,0l0,-0.45l-0.47,0zm0,0" id="svg_258"/>
    </g>
   </g>
  </g>
  <g fill="#111b1e" id="svg_259">
   <g id="svg_260" transform="translate(103.224116, 178.501844)">
    <g id="svg_261">
     <path d="m1.03,-1.08l0.35,-0.54l0,-0.09l-1.27,0l0,0.44l0.58,0l-0.25,0.39l0,0.13l0.29,0c0.12,0 0.19,0.07 0.19,0.19c0,0.11 -0.07,0.19 -0.18,0.19c-0.11,0 -0.18,-0.08 -0.19,-0.19l-0.49,0c0.01,0.37 0.28,0.61 0.68,0.61c0.4,0 0.69,-0.25 0.69,-0.61c0,-0.26 -0.16,-0.46 -0.4,-0.52zm0,0" id="svg_262"/>
    </g>
   </g>
  </g>
  <g fill="#111b1e" id="svg_263">
   <g id="svg_264" transform="translate(104.849648, 178.501844)">
    <g id="svg_265"/>
   </g>
  </g>
  <path d="m0,0.5l4.71,0" fill="none" id="svg_266" stroke="#000000" stroke-miterlimit="4" transform="matrix(0.797342, 0, 0, 0.75, 73.986079, 191.015495)"/>
  <path d="m0,0.5l4.71,0" fill="none" id="svg_267" stroke="#000000" stroke-miterlimit="4" transform="matrix(0.797342, 0, 0, 0.75, 118.592114, 191.015495)"/>
 </g>
</svg>