<svg width="342" height="89" viewBox="0 0 342 89" fill="none" xmlns="http://www.w3.org/2000/svg">
<path d="M106.488 22.1652C107.462 22.1652 108.208 22.5159 108.727 23.2099C109.212 23.8889 109.458 24.8366 109.458 26.0604V27.717C109.458 28.8027 109.219 29.687 108.742 30.3735C108.253 31.0824 107.488 31.4331 106.443 31.4331H97.9514C97.8618 31.4331 97.7462 31.3995 97.6081 31.3286C97.4664 31.2614 97.3992 31.0824 97.3992 30.7913V29.284C97.3992 28.9967 97.4664 28.8176 97.6081 28.7467C97.7462 28.6796 97.8618 28.6423 97.9514 28.6423H105.995C106.152 28.6423 106.268 28.6199 106.339 28.5676C106.406 28.5079 106.462 28.4557 106.503 28.4035C106.611 28.2169 106.667 27.952 106.667 27.6125V25.9858C106.667 25.5306 106.592 25.247 106.443 25.1351C106.294 25.0157 106.148 24.956 106.01 24.956H100.354C99.9662 24.956 99.5669 24.9075 99.1602 24.8068C98.7498 24.7098 98.4028 24.4635 98.1156 24.0755C97.6268 23.3815 97.3843 22.3741 97.3843 21.0608V19.6281C97.3843 18.5237 97.6268 17.6357 98.1156 16.9567C98.6006 16.2627 99.3617 15.912 100.399 15.912H108.518C108.585 15.912 108.689 15.9493 108.831 16.0165C108.969 16.0873 109.04 16.2664 109.04 16.5537V18.0611C109.04 18.3521 108.969 18.5312 108.831 18.5983C108.689 18.6692 108.585 18.7028 108.518 18.7028H100.847C100.686 18.7028 100.571 18.7289 100.503 18.7774C100.433 18.8297 100.377 18.8819 100.339 18.9416C100.239 19.1431 100.19 19.4042 100.19 19.7326V21.1354C100.19 21.5943 100.257 21.8816 100.399 22.001C100.548 22.113 100.69 22.1652 100.832 22.1652H106.488Z" fill="white"/>
<path d="M123.488 17.6581L128.786 30.7167C128.865 30.8958 128.883 31.045 128.846 31.1644C128.835 31.2166 128.801 31.2763 128.742 31.3435C128.682 31.4144 128.577 31.448 128.428 31.448H126.413C126.145 31.448 125.958 31.3099 125.861 31.0301L121.19 19.3743C121.179 19.3557 121.175 19.3445 121.175 19.3445H121.1C121.1 19.3445 121.093 19.352 121.086 19.3594C121.086 19.3594 121.078 19.3743 121.071 19.4042L118.653 25.4932H120.996C121.253 25.4932 121.433 25.6238 121.533 25.8813L122.22 27.5528C122.279 27.7617 122.253 27.9482 122.145 28.1049C122.033 28.2766 121.869 28.3587 121.653 28.3587H117.519L116.444 31.0599C116.343 31.3211 116.168 31.448 115.922 31.448H113.847C113.698 31.448 113.594 31.4144 113.534 31.3435C113.482 31.2763 113.448 31.2166 113.429 31.1644C113.4 31.0562 113.415 30.907 113.474 30.7167L118.728 17.6581C118.974 17.0014 119.254 16.5462 119.563 16.285C119.593 16.2664 119.63 16.2365 119.683 16.1955C119.742 16.1582 119.795 16.1283 119.847 16.106C120.212 15.8373 120.645 15.703 121.145 15.703C121.653 15.703 122.115 15.8634 122.533 16.1806C122.951 16.4903 123.235 16.8932 123.384 17.3894C123.403 17.4193 123.421 17.4603 123.444 17.5088C123.462 17.5611 123.477 17.6096 123.488 17.6581Z" fill="white"/>
<path d="M146.149 15.912C146.227 15.912 146.335 15.9493 146.477 16.0165C146.615 16.0873 146.686 16.2702 146.686 16.5686V29.0154C146.686 29.9407 146.551 30.5749 146.283 30.9107C146.022 31.2689 145.615 31.448 145.059 31.448H143.686C143.436 31.448 143.223 31.4293 143.044 31.3883C142.955 31.3696 142.865 31.3435 142.776 31.3137C142.694 31.2838 142.615 31.2465 142.537 31.1943C142.388 31.1047 142.246 30.9667 142.119 30.7764C142.059 30.6869 141.988 30.5899 141.91 30.4779C141.839 30.3585 141.765 30.2242 141.686 30.075L135.717 19.4938C135.705 19.4639 135.694 19.449 135.687 19.449C135.676 19.4415 135.672 19.4341 135.672 19.4341H135.567C135.567 19.4341 135.567 19.4415 135.567 19.449C135.567 19.449 135.567 19.4602 135.567 19.4789V30.7913C135.567 31.0824 135.5 31.2652 135.373 31.3435C135.243 31.4144 135.135 31.448 135.045 31.448H133.373C133.284 31.448 133.168 31.4144 133.03 31.3435C132.888 31.2652 132.821 31.0824 132.821 30.7913V18.3446C132.821 17.4305 132.948 16.7925 133.209 16.4343C133.485 16.0873 133.896 15.912 134.433 15.912H135.851C135.978 15.912 136.097 15.9194 136.209 15.9269C136.317 15.9269 136.418 15.9381 136.508 15.9568C136.716 15.9866 136.896 16.0612 137.045 16.1806C137.164 16.2702 137.291 16.4157 137.433 16.6134C137.493 16.703 137.556 16.8037 137.627 16.9119C137.694 17.0238 137.769 17.147 137.851 17.285L143.805 27.8662C143.813 27.9073 143.828 27.9259 143.85 27.9259H143.955C143.955 27.9184 143.955 27.911 143.955 27.911C143.955 27.911 143.955 27.9073 143.955 27.8961V16.5686C143.955 16.2702 144.018 16.0873 144.149 16.0165C144.276 15.9493 144.387 15.912 144.477 15.912H146.149Z" fill="white"/>
<path d="M163.489 19.4192C163.675 20.2064 163.772 21.1354 163.772 22.21V25.1649C163.772 26.232 163.675 27.161 163.489 27.9558C163.399 28.3438 163.272 28.7094 163.116 29.0452C162.966 29.3735 162.787 29.6646 162.578 29.9108C162.168 30.4406 161.638 30.8286 160.981 31.0749C160.343 31.3249 159.582 31.448 158.698 31.448H152.266C151.975 31.448 151.702 31.3808 151.445 31.2391C151.184 31.0898 150.982 30.8921 150.833 30.6421C150.732 30.463 150.661 30.269 150.624 30.0601L150.639 17.1955C150.669 17.1171 150.699 17.0388 150.728 16.9567C150.758 16.8783 150.792 16.8 150.833 16.7179C151.131 16.2329 151.564 15.968 152.131 15.9269V15.912H158.698C159.564 15.912 160.325 16.0388 160.981 16.2851C161.616 16.5463 162.149 16.9268 162.578 17.4342C162.787 17.7029 162.966 18.0014 163.116 18.3297C163.272 18.6506 163.399 19.0125 163.489 19.4192ZM153.385 28.5527C153.385 28.5938 153.389 28.6199 153.4 28.6273C153.407 28.6385 153.415 28.6423 153.415 28.6423H158.653C158.862 28.6423 159.06 28.6348 159.25 28.6124C159.437 28.5826 159.608 28.5453 159.758 28.493C160.045 28.3848 160.28 28.2169 160.459 27.9856C160.646 27.7394 160.776 27.411 160.847 27.0006C160.884 26.7917 160.914 26.5603 160.937 26.2992C160.966 26.0417 160.981 25.7582 160.981 25.4485V21.9264C160.981 21.6093 160.966 21.322 160.937 21.0608C160.914 20.7922 160.884 20.5534 160.847 20.3445C160.776 19.9378 160.646 19.6132 160.459 19.3744C160.31 19.158 160.075 18.9864 159.758 18.867C159.459 18.7588 159.09 18.7028 158.653 18.7028H153.43C153.4 18.7028 153.385 18.7401 153.385 18.8073V28.5527Z" fill="white"/>
<path d="M179.876 15.912C179.965 15.912 180.077 15.953 180.219 16.0314C180.357 16.1023 180.428 16.2814 180.428 16.5686V30.7913C180.428 31.0824 180.357 31.2652 180.219 31.3435C180.077 31.4144 179.965 31.448 179.876 31.448H178.144C178.073 31.448 177.969 31.4144 177.831 31.3435C177.7 31.2652 177.637 31.0824 177.637 30.7913V24.9859H170.503V30.7913C170.503 31.0824 170.432 31.2652 170.294 31.3435C170.164 31.4144 170.055 31.448 169.966 31.448H168.265C168.175 31.448 168.059 31.4144 167.921 31.3435C167.78 31.2652 167.712 31.0824 167.712 30.7913V16.5686C167.712 16.2814 167.78 16.1023 167.921 16.0314C168.059 15.953 168.175 15.912 168.265 15.912H169.966C170.055 15.912 170.164 15.953 170.294 16.0314C170.432 16.1023 170.503 16.2814 170.503 16.5686V22.21H177.637V16.5686C177.637 16.2814 177.7 16.1023 177.831 16.0314C177.969 15.953 178.073 15.912 178.144 15.912H179.876Z" fill="white"/>
<path d="M197.382 15.912C197.471 15.912 197.579 15.9493 197.71 16.0165C197.837 16.0873 197.904 16.2664 197.904 16.5537V25.538C197.904 26.0679 197.881 26.5603 197.844 27.0155C197.814 27.4633 197.755 27.8662 197.665 28.2244C197.486 29.0116 197.217 29.6273 196.859 30.075C196.49 30.5526 195.997 30.907 195.382 31.1346C194.815 31.3361 194.106 31.4331 193.262 31.4331H189.024C188.166 31.4331 187.457 31.3361 186.89 31.1346C186.599 31.0152 186.33 30.8734 186.084 30.7018C185.834 30.5227 185.621 30.3138 185.442 30.075C185.054 29.5974 184.774 28.9818 184.606 28.2244C184.524 27.8662 184.465 27.4633 184.427 27.0155C184.386 26.5603 184.368 26.0679 184.368 25.538V16.5537C184.368 16.2664 184.435 16.0873 184.577 16.0165C184.715 15.9493 184.83 15.912 184.92 15.912H186.621C186.711 15.912 186.819 15.9493 186.95 16.0165C187.088 16.0873 187.158 16.2664 187.158 16.5537V25.8365C187.158 26.1164 187.166 26.3813 187.188 26.6275C187.207 26.8663 187.226 27.0752 187.248 27.2543C187.326 27.5938 187.431 27.8774 187.561 28.105C187.718 28.2953 187.908 28.4296 188.129 28.5079C188.255 28.549 188.401 28.5826 188.561 28.6124C188.729 28.6348 188.912 28.6423 189.114 28.6423H193.188C193.386 28.6423 193.565 28.6348 193.725 28.6124C193.893 28.5826 194.039 28.549 194.158 28.5079C194.385 28.4296 194.576 28.2953 194.725 28.105C194.785 28.008 194.844 27.8886 194.904 27.7468C194.964 27.5976 195.001 27.4334 195.023 27.2543C195.053 27.0752 195.076 26.8663 195.098 26.6275C195.117 26.3813 195.128 26.1164 195.128 25.8365V16.5537C195.128 16.2664 195.191 16.0873 195.322 16.0165C195.449 15.9493 195.561 15.912 195.65 15.912H197.382Z" fill="white"/>
<path d="M214.864 15.912C214.954 15.912 215.066 15.9493 215.208 16.0165C215.346 16.0873 215.417 16.2664 215.417 16.5537V18.0163C215.417 18.3372 215.346 18.5312 215.208 18.5983C215.066 18.6692 214.954 18.7028 214.864 18.7028H210.029V30.7913C210.029 31.0824 209.958 31.2614 209.82 31.3286C209.689 31.3995 209.581 31.4331 209.492 31.4331H207.761C207.69 31.4331 207.585 31.3995 207.447 31.3286C207.305 31.2614 207.238 31.0824 207.238 30.7913V18.7028H202.403C202.313 18.7028 202.198 18.6692 202.06 18.5983C201.918 18.5312 201.851 18.3372 201.851 18.0163V16.5537C201.851 16.2664 201.918 16.0873 202.06 16.0165C202.198 15.9493 202.313 15.912 202.403 15.912H214.864Z" fill="white"/>
<path d="M110.727 51.875C112.1 51.875 113.149 52.36 113.876 53.3226C114.563 54.2777 114.906 55.6172 114.906 57.3372V59.6654C114.906 61.1802 114.57 62.4189 113.906 63.3815C113.219 64.3665 112.145 64.8589 110.682 64.8589H98.7729C98.6535 64.8589 98.4931 64.8142 98.2953 64.7246C98.1051 64.6276 98.0118 64.3739 98.0118 63.9635V61.8443C98.0118 61.4488 98.1051 61.1988 98.2953 61.0981C98.4931 61.0011 98.6535 60.9488 98.7729 60.9488H110.041C110.268 60.9488 110.432 60.9115 110.533 60.8294C110.63 60.7511 110.705 60.6765 110.757 60.6056C110.914 60.3481 110.996 59.9788 110.996 59.5012V57.2327C110.996 56.5873 110.891 56.1843 110.682 56.0239C110.473 55.8672 110.268 55.7851 110.07 55.7851H102.161C101.612 55.7851 101.049 55.7179 100.474 55.5761C99.9071 55.4381 99.4184 55.0948 99.0117 54.5464C98.3252 53.5726 97.9819 52.166 97.9819 50.3229V48.3081C97.9819 46.7672 98.3252 45.5173 99.0117 44.5621C99.6982 43.5995 100.762 43.1145 102.205 43.1145H113.578C113.686 43.1145 113.835 43.1667 114.025 43.2637C114.223 43.3645 114.324 43.6145 114.324 44.0099V46.1292C114.324 46.5284 114.223 46.7784 114.025 46.8754C113.835 46.9761 113.686 47.0246 113.578 47.0246H102.847C102.616 47.0246 102.452 47.0619 102.355 47.1291C102.254 47.2 102.179 47.2783 102.131 47.3679C101.989 47.6477 101.922 48.0171 101.922 48.4723V50.4273C101.922 51.0765 102.019 51.4795 102.22 51.6362C102.429 51.7966 102.627 51.875 102.817 51.875H110.727Z" fill="white"/>
<path d="M133.365 43.1145C135.156 43.1145 136.447 43.6779 137.246 44.8009C138.011 45.8568 138.395 47.45 138.395 49.5766V49.4274C138.395 51.5168 138.011 53.1099 137.246 54.2031C136.447 55.3075 135.156 55.8597 133.365 55.8597L124.336 55.8896V63.9635C124.336 64.3739 124.236 64.6314 124.038 64.7396C123.848 64.8403 123.702 64.8888 123.605 64.8888H121.172C121.061 64.8888 120.908 64.8403 120.71 64.7396C120.52 64.6314 120.426 64.3739 120.426 63.9635V52.8749C120.426 52.4794 120.52 52.2294 120.71 52.1287C120.908 52.0317 121.061 51.9794 121.172 51.9794H132.679C133.343 51.9794 133.806 51.7854 134.067 51.3974C134.354 51.0094 134.5 50.3788 134.5 49.502C134.5 48.629 134.354 47.9947 134.067 47.6067C133.806 47.2186 133.343 47.0246 132.679 47.0246H121.172C121.061 47.0246 120.908 46.9761 120.71 46.8754C120.52 46.7784 120.426 46.5284 120.426 46.1292V44.0398C120.426 43.6219 120.52 43.3645 120.71 43.2637C120.908 43.1667 121.061 43.1145 121.172 43.1145H133.365Z" fill="white"/>
<path d="M161.896 45.0397C162.411 45.6777 162.791 46.5396 163.03 47.6216C163.138 48.1402 163.224 48.7185 163.284 49.3528C163.344 49.9796 163.373 50.6586 163.373 51.3825V56.6059C163.373 57.3447 163.344 58.0312 163.284 58.6654C163.224 59.2922 163.138 59.8594 163.03 60.3668C162.791 61.4413 162.411 62.3144 161.896 62.9785C161.359 63.665 160.676 64.1538 159.851 64.4411C159.004 64.7396 158.008 64.8888 156.866 64.8888H150.419C149.263 64.8888 148.278 64.7396 147.464 64.4411C146.636 64.1538 145.949 63.6613 145.405 62.9636C144.875 62.2771 144.498 61.4115 144.271 60.3668C144.151 59.8594 144.062 59.2922 144.002 58.6654C143.95 58.0312 143.927 57.3447 143.927 56.6059V51.3825C143.927 49.8714 144.039 48.6178 144.271 47.6216C144.498 46.5881 144.875 45.7262 145.405 45.0397C145.949 44.3756 146.636 43.8831 147.464 43.5622C148.307 43.2637 149.292 43.1145 150.419 43.1145H156.866C158.008 43.1145 159.004 43.2637 159.851 43.5622C160.676 43.8831 161.359 44.3756 161.896 45.0397ZM159.448 50.9198C159.448 50.543 159.437 50.1885 159.418 49.8602C159.396 49.5319 159.363 49.2409 159.314 48.9797C159.243 48.4835 159.094 48.0842 158.866 47.7858C158.687 47.5395 158.422 47.3455 158.075 47.2037C157.896 47.1552 157.695 47.1142 157.478 47.0843C157.258 47.047 157.008 47.0246 156.732 47.0246H150.554C150.274 47.0246 150.024 47.047 149.807 47.0843C149.587 47.1142 149.389 47.1552 149.21 47.2037C148.86 47.3455 148.598 47.5395 148.419 47.7858C148.307 47.9275 148.218 48.0992 148.151 48.3081C148.08 48.5096 148.02 48.7334 147.972 48.9797C147.931 49.2409 147.897 49.5319 147.867 49.8602C147.845 50.1885 147.837 50.543 147.837 50.9198V57.0686C147.837 57.4566 147.845 57.8148 147.867 58.1431C147.897 58.4714 147.931 58.7662 147.972 59.0236C148.02 59.2549 148.08 59.4713 148.151 59.6803C148.218 59.8818 148.307 60.0497 148.419 60.1877C148.598 60.4675 148.86 60.6615 149.21 60.7697C149.528 60.8891 149.975 60.9488 150.554 60.9488H156.732C157.307 60.9488 157.754 60.8891 158.075 60.7697C158.422 60.6615 158.687 60.4675 158.866 60.1877C159.075 59.9303 159.224 59.5422 159.314 59.0236C159.363 58.7662 159.396 58.4714 159.418 58.1431C159.437 57.8148 159.448 57.4566 159.448 57.0686V50.9198Z" fill="white"/>
<path d="M186.902 49.4274V49.5766C186.902 49.5692 186.902 49.558 186.902 49.5468C186.902 49.5393 186.902 49.5244 186.902 49.502C186.902 49.4834 186.902 49.4684 186.902 49.4573C186.902 49.4498 186.902 49.4386 186.902 49.4274ZM187.41 63.7247C187.507 63.8665 187.544 64.0754 187.514 64.3515C187.462 64.7097 187.26 64.8888 186.902 64.8888H184.007C183.776 64.8888 183.593 64.8366 183.455 64.7246C183.395 64.6948 183.339 64.6463 183.291 64.5754C183.25 64.497 183.205 64.4224 183.156 64.3515L178.381 55.8896H172.814V63.9635C172.814 64.3739 172.717 64.6314 172.53 64.7396C172.351 64.8403 172.202 64.8888 172.083 64.8888H169.68C169.549 64.8888 169.385 64.8403 169.187 64.7396C168.997 64.6314 168.904 64.3739 168.904 63.9635V52.8749C168.904 52.4794 168.997 52.2294 169.187 52.1287C169.385 52.0317 169.549 51.9794 169.68 51.9794H181.157C181.821 51.9794 182.283 51.7854 182.544 51.3974C182.832 51.0094 182.977 50.3788 182.977 49.502C182.977 48.629 182.832 47.9947 182.544 47.6067C182.283 47.2186 181.821 47.0246 181.157 47.0246H169.68C169.549 47.0246 169.385 46.9761 169.187 46.8754C168.997 46.7784 168.904 46.5284 168.904 46.1292V44.0398C168.904 43.6219 168.997 43.3645 169.187 43.2637C169.385 43.1667 169.549 43.1145 169.68 43.1145H181.843C183.653 43.1145 184.951 43.6779 185.738 44.8009C186.492 45.8979 186.88 47.4649 186.902 49.502C186.88 51.5429 186.492 53.1099 185.738 54.2031C185.07 55.121 184.085 55.6582 182.783 55.8149L187.41 63.7247Z" fill="white"/>
<path d="M211.301 43.1145C211.428 43.1145 211.588 43.1667 211.778 43.2637C211.965 43.3645 212.062 43.6145 212.062 44.0099V46.0695C212.062 46.5097 211.965 46.7784 211.778 46.8754C211.588 46.9761 211.428 47.0246 211.301 47.0246H204.525V63.9635C204.525 64.3739 204.428 64.6276 204.242 64.7246C204.063 64.8142 203.906 64.8589 203.779 64.8589H201.361C201.249 64.8589 201.096 64.8142 200.899 64.7246C200.708 64.6276 200.615 64.3739 200.615 63.9635V47.0246H193.84C193.709 47.0246 193.545 46.9761 193.347 46.8754C193.157 46.7784 193.063 46.5097 193.063 46.0695V44.0099C193.063 43.6145 193.157 43.3645 193.347 43.2637C193.545 43.1667 193.709 43.1145 193.84 43.1145H211.301Z" fill="white"/>
<path d="M230.337 51.875C231.71 51.875 232.758 52.36 233.486 53.3226C234.172 54.2777 234.516 55.6172 234.516 57.3372V59.6654C234.516 61.1802 234.18 62.4189 233.516 63.3815C232.829 64.3665 231.755 64.8589 230.292 64.8589H218.383C218.263 64.8589 218.103 64.8142 217.905 64.7246C217.715 64.6276 217.622 64.3739 217.622 63.9635V61.8443C217.622 61.4488 217.715 61.1988 217.905 61.0981C218.103 61.0011 218.263 60.9488 218.383 60.9488H229.65C229.878 60.9488 230.042 60.9115 230.143 60.8294C230.24 60.7511 230.315 60.6765 230.367 60.6056C230.524 60.3481 230.606 59.9788 230.606 59.5012V57.2327C230.606 56.5873 230.501 56.1843 230.292 56.0239C230.083 55.8672 229.878 55.7851 229.68 55.7851H221.771C221.222 55.7851 220.659 55.7179 220.084 55.5761C219.517 55.4381 219.028 55.0948 218.622 54.5464C217.935 53.5726 217.592 52.166 217.592 50.3229V48.3081C217.592 46.7672 217.935 45.5173 218.622 44.5621C219.308 43.5995 220.371 43.1145 221.815 43.1145H233.188C233.296 43.1145 233.445 43.1667 233.635 43.2637C233.833 43.3645 233.934 43.6145 233.934 44.0099V46.1292C233.934 46.5284 233.833 46.7784 233.635 46.8754C233.445 46.9761 233.296 47.0246 233.188 47.0246H222.457C222.226 47.0246 222.062 47.0619 221.965 47.1291C221.864 47.2 221.789 47.2783 221.741 47.3679C221.599 47.6477 221.532 48.0171 221.532 48.4723V50.4273C221.532 51.0765 221.629 51.4795 221.83 51.6362C222.039 51.7966 222.237 51.875 222.427 51.875H230.337Z" fill="white"/>
<path d="M271.046 43.1145C271.143 43.1145 271.289 43.1705 271.479 43.2787C271.677 43.3794 271.777 43.6331 271.777 44.0398V46.0695C271.777 46.4985 271.677 46.7672 271.479 46.8754C271.289 46.9761 271.143 47.0246 271.046 47.0246H261.569C260.972 47.0246 260.513 47.0843 260.196 47.2037C259.875 47.3156 259.614 47.5097 259.405 47.7858C259.215 48.0544 259.066 48.4424 258.958 48.9498C258.916 49.1998 258.883 49.4871 258.853 49.8154C258.831 50.1363 258.823 50.4982 258.823 50.9049V57.0536C258.823 57.4417 258.831 57.8073 258.853 58.1431C258.883 58.4714 258.916 58.7662 258.958 59.0236C259.006 59.2736 259.066 59.4975 259.137 59.6952C259.204 59.8855 259.293 60.0497 259.405 60.1877C259.614 60.4675 259.875 60.6615 260.196 60.7697C260.513 60.8891 260.972 60.9488 261.569 60.9488H271.046C271.143 60.9488 271.289 61.0048 271.479 61.113C271.677 61.2249 271.777 61.4786 271.777 61.8741V63.9635C271.777 64.3739 271.677 64.6314 271.479 64.7396C271.289 64.8403 271.143 64.8888 271.046 64.8888H261.435C260.29 64.8888 259.293 64.7396 258.45 64.4411C257.644 64.1538 256.965 63.665 256.42 62.9785C255.872 62.2845 255.484 61.4227 255.256 60.3966C255.137 59.8706 255.047 59.2922 254.988 58.6654C254.935 58.0312 254.913 57.3447 254.913 56.6059V51.3825C254.913 50.6586 254.935 49.9796 254.988 49.3528C255.047 48.7185 255.137 48.1402 255.256 47.6216C255.484 46.5694 255.872 45.7076 256.42 45.0397C256.928 44.3756 257.603 43.8831 258.45 43.5622C259.293 43.2637 260.29 43.1145 261.435 43.1145H271.046Z" fill="white"/>
<path d="M292.543 60.9488C292.663 60.9488 292.812 61.0048 292.991 61.113C293.177 61.2249 293.274 61.4786 293.274 61.8741V63.9635C293.274 64.3739 293.177 64.6314 292.991 64.7396C292.812 64.8403 292.663 64.8888 292.543 64.8888H283.828C282.663 64.8888 281.678 64.7396 280.873 64.4411C280.044 64.1538 279.358 63.6613 278.813 62.9636C278.306 62.3293 277.925 61.4637 277.679 60.3668C277.429 59.3034 277.306 58.0498 277.306 56.6059V44.0398C277.306 43.6219 277.399 43.3645 277.589 43.2637C277.787 43.1667 277.951 43.1145 278.082 43.1145H280.499C280.608 43.1145 280.757 43.1667 280.947 43.2637C281.145 43.3645 281.246 43.6219 281.246 44.0398V57.0536C281.246 57.4417 281.249 57.8073 281.261 58.1431C281.279 58.4714 281.32 58.7662 281.38 59.0236C281.447 59.5012 281.596 59.8892 281.828 60.1877C281.996 60.4675 282.249 60.6615 282.589 60.7697C282.936 60.8891 283.395 60.9488 283.962 60.9488H292.543Z" fill="white"/>
<path d="M317.039 43.1145C317.166 43.1145 317.323 43.1667 317.502 43.2637C317.688 43.3645 317.785 43.6145 317.785 44.0099V56.6059C317.785 57.3447 317.755 58.0312 317.696 58.6654C317.643 59.2923 317.561 59.8594 317.442 60.3668C317.192 61.4637 316.815 62.3293 316.308 62.9636C315.789 63.6314 315.103 64.1239 314.248 64.4411C313.45 64.7209 312.457 64.8589 311.263 64.8589H305.324C304.13 64.8589 303.133 64.7209 302.339 64.4411C301.94 64.2844 301.563 64.0792 301.205 63.8292C300.854 63.5829 300.555 63.2919 300.309 62.9636C299.761 62.2995 299.373 61.4339 299.145 60.3668C299.026 59.8594 298.936 59.2923 298.876 58.6654C298.824 58.0312 298.802 57.3447 298.802 56.6059V44.0099C298.802 43.6145 298.895 43.3645 299.085 43.2637C299.283 43.1667 299.447 43.1145 299.578 43.1145H301.981C302.1 43.1145 302.249 43.1667 302.428 43.2637C302.615 43.3645 302.712 43.6145 302.712 44.0099V57.0238C302.712 57.4118 302.719 57.7812 302.742 58.1282C302.772 58.4677 302.805 58.7624 302.846 59.0087C302.954 59.4788 303.104 59.8706 303.294 60.1877C303.503 60.4563 303.764 60.6503 304.085 60.7697C304.264 60.822 304.465 60.8667 304.697 60.9041C304.924 60.9339 305.178 60.9488 305.458 60.9488H311.159C311.435 60.9488 311.689 60.9339 311.92 60.9041C312.148 60.8667 312.353 60.822 312.532 60.7697C312.849 60.6503 313.114 60.4563 313.323 60.1877C313.412 60.0497 313.495 59.8818 313.577 59.6803C313.655 59.4713 313.711 59.2475 313.741 59.0087C313.778 58.7624 313.808 58.4677 313.83 58.1282C313.86 57.7812 313.875 57.4118 313.875 57.0238V44.0099C313.875 43.6145 313.965 43.3645 314.144 43.2637C314.33 43.1667 314.487 43.1145 314.606 43.1145H317.039Z" fill="white"/>
<path d="M341.571 49.8453C341.571 51.5168 341.127 52.7928 340.243 53.6659C341.217 54.5538 341.706 55.8672 341.706 57.6058V59.3669C341.706 59.7773 341.683 60.169 341.646 60.5459C341.616 60.9264 341.564 61.2846 341.497 61.6204C341.426 61.9487 341.333 62.2584 341.213 62.5457C341.101 62.8367 340.959 63.1054 340.78 63.3516C340.482 63.8292 340.038 64.2097 339.452 64.4858C338.922 64.7545 338.266 64.8888 337.482 64.8888H325.603C325.203 64.8888 324.819 64.7918 324.453 64.5903C324.095 64.3814 323.812 64.1053 323.603 63.7546C323.461 63.5083 323.364 63.2322 323.304 62.9337L323.334 44.9054C323.371 44.8084 323.412 44.7039 323.453 44.592C323.502 44.4726 323.55 44.3607 323.603 44.2487C324.021 43.5622 324.625 43.1966 325.423 43.1444V43.1145H337.079C338.698 43.1145 339.855 43.5622 340.542 44.4577C341.228 45.3233 341.571 46.6291 341.571 48.3678V49.8453ZM327.184 60.8145C327.184 60.8742 327.188 60.9152 327.199 60.9339C327.207 60.9451 327.214 60.9488 327.214 60.9488H336.393C336.919 60.9488 337.292 60.8369 337.512 60.6056C337.721 60.3668 337.825 59.9452 337.825 59.337V57.5461C337.825 56.9902 337.71 56.5686 337.482 56.2776C337.232 56.0015 336.773 55.8597 336.109 55.8597H330.99C330.759 55.8597 330.557 55.7814 330.378 55.6209C330.207 55.453 330.125 55.2441 330.125 54.9941V52.8301C330.125 52.5839 330.207 52.3749 330.378 52.2033C330.557 52.0354 330.759 51.9496 330.99 51.9496H336.109C336.796 51.9496 337.243 51.8302 337.452 51.5914C337.68 51.3452 337.796 50.9571 337.796 50.4273V48.6066C337.796 48.032 337.691 47.629 337.482 47.3977C337.273 47.1515 336.908 47.0246 336.393 47.0246H327.244C327.203 47.0246 327.184 47.0769 327.184 47.1739V60.8145Z" fill="white"/>
<mask id="mask0_61_623" style="mask-type:luminance" maskUnits="userSpaceOnUse" x="0" y="0" width="89" height="89">
<path d="M0 0H88.9963V89H0V0Z" fill="white"/>
</mask>
<g mask="url(#mask0_61_623)">
<mask id="mask1_61_623" style="mask-type:luminance" maskUnits="userSpaceOnUse" x="0" y="0" width="89" height="89">
<path d="M44.4963 0C19.92 0 0 19.9237 0 44.5C0 69.0763 19.92 89 44.4963 89C69.0726 89 88.9963 69.0763 88.9963 44.5C88.9963 19.9237 69.0726 0 44.4963 0Z" fill="white"/>
</mask>
<g mask="url(#mask1_61_623)">
<path d="M0 0H88.9963V89H0V0Z" fill="white"/>
</g>
</g>
<mask id="mask2_61_623" style="mask-type:luminance" maskUnits="userSpaceOnUse" x="2" y="2" width="85" height="85">
<path d="M2.07861 2.07812H86.9185V86.9218H2.07861V2.07812Z" fill="white"/>
</mask>
<g mask="url(#mask2_61_623)">
<mask id="mask3_61_623" style="mask-type:luminance" maskUnits="userSpaceOnUse" x="2" y="2" width="85" height="85">
<path d="M44.4967 2.07812C21.0696 2.07812 2.07861 21.0728 2.07861 44.4999C2.07861 67.9271 21.0696 86.9218 44.4967 86.9218C67.9276 86.9218 86.9185 67.9271 86.9185 44.4999C86.9185 21.0728 67.9276 2.07812 44.4967 2.07812Z" fill="white"/>
</mask>
<g mask="url(#mask3_61_623)">
<path d="M2.07861 2.07812H86.9185V86.9218H2.07861V2.07812Z" fill="#111B1E"/>
</g>
</g>
<mask id="mask4_61_623" style="mask-type:luminance" maskUnits="userSpaceOnUse" x="4" y="4" width="81" height="81">
<path d="M4.02588 4.02942H84.9669V84.9704H4.02588V4.02942Z" fill="white"/>
</mask>
<g mask="url(#mask4_61_623)">
<mask id="mask5_61_623" style="mask-type:luminance" maskUnits="userSpaceOnUse" x="4" y="4" width="81" height="81">
<path d="M44.4964 4.02942C22.1475 4.02942 4.02588 22.1473 4.02588 44.4999C4.02588 66.8525 22.1475 84.9704 44.4964 84.9704C66.849 84.9704 84.9669 66.8525 84.9669 44.4999C84.9669 22.1473 66.849 4.02942 44.4964 4.02942Z" fill="white"/>
</mask>
<g mask="url(#mask5_61_623)">
<path d="M4.02588 4.02942H84.9669V84.9704H4.02588V4.02942Z" fill="white"/>
</g>
</g>
<mask id="mask6_61_623" style="mask-type:luminance" maskUnits="userSpaceOnUse" x="17" y="17" width="55" height="55">
<path d="M17.1255 17.1292H71.8672V71.8708H17.1255V17.1292Z" fill="white"/>
</mask>
<g mask="url(#mask6_61_623)">
<mask id="mask7_61_623" style="mask-type:luminance" maskUnits="userSpaceOnUse" x="17" y="17" width="55" height="55">
<path d="M44.4963 17.1292C29.3819 17.1292 17.1255 29.3819 17.1255 44.5C17.1255 59.6181 29.3819 71.8708 44.4963 71.8708C59.6145 71.8708 71.8672 59.6181 71.8672 44.5C71.8672 29.3819 59.6145 17.1292 44.4963 17.1292Z" fill="white"/>
</mask>
<g mask="url(#mask7_61_623)">
<path d="M17.1255 17.1292H71.8672V71.8708H17.1255V17.1292Z" fill="#111B1E"/>
</g>
</g>
<mask id="mask8_61_623" style="mask-type:luminance" maskUnits="userSpaceOnUse" x="18" y="18" width="53" height="53">
<path d="M18.9727 18.9723H70.0243V70.0277H18.9727V18.9723Z" fill="white"/>
</mask>
<g mask="url(#mask8_61_623)">
<mask id="mask9_61_623" style="mask-type:luminance" maskUnits="userSpaceOnUse" x="18" y="18" width="53" height="53">
<path d="M44.4966 18.9723C30.4008 18.9723 18.9727 30.4004 18.9727 44.5C18.9727 58.5996 30.4008 70.0277 44.4966 70.0277C58.5962 70.0277 70.0243 58.5996 70.0243 44.5C70.0243 30.4004 58.5962 18.9723 44.4966 18.9723Z" fill="white"/>
</mask>
<g mask="url(#mask9_61_623)">
<path d="M18.9727 18.9723H70.0243V70.0277H18.9727V18.9723Z" fill="white"/>
</g>
</g>
<mask id="mask10_61_623" style="mask-type:luminance" maskUnits="userSpaceOnUse" x="23" y="22" width="43" height="53">
<path d="M23.8975 22.0541H65.1253V74.393H23.8975V22.0541Z" fill="white"/>
</mask>
<g mask="url(#mask10_61_623)">
<path d="M65.088 22.0802V47.8915C65.088 60.0621 55.8537 69.718 44.4927 74.6989C33.1653 69.7255 23.8975 60.0882 23.8975 47.8915V22.0802H65.088Z" fill="white"/>
</g>
<mask id="mask11_61_623" style="mask-type:luminance" maskUnits="userSpaceOnUse" x="25" y="23" width="39" height="49">
<path d="M25.6772 23.7816H63.5584V71.6918H25.6772V23.7816Z" fill="white"/>
</mask>
<g mask="url(#mask11_61_623)">
<path d="M63.3156 23.8262V47.41C63.3156 58.5322 54.8798 67.3524 44.4963 71.908C34.1427 67.3636 25.677 58.5546 25.677 47.41V23.8262H63.3156Z" fill="#111B1E"/>
</g>
<mask id="mask12_61_623" style="mask-type:luminance" maskUnits="userSpaceOnUse" x="27" y="25" width="34" height="45">
<path d="M27.5088 25.8748H60.9351V69.3189H27.5088V25.8748Z" fill="white"/>
</mask>
<g mask="url(#mask12_61_623)">
<path d="M61.4761 25.9156V47.1974C61.4761 57.2339 53.8611 65.1959 44.4924 69.3038C35.1499 65.2034 27.5088 57.2563 27.5088 47.1974V25.9156H61.4761Z" fill="white"/>
</g>
<path d="M40.594 54.4693C40.4597 54.029 40.2843 53.6037 40.109 53.1821C39.9597 52.8313 39.7769 52.4956 39.4971 52.2269C39.2397 51.9769 38.9561 51.7531 38.6837 51.518C38.4934 51.3539 38.2845 51.2083 38.1241 51.0181C37.7584 50.5778 37.6092 50.0667 37.7622 49.5033C37.8741 49.0779 38.0047 48.6601 38.1539 48.2459C38.292 47.8691 38.6352 47.0706 38.6427 47.0333C38.624 47.0333 37.7659 48.1265 37.4674 48.7198C37.2137 49.2272 37.0309 49.7607 36.9749 50.3316C36.9376 50.727 36.9301 51.1188 37.0272 51.5031C37.0943 51.7755 37.2025 52.0366 37.2809 52.3053C37.3368 52.4844 37.3928 52.6635 37.4189 52.8463C37.4749 53.2791 37.4898 53.7156 37.4264 54.1521C37.3891 54.4245 37.2025 55.0737 37.1839 55.1334C37.195 55.1409 37.4338 54.9394 37.5159 54.8163C37.7099 54.5215 37.8741 54.2156 37.9524 53.8648C38.0308 53.5029 38.1054 53.141 38.0868 52.7679C38.0793 52.5851 38.0942 52.1971 38.1017 52.1747C38.1465 52.1971 38.1875 52.2157 38.2248 52.2307C38.5718 52.3687 38.8852 52.5664 39.1277 52.8463C39.3553 53.1074 39.568 53.3873 39.7471 53.6858C40.15 54.3536 40.4784 55.0625 40.7433 55.8012C40.788 55.9244 40.8477 56.0438 40.9037 56.1669C40.9149 56.1632 40.8813 55.7527 40.8552 55.6408C40.7731 55.2491 40.7097 54.8498 40.594 54.4693Z" fill="white"/>
<path d="M37.191 42.336C37.2096 42.3584 37.232 42.3733 37.2656 42.4069C37.2693 42.3621 37.2693 42.336 37.2731 42.3136C37.3216 41.9741 37.3626 41.6308 37.426 41.295C37.4745 41.0525 37.6275 40.948 37.8775 40.9443C37.9148 40.9443 37.9521 40.9443 37.9894 40.9443C38.4782 40.9555 38.9632 40.9667 39.4669 40.9779C39.3363 40.8286 39.2207 40.6607 39.0752 40.5339C38.7058 40.2168 38.3215 39.9183 37.9447 39.6123C37.8812 39.5601 37.8365 39.5601 37.7805 39.6161C37.4559 39.9332 37.1276 40.2466 36.8067 40.5712C36.6463 40.7354 36.6052 40.9443 36.6388 41.1682C36.7022 41.6159 36.9074 41.9927 37.191 42.336Z" fill="white"/>
<path d="M43.7578 39.1123C43.7466 39.0899 43.7429 39.0713 43.7354 39.0564C43.5376 38.6907 43.3474 38.3176 43.1384 37.9594C43.0265 37.7654 42.8922 37.5789 42.7392 37.4184C42.3922 37.0603 41.9557 36.8476 41.4893 36.6909C41.4632 36.6797 41.4371 36.6797 41.4147 36.6722C41.8848 37.1013 42.3139 37.5602 42.6646 38.105C42.4221 38.0229 42.1982 37.9445 41.9743 37.8774C41.2841 37.661 40.5864 37.5826 39.87 37.7319C39.6424 37.7804 39.4298 37.855 39.2134 37.993C40.87 37.8512 42.34 38.3587 43.7578 39.1123Z" fill="white"/>
<path d="M38.5679 42.8546C38.5343 42.8621 37.012 43.7613 36.3181 44.2948C35.945 44.5821 35.5942 44.8955 35.4151 45.3469C35.251 45.7611 34.96 46.6341 34.96 46.664C35.5383 45.9961 36.083 45.3208 36.68 44.6903C37.2807 44.0597 37.9261 43.474 38.5679 42.8546Z" fill="white"/>
<path d="M42.7618 43.3023C42.5715 43.1829 42.3999 43.0225 42.1536 43.0188C42.1051 43.0188 42.0529 43.0076 42.0044 42.9964C41.6462 42.9031 40.9784 42.53 40.9448 42.5114C40.9411 42.6606 40.9597 42.7874 41.0157 42.9068C41.1164 43.127 41.2619 43.3135 41.4709 43.4292C41.7694 43.5934 42.079 43.7389 42.385 43.8844C42.4521 43.9142 42.4894 43.9553 42.5156 44.0224C42.6312 44.3209 42.7543 44.6194 42.8775 44.9179C42.8849 44.9403 42.9036 44.9589 42.9297 45.0037C42.9297 44.9589 42.9334 44.944 42.9334 44.9291C42.9334 44.4963 42.926 44.0672 42.9372 43.6381C42.9409 43.4814 42.8999 43.3844 42.7618 43.3023Z" fill="#111B1E"/>
<mask id="mask13_61_623" style="mask-type:luminance" maskUnits="userSpaceOnUse" x="30" y="32" width="29" height="33">
<path d="M30.7998 32.3107H58.6557V64.6251H30.7998V32.3107Z" fill="white"/>
</mask>
<g mask="url(#mask13_61_623)">
<path d="M56.6934 44.694C56.3987 44.4291 56.1897 44.112 56.0554 43.7426C55.839 43.1643 55.6301 42.586 55.4099 42.0114C55.145 41.3062 54.8876 40.6011 54.6003 39.9071C54.3615 39.3363 54.0145 38.8326 53.5519 38.4222C53.2422 38.1498 52.9064 37.911 52.5818 37.6573C52.5221 37.6125 52.4624 37.5677 52.3915 37.5155C52.4288 37.4558 52.4624 37.3999 52.4997 37.3402C52.6527 37.0827 52.8206 36.8327 52.9549 36.5641C53.0258 36.4223 53.0594 36.2507 53.0706 36.0903C53.0967 35.7769 53.0519 35.4672 52.981 35.1612C52.9251 34.9113 52.8131 34.6911 52.6266 34.512C52.5482 34.4374 52.3841 34.2807 52.3766 34.2882C52.3766 34.4673 52.3878 34.6501 52.3729 34.8329C52.3542 35.0568 52.2982 35.2694 52.1639 35.4634C51.9587 35.7582 51.3506 36.0119 50.9252 35.7134C50.7499 35.5866 50.567 35.4746 50.388 35.3552C50.1492 35.1911 49.8843 35.1314 49.6044 35.1836C49.2873 35.2433 48.9702 35.3179 48.653 35.3851C48.6195 35.3926 48.5859 35.4 48.5448 35.4112C48.5821 35.2769 48.6195 35.1538 48.653 35.0269C48.7314 34.7247 48.7053 34.43 48.5896 34.1352C48.4068 33.68 47.7949 32.9114 47.7762 32.9002C47.7874 32.9711 47.7949 33.0308 47.8024 33.0905C47.8509 33.4487 47.8173 33.7919 47.6643 34.1203C47.4442 34.5829 46.9032 34.8702 46.392 34.7993C46.2988 34.7881 46.2055 34.7657 46.1159 34.7434C45.8361 34.6687 45.6757 34.4598 45.5302 34.2322C45.2951 33.874 45.06 33.5121 44.8138 33.1614C44.6608 32.9413 44.6049 32.6876 44.5265 32.445C44.5153 32.4115 44.5041 32.3779 44.4929 32.3443C44.4929 32.3406 44.4929 32.3406 44.4929 32.3406C44.4892 32.3406 44.4892 32.3406 44.4892 32.3406C44.4892 32.3406 44.4892 32.3406 44.4892 32.3443C44.478 32.3779 44.4668 32.4115 44.4556 32.445C44.3773 32.6876 44.3213 32.9413 44.1683 33.1614C43.9221 33.5121 43.687 33.874 43.452 34.2322C43.3027 34.4598 43.146 34.6687 42.8662 34.7434C42.7767 34.7657 42.6834 34.7881 42.5901 34.7993C42.079 34.8702 41.538 34.5829 41.3178 34.1203C41.1649 33.7919 41.1313 33.4487 41.1798 33.0905C41.1872 33.0308 41.1947 32.9711 41.2059 32.9002C41.1872 32.9114 40.5753 33.68 40.3925 34.1352C40.2769 34.43 40.2507 34.7247 40.3291 35.0269C40.3627 35.1538 40.4 35.2769 40.4336 35.4112C40.3963 35.4 40.3627 35.3926 40.3291 35.3851C40.012 35.3179 39.6948 35.2433 39.3777 35.1836C39.0941 35.1314 38.833 35.1911 38.5904 35.3552C38.4151 35.4746 38.2323 35.5866 38.0569 35.7134C37.6316 36.0119 37.0234 35.7582 36.8182 35.4634C36.6839 35.2694 36.6279 35.0568 36.6093 34.8329C36.5943 34.6501 36.6055 34.4673 36.6055 34.2882C36.5981 34.2807 36.4339 34.4374 36.3556 34.512C36.169 34.6911 36.0571 34.9113 36.0011 35.1612C35.9302 35.4672 35.8854 35.7769 35.9116 36.0903C35.9228 36.2507 35.9563 36.4223 36.0272 36.5641C36.1615 36.8327 36.3294 37.0827 36.4824 37.3402C36.5197 37.3999 36.5533 37.4558 36.5906 37.5155C36.5197 37.5677 36.46 37.6125 36.4003 37.6573C36.0757 37.911 35.7399 38.1498 35.4303 38.4222C34.9676 38.8326 34.6206 39.3363 34.3818 39.9071C34.0945 40.6011 33.8371 41.3062 33.5722 42.0114C33.3521 42.586 33.1431 43.1643 32.9267 43.7426C32.7924 44.112 32.5835 44.4291 32.2887 44.694C31.8597 45.0746 30.8523 45.7611 30.8 45.7984C30.8896 45.8171 31.5164 45.9066 31.7738 45.929C32.1619 45.97 32.5536 45.9999 32.9454 45.9253C33.2476 45.8693 33.8185 45.5484 33.8446 45.5372C33.811 45.6156 33.7699 45.679 33.7214 45.7387C33.52 46.0111 33.3185 46.2797 33.1693 46.5894C32.9603 47.0296 32.7775 47.4811 32.688 47.9624C32.5872 48.4847 32.5089 49.0071 32.5238 49.5444C32.535 49.8988 32.6208 50.7532 32.632 50.7569C33.02 49.6526 33.8147 48.8541 34.643 48.0781C34.6467 48.1116 34.1281 49.2048 33.8781 49.7272C33.6394 50.2271 33.4416 50.7457 33.3148 51.283C33.2327 51.63 33.1842 51.9807 33.2625 52.3389C33.3483 52.7344 33.4677 53.1187 33.6804 53.4694C33.9901 53.9806 34.296 54.4992 34.6244 55.0029C35.0683 55.6819 35.4676 56.3796 35.5758 57.2004C35.628 57.6034 35.5982 57.9877 35.434 58.3645C35.2959 58.6891 35.087 58.9727 34.8519 59.2338C34.8333 59.2525 34.8184 59.2749 34.8034 59.2973C34.8072 59.3047 36.807 58.6966 37.4935 57.8123C37.598 58.5846 37.8256 59.2935 38.2248 59.939C38.4263 60.2599 38.6203 60.5845 38.9337 60.8121C39.2322 61.0285 39.5344 61.2411 39.8515 61.4352C40.2843 61.7038 40.7246 61.9612 41.1089 62.297C41.1835 62.3604 41.2656 62.4239 41.3589 62.4985C41.3439 62.4612 40.7917 61.0732 40.5157 60.3942C40.3925 60.0882 40.3067 59.7748 40.2619 59.4279C40.2881 59.454 40.7059 59.9092 40.8999 60.1256C41.2992 60.5621 41.6872 61.0098 42.0976 61.4352C42.4222 61.7709 42.6871 62.1478 42.8961 62.5619C43.049 62.8604 43.1684 63.1813 43.3363 63.476C43.5303 63.8193 43.7542 64.1513 43.9855 64.4759C44.1348 64.6886 44.3213 64.8826 44.4892 65.0841V65.0878C44.4892 65.0878 44.4892 65.0878 44.4929 65.0841C44.4929 65.0878 44.4929 65.0878 44.4929 65.0878V65.0841C44.6608 64.8826 44.8474 64.6886 44.9966 64.4759C45.2279 64.1513 45.4518 63.8193 45.6458 63.476C45.8137 63.1813 45.9331 62.8604 46.0861 62.5619C46.295 62.1478 46.5599 61.7709 46.8845 61.4352C47.2949 61.0098 47.683 60.5621 48.0822 60.1256C48.2762 59.9092 48.6941 59.454 48.7202 59.4279C48.6754 59.7748 48.5896 60.0882 48.4665 60.3942C48.1904 61.0732 47.6345 62.4612 47.6233 62.4985C47.7165 62.4239 47.7986 62.3604 47.8732 62.297C48.2575 61.9612 48.6978 61.7038 49.1306 61.4352C49.4477 61.2411 49.75 61.0285 50.0484 60.8121C50.3618 60.5845 50.5559 60.2599 50.7536 59.939C51.1566 59.2935 51.3841 58.5846 51.4886 57.8123C52.1751 58.6966 54.175 59.3047 54.1787 59.2973C54.1638 59.2749 54.1488 59.2525 54.1302 59.2338C53.8951 58.9727 53.6862 58.6891 53.5444 58.3645C53.384 57.9877 53.3541 57.6034 53.4064 57.2004C53.5146 56.3796 53.9138 55.6819 54.3578 55.0029C54.6861 54.4992 54.9921 53.9806 55.3017 53.4694C55.5107 53.1187 55.6338 52.7344 55.7196 52.3389C55.798 51.9807 55.7495 51.63 55.6674 51.283C55.5368 50.7457 55.3428 50.2271 55.104 49.7272C54.854 49.2048 54.3354 48.1116 54.3391 48.0781C55.1674 48.8541 55.9584 49.6526 56.3501 50.7569C56.3651 50.7532 56.4472 49.8988 56.4583 49.5444C56.4733 49.0071 56.3949 48.4847 56.2942 47.9624C56.2046 47.4811 56.0218 47.0296 55.8129 46.5894C55.6636 46.2797 55.4622 46.0111 55.257 45.7387C55.2122 45.679 55.1711 45.6156 55.1376 45.5372C55.1637 45.5484 55.7345 45.8693 56.0367 45.9253C56.4285 45.9999 56.8203 45.97 57.2083 45.929C57.4657 45.9066 58.0925 45.8171 58.1821 45.7984C58.1299 45.7611 57.1225 45.0746 56.6934 44.694ZM49.9067 40.5339C50.276 40.2168 50.6603 39.9183 51.0372 39.6124C51.1006 39.5601 51.1454 39.5601 51.1976 39.6161C51.5259 39.9332 51.8543 40.2466 52.1751 40.5712C52.3356 40.7354 52.3766 40.9443 52.343 41.1682C52.2759 41.6159 52.0744 41.9928 51.7908 42.336C51.7722 42.3584 51.7498 42.3733 51.7162 42.4069C51.7125 42.3621 51.7125 42.336 51.7087 42.3136C51.6602 41.9741 51.6192 41.6308 51.552 41.295C51.5073 41.0525 51.3543 40.9481 51.1043 40.9443C51.067 40.9443 51.0297 40.9443 50.9887 40.9443C50.5036 40.9555 50.0186 40.9667 49.5149 40.9779C49.6455 40.8287 49.7611 40.6608 49.9067 40.5339ZM45.2466 39.0564C45.4443 38.6908 45.6346 38.3177 45.8436 37.9595C45.9555 37.7655 46.0898 37.5789 46.2428 37.4185C46.5898 37.0603 47.0263 36.8477 47.4927 36.691C47.5151 36.6798 47.5449 36.6798 47.5673 36.6723C47.0972 37.1014 46.6681 37.5603 46.3174 38.105C46.5599 38.0229 46.7838 37.9446 47.0076 37.8774C47.6979 37.661 48.3956 37.5827 49.1119 37.7319C49.3395 37.7804 49.5522 37.855 49.7686 37.9931C48.112 37.8513 46.642 38.3587 45.2242 39.1124C45.2354 39.09 45.2391 39.0714 45.2466 39.0564ZM39.8702 37.7319C40.5865 37.5827 41.2842 37.661 41.9745 37.8774C42.1983 37.9446 42.4222 38.0229 42.6647 38.105C42.314 37.5603 41.8849 37.1014 41.4148 36.6723C41.4372 36.6798 41.4633 36.6798 41.4895 36.691C41.9558 36.8477 42.3924 37.0603 42.7393 37.4185C42.8923 37.5789 43.0266 37.7655 43.1386 37.9595C43.3475 38.3177 43.5378 38.6908 43.7355 39.0564C43.743 39.0714 43.7467 39.09 43.7579 39.1124C42.3401 38.3587 40.8701 37.8513 39.2135 37.9931C39.4299 37.855 39.6426 37.7804 39.8702 37.7319ZM36.807 40.5712C37.1279 40.2466 37.4562 39.9332 37.7808 39.6161C37.8368 39.5601 37.8815 39.5601 37.945 39.6124C38.3218 39.9183 38.7061 40.2168 39.0755 40.5339C39.221 40.6608 39.3366 40.8287 39.4672 40.9779C38.9635 40.9667 38.4785 40.9555 37.9897 40.9443C37.9524 40.9443 37.9151 40.9443 37.8778 40.9443C37.6278 40.9481 37.4749 41.0525 37.4264 41.295C37.3629 41.6308 37.3219 41.9741 37.2734 42.3136C37.2697 42.336 37.2697 42.3621 37.2659 42.4069C37.2323 42.3733 37.21 42.3584 37.1913 42.336C36.9077 41.9928 36.7025 41.6159 36.6391 41.1682C36.6055 40.9443 36.6466 40.7354 36.807 40.5712ZM34.9601 46.664C34.9601 46.6342 35.2512 45.7611 35.4153 45.3469C35.5944 44.8955 35.9451 44.5821 36.3182 44.2948C37.0122 43.7613 38.5345 42.8621 38.5681 42.8546C37.9263 43.474 37.2808 44.0597 36.6802 44.6903C36.0832 45.3208 35.5385 45.9961 34.9601 46.664ZM40.9037 56.1669C40.8477 56.0438 40.788 55.9244 40.7432 55.8013C40.4783 55.0626 40.15 54.3537 39.7471 53.6858C39.568 53.3873 39.3553 53.1075 39.1277 52.8463C38.8852 52.5665 38.5718 52.3687 38.2248 52.2307C38.1875 52.2158 38.1464 52.1971 38.1017 52.1747C38.0942 52.1971 38.0793 52.5851 38.0868 52.768C38.1054 53.1411 38.0308 53.503 37.9524 53.8649C37.8741 54.2156 37.7099 54.5216 37.5159 54.8163C37.4338 54.9394 37.195 55.1409 37.1838 55.1334C37.2025 55.0737 37.389 54.4245 37.4264 54.1522C37.4898 53.7156 37.4749 53.2791 37.4189 52.8463C37.3928 52.6635 37.3368 52.4844 37.2808 52.3053C37.2025 52.0367 37.0943 51.7755 37.0271 51.5031C36.9301 51.1189 36.9376 50.7271 36.9749 50.3316C37.0309 49.7608 37.2137 49.2272 37.4674 48.7198C37.7659 48.1266 38.624 47.0334 38.6427 47.0334C38.6352 47.0707 38.292 47.8691 38.1539 48.246C38.0047 48.6601 37.8741 49.078 37.7622 49.5033C37.6092 50.0667 37.7584 50.5779 38.1241 51.0181C38.2845 51.2084 38.4934 51.3539 38.6837 51.5181C38.9561 51.7531 39.2396 51.977 39.4971 52.227C39.7769 52.4956 39.9597 52.8314 40.109 53.1821C40.2843 53.6037 40.4597 54.0291 40.594 54.4693C40.7097 54.8499 40.7731 55.2491 40.8552 55.6409C40.8813 55.7528 40.9149 56.1632 40.9037 56.1669ZM45.8622 50.9323C45.8771 51.1077 45.8958 51.2756 45.9406 51.4323C46.0189 51.6972 46.101 51.9621 46.0861 52.2419C46.0674 52.5553 45.9107 52.7941 45.6682 53.0105C45.657 52.7568 45.7092 52.5143 45.6122 52.2829C45.519 52.0665 45.4108 51.8539 45.2317 51.6785C45.2876 52.4732 44.963 53.1187 44.4892 53.7082C44.0191 53.115 43.6945 52.4695 43.7505 51.6785C43.5714 51.8539 43.4632 52.0665 43.3699 52.2829C43.2729 52.5143 43.3251 52.7568 43.3139 53.0105C43.0714 52.7941 42.9147 52.5553 42.8961 52.2419C42.8811 51.9621 42.9632 51.6972 43.0416 51.4323C43.0863 51.2756 43.105 51.1077 43.1199 50.9323C42.8364 51.3278 42.4036 51.4546 41.9633 51.6188C42.0043 51.533 42.0305 51.4696 42.0603 51.4099C42.1909 51.1375 42.3215 50.8651 42.4521 50.589C42.5304 50.4174 42.5491 50.2309 42.5416 50.0406C42.5379 49.8727 42.5379 49.7085 42.5341 49.5406C42.5341 49.4772 42.5565 49.4623 42.6162 49.4548C42.758 49.4324 42.9072 49.4212 43.0341 49.369C43.1498 49.3168 43.2542 49.2235 43.3438 49.1302C43.4781 48.9922 43.5863 48.8317 43.7169 48.6862C43.7467 48.6489 43.8102 48.6228 43.8587 48.6191C44.0676 48.6041 44.2803 48.6041 44.4892 48.6004C44.7019 48.6041 44.9145 48.6041 45.1235 48.6191C45.172 48.6228 45.2354 48.6489 45.2653 48.6862C45.3921 48.8317 45.504 48.9922 45.6384 49.1302C45.7279 49.2235 45.8324 49.3168 45.948 49.369C46.0749 49.4212 46.2241 49.4324 46.3659 49.4548C46.4256 49.4623 46.448 49.4772 46.448 49.5406C46.4405 49.7085 46.4443 49.8727 46.4405 50.0406C46.4331 50.2309 46.4517 50.4174 46.5301 50.589C46.6569 50.8651 46.7912 51.1375 46.9218 51.4099C46.9517 51.4696 46.9778 51.533 47.0188 51.6188C46.5786 51.4546 46.1458 51.3278 45.8622 50.9323ZM47.4703 47.7758C47.3882 47.8505 47.3173 47.9139 47.2539 47.9811C47.2091 48.0221 47.1793 48.0184 47.1308 47.9848C46.9106 47.8467 46.6905 47.7087 46.4666 47.5781C46.3286 47.4998 46.1831 47.4326 46.0413 47.3617C46.0376 47.3654 46.4555 47.9922 46.6756 48.3168C46.504 48.3915 46.3473 48.4661 46.1906 48.5332C46.1644 48.5444 46.1271 48.537 46.0973 48.5295C45.7354 48.4512 45.4033 48.2945 45.0787 48.1266C44.9705 48.0743 44.8735 48.0034 44.7765 47.9326C44.7466 47.9102 44.7205 47.8654 44.7205 47.8318C44.7168 47.5706 44.7168 47.3132 44.7205 47.052C44.7205 47.0222 44.7504 46.9737 44.7765 46.9625C44.8996 46.8991 45.0265 46.8543 45.1459 46.7909C45.3063 46.7125 45.4891 46.6528 45.616 46.5334C45.8324 46.3282 46.2316 45.8245 46.2502 45.7909C46.1085 45.8245 45.9816 45.8469 45.866 45.8879C45.422 46.0558 44.9668 46.1417 44.4892 46.1118C44.0154 46.1417 43.5602 46.0558 43.1162 45.8879C43.0005 45.8469 42.8737 45.8245 42.7319 45.7909C42.7505 45.8245 43.1498 46.3282 43.3662 46.5334C43.493 46.6528 43.6758 46.7125 43.8363 46.7909C43.9557 46.8543 44.0825 46.8991 44.2056 46.9625C44.2318 46.9737 44.2616 47.0222 44.2616 47.052C44.2653 47.3132 44.2653 47.5706 44.2616 47.8318C44.2616 47.8654 44.2355 47.9102 44.2056 47.9326C44.1086 48.0034 44.0116 48.0743 43.9034 48.1266C43.5788 48.2945 43.2468 48.4512 42.8849 48.5295C42.855 48.537 42.8177 48.5444 42.7916 48.5332C42.6349 48.4661 42.4782 48.3915 42.3065 48.3168C42.5267 47.9922 42.9446 47.3654 42.9408 47.3617C42.799 47.4326 42.6535 47.4998 42.5155 47.5781C42.2916 47.7087 42.0715 47.8467 41.8514 47.9848C41.8029 48.0184 41.773 48.0221 41.7282 47.9811C41.6648 47.9139 41.5939 47.8505 41.5118 47.7758C41.8849 47.5109 42.2431 47.2535 42.5976 46.9998C42.5938 46.9923 41.7469 47.1378 41.3216 47.2237C41.3253 47.2125 41.3216 47.1975 41.329 47.1901C41.482 46.9364 41.5753 46.6565 41.6499 46.373C41.7208 46.1043 41.9111 45.929 42.0976 45.7499C42.1872 45.6604 42.2879 45.5745 42.3998 45.4701C42.3289 45.4626 42.2804 45.4551 42.2282 45.4477C41.773 45.388 41.3104 45.3507 40.8589 45.2686C40.5791 45.2164 40.344 45.0447 40.1388 44.847C40.053 44.7612 40.0232 44.6455 40.0418 44.5299C40.0717 44.3545 40.1015 44.1791 40.15 44.0112C40.2022 43.8433 40.1985 43.6754 40.1911 43.5038C40.1724 43.168 40.1575 42.836 40.1425 42.5002C40.1351 42.3062 40.1948 42.1383 40.3627 42.0226C40.6612 41.8137 40.9559 41.6085 41.2619 41.4107C41.3551 41.351 41.3924 41.3025 41.3701 41.1831C41.3216 40.9033 41.3141 40.616 41.3738 40.3362C41.4074 40.1907 41.4895 40.0937 41.635 40.0862C41.9894 40.0713 42.3439 40.0601 42.6946 40.0601C42.8699 40.0638 43.0528 40.0862 43.2206 40.1347C43.743 40.2802 44.2019 40.5265 44.4892 41.0152C44.4892 41.019 44.4892 41.019 44.4892 41.019C44.7765 40.5302 45.2354 40.2802 45.7615 40.1347C45.9294 40.0862 46.1122 40.0638 46.2876 40.0601C46.6383 40.0601 46.9927 40.0713 47.3472 40.0862C47.4927 40.0937 47.5748 40.1907 47.6083 40.3362C47.668 40.616 47.6606 40.9033 47.6121 41.1831C47.5897 41.3025 47.627 41.351 47.7203 41.4107C48.0225 41.6085 48.321 41.8137 48.6195 42.0226C48.7873 42.1383 48.847 42.3062 48.8396 42.5002C48.8247 42.836 48.8097 43.168 48.7911 43.5038C48.7836 43.6754 48.7799 43.8433 48.8321 44.0112C48.8806 44.1791 48.9105 44.3545 48.9403 44.5299C48.959 44.6455 48.9291 44.7612 48.8433 44.847C48.6381 45.0447 48.4031 45.2164 48.1232 45.2686C47.6718 45.3507 47.2091 45.388 46.7539 45.4477C46.7017 45.4551 46.6532 45.4626 46.5823 45.4701C46.6942 45.5745 46.7912 45.6604 46.8845 45.7499C47.0711 45.929 47.2614 46.1043 47.3322 46.373C47.4069 46.6565 47.5001 46.9364 47.6531 47.1901C47.6568 47.1975 47.6568 47.2125 47.6606 47.2237C47.2352 47.1378 46.3883 46.9923 46.3846 46.9998C46.739 47.2535 47.0972 47.5109 47.4703 47.7758ZM51.955 51.5031C51.8878 51.7755 51.7796 52.0367 51.7013 52.3053C51.6453 52.4844 51.5894 52.6635 51.5632 52.8463C51.5073 53.2791 51.4923 53.7156 51.5558 54.1522C51.5931 54.4245 51.7759 55.0737 51.7983 55.1334C51.7834 55.1409 51.5483 54.9394 51.4662 54.8163C51.2722 54.5216 51.108 54.2156 51.0297 53.8649C50.9513 53.503 50.8767 53.1411 50.8954 52.768C50.9028 52.5851 50.8879 52.1971 50.8805 52.1747C50.8357 52.1971 50.7946 52.2158 50.7573 52.2307C50.4103 52.3687 50.0969 52.5665 49.8544 52.8463C49.6268 53.1075 49.4142 53.3873 49.2351 53.6858C48.8321 54.3537 48.5038 55.0626 48.2389 55.8013C48.1941 55.9244 48.1344 56.0438 48.0785 56.1669C48.0673 56.1632 48.1008 55.7528 48.127 55.6409C48.209 55.2491 48.2725 54.8499 48.3881 54.4693C48.5224 54.0291 48.6978 53.6037 48.8732 53.1821C49.0224 52.8314 49.2052 52.4956 49.4851 52.227C49.7425 51.977 50.0261 51.7531 50.2984 51.5181C50.4887 51.3539 50.6976 51.2084 50.8543 51.0181C51.2237 50.5779 51.373 50.0667 51.22 49.5033C51.108 49.078 50.9737 48.6601 50.8282 48.246C50.6902 47.8691 50.3469 47.0707 50.3395 47.0334C50.3581 47.0334 51.2162 48.1266 51.5147 48.7198C51.7684 49.2272 51.9513 49.7608 52.0072 50.3316C52.0445 50.7271 52.052 51.1189 51.955 51.5031ZM52.302 44.6903C51.7013 44.0597 51.0558 43.474 50.4141 42.8546C50.4477 42.8621 51.9699 43.7613 52.6639 44.2948C53.037 44.5821 53.3877 44.8955 53.5668 45.3469C53.731 45.7611 54.022 46.6342 54.022 46.664C53.4437 45.9961 52.8989 45.3208 52.302 44.6903Z" fill="#111B1E"/>
</g>
<path d="M47.6607 47.2236C47.657 47.2124 47.657 47.1975 47.6533 47.1901C47.5003 46.9363 47.407 46.6565 47.3324 46.373C47.2615 46.1043 47.0712 45.929 46.8847 45.7499C46.7914 45.6603 46.6944 45.5745 46.5824 45.4701C46.6533 45.4626 46.7018 45.4551 46.7541 45.4477C47.2093 45.388 47.6719 45.3507 48.1234 45.2686C48.4032 45.2163 48.6382 45.0447 48.8435 44.847C48.9293 44.7612 48.9591 44.6455 48.9405 44.5298C48.9106 44.3545 48.8808 44.1791 48.8323 44.0112C48.78 43.8433 48.7838 43.6754 48.7912 43.5038C48.8099 43.168 48.8248 42.8359 48.8397 42.5002C48.8472 42.3061 48.7875 42.1382 48.6196 42.0226C48.3211 41.8136 48.0226 41.6084 47.7204 41.4107C47.6271 41.351 47.5898 41.3025 47.6122 41.1831C47.6607 40.9033 47.6682 40.616 47.6085 40.3362C47.5749 40.1906 47.4928 40.0936 47.3473 40.0862C46.9929 40.0713 46.6384 40.0601 46.2877 40.0601C46.1123 40.0638 45.9295 40.0862 45.7616 40.1347C45.2355 40.2802 44.7766 40.5302 44.4893 41.0189C44.4893 41.0189 44.4893 41.0189 44.4893 41.0152C44.202 40.5264 43.7431 40.2802 43.2208 40.1347C43.0529 40.0862 42.8701 40.0638 42.6947 40.0601C42.344 40.0601 41.9895 40.0713 41.6351 40.0862C41.4896 40.0936 41.4075 40.1906 41.3739 40.3362C41.3142 40.616 41.3217 40.9033 41.3702 41.1831C41.3926 41.3025 41.3553 41.351 41.262 41.4107C40.9561 41.6084 40.6613 41.8136 40.3628 42.0226C40.1949 42.1382 40.1352 42.3061 40.1427 42.5002C40.1576 42.8359 40.1725 43.168 40.1912 43.5038C40.1987 43.6754 40.2024 43.8433 40.1502 44.0112C40.1016 44.1791 40.0718 44.3545 40.042 44.5298C40.0233 44.6455 40.0531 44.7612 40.139 44.847C40.3442 45.0447 40.5792 45.2163 40.859 45.2686C41.3105 45.3507 41.7731 45.388 42.2283 45.4477C42.2806 45.4551 42.3291 45.4626 42.4 45.4701C42.288 45.5745 42.1873 45.6603 42.0977 45.7499C41.9112 45.929 41.7209 46.1043 41.65 46.373C41.5754 46.6565 41.4821 46.9363 41.3292 47.1901C41.3217 47.1975 41.3254 47.2124 41.3217 47.2236C41.747 47.1378 42.594 46.9923 42.5977 46.9998C42.2433 47.2535 41.8851 47.5109 41.512 47.7758C41.5941 47.8504 41.6649 47.9139 41.7284 47.981C41.7731 48.0221 41.803 48.0183 41.8515 47.9848C42.0716 47.8467 42.2918 47.7087 42.5156 47.5781C42.6537 47.4997 42.7992 47.4326 42.941 47.3617C42.9447 47.3654 42.5268 47.9922 42.3067 48.3168C42.4783 48.3914 42.635 48.4661 42.7917 48.5332C42.8178 48.5444 42.8551 48.537 42.885 48.5295C43.2469 48.4511 43.579 48.2944 43.9036 48.1265C44.0118 48.0743 44.1088 48.0034 44.2058 47.9325C44.2356 47.9101 44.2617 47.8654 44.2617 47.8318C44.2655 47.5706 44.2655 47.3132 44.2617 47.052C44.2617 47.0222 44.2319 46.9737 44.2058 46.9625C44.0827 46.899 43.9558 46.8543 43.8364 46.7908C43.676 46.7125 43.4932 46.6528 43.3663 46.5334C43.1499 46.3282 42.7507 45.8245 42.732 45.7909C42.8738 45.8245 43.0007 45.8469 43.1163 45.8879C43.5603 46.0558 44.0155 46.1416 44.4893 46.1118C44.9669 46.1416 45.4221 46.0558 45.8661 45.8879C45.9818 45.8469 46.1086 45.8245 46.2504 45.7909C46.2317 45.8245 45.8325 46.3282 45.6161 46.5334C45.4893 46.6528 45.3064 46.7125 45.146 46.7908C45.0266 46.8543 44.8998 46.899 44.7766 46.9625C44.7505 46.9737 44.7207 47.0222 44.7207 47.052C44.7169 47.3132 44.7169 47.5706 44.7207 47.8318C44.7207 47.8654 44.7468 47.9101 44.7766 47.9325C44.8736 48.0034 44.9706 48.0743 45.0788 48.1265C45.4034 48.2944 45.7355 48.4511 46.0974 48.5295C46.1273 48.537 46.1646 48.5444 46.1907 48.5332C46.3474 48.4661 46.5041 48.3914 46.6757 48.3168C46.4556 47.9922 46.0377 47.3654 46.0414 47.3617C46.1832 47.4326 46.3287 47.4997 46.4668 47.5781C46.6906 47.7087 46.9108 47.8467 47.1309 47.9848C47.1794 48.0183 47.2093 48.0221 47.254 47.981C47.3175 47.9139 47.3884 47.8504 47.4704 47.7758C47.0973 47.5109 46.7392 47.2535 46.3847 46.9998C46.3884 46.9923 47.2354 47.1378 47.6607 47.2236ZM42.9335 44.9291C42.9335 44.944 42.9298 44.9589 42.9298 45.0037C42.9037 44.9589 42.885 44.9402 42.8775 44.9179C42.7544 44.6194 42.6313 44.3209 42.5156 44.0224C42.4895 43.9553 42.4522 43.9142 42.385 43.8844C42.0791 43.7389 41.7694 43.5933 41.4709 43.4292C41.262 43.3135 41.1165 43.127 41.0157 42.9068C40.9598 42.7874 40.9411 42.6606 40.9449 42.5113C40.9784 42.53 41.6463 42.9031 42.0045 42.9964C42.053 43.0076 42.1052 43.0188 42.1537 43.0188C42.4 43.0225 42.5716 43.1829 42.7619 43.3023C42.8999 43.3844 42.941 43.4814 42.9372 43.6381C42.926 44.0672 42.9335 44.4963 42.9335 44.9291ZM44.4893 42.9777C44.0864 42.9628 43.7245 43.0859 43.3588 43.2986C43.3812 43.2389 43.3924 43.1979 43.4111 43.1568C43.5155 42.933 43.6461 42.7203 43.8588 42.5785C44.1983 42.3546 44.3886 42.0412 44.4707 41.6495C44.4744 41.6308 44.4819 41.6122 44.4893 41.5935V41.5898C44.4968 41.6084 44.508 41.6271 44.5117 41.6495C44.5938 42.0412 44.7841 42.3546 45.1236 42.5785C45.3363 42.7203 45.4631 42.933 45.5713 43.1568C45.59 43.1979 45.6012 43.2389 45.6236 43.2986C45.2579 43.0859 44.8923 42.9628 44.4893 42.9777ZM46.1049 44.9179C46.0974 44.9402 46.0788 44.9589 46.0526 45.0037C46.0526 44.9589 46.0489 44.944 46.0489 44.9291C46.0489 44.4963 46.0564 44.0672 46.0452 43.6381C46.0377 43.4814 46.0825 43.3844 46.2205 43.3023C46.4108 43.1829 46.5824 43.0225 46.8287 43.0188C46.8772 43.0188 46.9294 43.0076 46.9779 42.9964C47.3361 42.9031 48.004 42.53 48.0375 42.5113C48.0413 42.6606 48.0226 42.7874 47.9667 42.9068C47.8659 43.127 47.7204 43.3135 47.5115 43.4292C47.213 43.5933 46.9033 43.7389 46.5974 43.8844C46.5302 43.9142 46.4929 43.9553 46.4668 44.0224C46.3511 44.3209 46.228 44.6194 46.1049 44.9179Z" fill="white"/>
<path d="M46.5297 50.5891C46.4513 50.4175 46.4327 50.2309 46.4401 50.0406C46.4439 49.8727 46.4401 49.7086 46.4476 49.5407C46.4476 49.4773 46.4252 49.4623 46.3655 49.4549C46.2237 49.4325 46.0745 49.4213 45.9476 49.3691C45.832 49.3168 45.7275 49.2235 45.638 49.1303C45.5036 48.9922 45.3917 48.8318 45.2649 48.6863C45.235 48.649 45.1716 48.6228 45.1231 48.6191C44.9141 48.6042 44.7015 48.6042 44.4888 48.6005C44.2799 48.6042 44.0672 48.6042 43.8583 48.6191C43.8098 48.6228 43.7463 48.649 43.7165 48.6863C43.5859 48.8318 43.4777 48.9922 43.3434 49.1303C43.2538 49.2235 43.1494 49.3168 43.0337 49.3691C42.9068 49.4213 42.7576 49.4325 42.6158 49.4549C42.5561 49.4623 42.5337 49.4773 42.5337 49.5407C42.5375 49.7086 42.5375 49.8727 42.5412 50.0406C42.5487 50.2309 42.53 50.4175 42.4517 50.5891C42.3211 50.8652 42.1905 51.1376 42.0599 51.4099C42.03 51.4696 42.0039 51.5331 41.9629 51.6189C42.4032 51.4547 42.836 51.3278 43.1195 50.9324C43.1046 51.1077 43.0859 51.2756 43.0412 51.4323C42.9628 51.6972 42.8807 51.9621 42.8956 52.2419C42.9143 52.5554 43.071 52.7941 43.3135 53.0105C43.3247 52.7568 43.2725 52.5143 43.3695 52.283C43.4628 52.0666 43.571 51.8539 43.7501 51.6786C43.6941 52.4695 44.0187 53.115 44.4888 53.7082C44.9626 53.1187 45.2872 52.4733 45.2313 51.6786C45.4104 51.8539 45.5186 52.0666 45.6118 52.283C45.7088 52.5143 45.6566 52.7568 45.6678 53.0105C45.9103 52.7941 46.067 52.5554 46.0857 52.2419C46.1006 51.9621 46.0185 51.6972 45.9402 51.4323C45.8954 51.2756 45.8767 51.1077 45.8618 50.9324C46.1454 51.3278 46.5782 51.4547 47.0184 51.6189C46.9774 51.5331 46.9513 51.4696 46.9214 51.4099C46.7908 51.1376 46.6565 50.8652 46.5297 50.5891Z" fill="white"/>
<path d="M45.1232 42.5784C44.7837 42.3546 44.5934 42.0412 44.5113 41.6494C44.5076 41.627 44.4964 41.6084 44.4889 41.5897V41.5935C44.4814 41.6121 44.474 41.6308 44.4702 41.6494C44.3882 42.0412 44.1979 42.3546 43.8584 42.5784C43.6457 42.7202 43.5151 42.9329 43.4106 43.1568C43.392 43.1978 43.3808 43.2388 43.3584 43.2985C43.724 43.0859 44.0859 42.9627 44.4889 42.9777C44.8919 42.9627 45.2575 43.0859 45.6231 43.2985C45.6007 43.2388 45.5896 43.1978 45.5709 43.1568C45.4627 42.9329 45.3358 42.7202 45.1232 42.5784Z" fill="#111B1E"/>
<path d="M51.5142 48.7198C51.2157 48.1265 50.3576 47.0333 50.3389 47.0333C50.3464 47.0706 50.6896 47.8691 50.8277 48.2459C50.9732 48.6601 51.1075 49.0779 51.2194 49.5033C51.3724 50.0667 51.2232 50.5778 50.8538 51.0181C50.6971 51.2083 50.4881 51.3539 50.2979 51.518C50.0255 51.7531 49.7419 51.9769 49.4845 52.2269C49.2047 52.4956 49.0218 52.8313 48.8726 53.1821C48.6972 53.6037 48.5219 54.029 48.3876 54.4693C48.2719 54.8498 48.2085 55.2491 48.1264 55.6408C48.1003 55.7527 48.0667 56.1632 48.0779 56.1669C48.1339 56.0438 48.1936 55.9244 48.2383 55.8012C48.5032 55.0625 48.8316 54.3536 49.2345 53.6858C49.4136 53.3873 49.6263 53.1074 49.8539 52.8463C50.0964 52.5664 50.4098 52.3687 50.7568 52.2307C50.7941 52.2157 50.8351 52.1971 50.8799 52.1747C50.8874 52.1971 50.9023 52.5851 50.8948 52.7679C50.8762 53.141 50.9508 53.5029 51.0291 53.8648C51.1075 54.2156 51.2717 54.5215 51.4657 54.8163C51.5478 54.9394 51.7828 55.1409 51.7977 55.1334C51.7753 55.0737 51.5925 54.4245 51.5552 54.1521C51.4918 53.7156 51.5067 53.2791 51.5627 52.8463C51.5888 52.6635 51.6448 52.4844 51.7007 52.3053C51.7791 52.0366 51.8873 51.7755 51.9544 51.5031C52.0514 51.1188 52.044 50.727 52.0067 50.3316C51.9507 49.7607 51.7679 49.2272 51.5142 48.7198Z" fill="white"/>
<path d="M50.9884 40.9443C51.0294 40.9443 51.0668 40.9443 51.1041 40.9443C51.354 40.948 51.507 41.0525 51.5518 41.295C51.6189 41.6308 51.66 41.9741 51.7085 42.3136C51.7122 42.336 51.7122 42.3621 51.716 42.4069C51.7495 42.3733 51.7719 42.3584 51.7906 42.336C52.0741 41.9927 52.2756 41.6159 52.3428 41.1682C52.3763 40.9443 52.3353 40.7354 52.1749 40.5712C51.854 40.2466 51.5257 39.9332 51.1973 39.6161C51.1451 39.5601 51.1003 39.5601 51.0369 39.6123C50.6601 39.9183 50.2758 40.2168 49.9064 40.5339C49.7609 40.6607 49.6452 40.8286 49.5146 40.9779C50.0183 40.9667 50.5034 40.9555 50.9884 40.9443Z" fill="white"/>
<path d="M49.7685 37.993C49.5521 37.855 49.3394 37.7804 49.1119 37.7319C48.3955 37.5826 47.6978 37.661 47.0076 37.8774C46.7837 37.9445 46.5598 38.0229 46.3173 38.105C46.668 37.5602 47.0971 37.1013 47.5672 36.6722C47.5448 36.6797 47.515 36.6797 47.4926 36.6909C47.0262 36.8476 46.5897 37.0603 46.2427 37.4184C46.0897 37.5789 45.9554 37.7654 45.8435 37.9594C45.6345 38.3176 45.4443 38.6907 45.2465 39.0564C45.239 39.0713 45.2353 39.0899 45.2241 39.1123C46.6419 38.3587 48.1119 37.8512 49.7685 37.993Z" fill="white"/>
<path d="M52.6634 44.2948C51.9694 43.7613 50.4472 42.8621 50.4136 42.8546C51.0553 43.474 51.7008 44.0597 52.3015 44.6903C52.8984 45.3208 53.4432 45.9961 54.0215 46.664C54.0215 46.6341 53.7305 45.7611 53.5663 45.3469C53.3872 44.8955 53.0365 44.5821 52.6634 44.2948Z" fill="white"/>
<path d="M46.5964 43.8844C46.9024 43.7389 47.2121 43.5934 47.5105 43.4292C47.7195 43.3135 47.865 43.127 47.9657 42.9068C48.0217 42.7874 48.0403 42.6606 48.0366 42.5114C48.003 42.53 47.3352 42.9031 46.977 42.9964C46.9285 43.0076 46.8763 43.0188 46.8278 43.0188C46.5815 43.0225 46.4099 43.1829 46.2196 43.3023C46.0816 43.3844 46.0368 43.4814 46.0442 43.6381C46.0554 44.0672 46.048 44.4963 46.048 44.9291C46.048 44.944 46.0517 44.9589 46.0517 45.0037C46.0778 44.9589 46.0965 44.9403 46.1039 44.9179C46.2271 44.6194 46.3502 44.3209 46.4658 44.0224C46.492 43.9553 46.5293 43.9142 46.5964 43.8844Z" fill="#111B1E"/>
<mask id="mask14_61_623" style="mask-type:luminance" maskUnits="userSpaceOnUse" x="72" y="39" width="7" height="7">
<path d="M72.7627 39.2467H78.0272V45.9327H72.7627V39.2467Z" fill="white"/>
</mask>
<g mask="url(#mask14_61_623)">
<path d="M74.5723 44.0822C74.6805 44.1046 75.5312 44.2314 75.9192 44.2687C76.0125 44.2762 76.1058 44.3322 76.1618 44.4105L76.1841 44.4404C76.1618 44.5262 76.1692 44.6269 76.2215 44.7127L76.7513 45.4477C76.8035 45.347 76.8669 45.2537 76.9266 45.1605L76.4789 44.5336L76.8259 44.2762L77.2139 44.8247C77.2923 44.7538 77.3706 44.6829 77.4564 44.6269L77.0684 44.0897C77.0199 44.0188 76.9527 43.9777 76.8744 43.9628C76.852 43.9628 76.8184 43.9628 76.796 43.9628L76.7811 43.9479C76.7251 43.8695 76.7028 43.7688 76.7251 43.683C76.811 43.3061 76.9677 42.4629 76.9751 42.3547C77.0199 41.8212 76.8744 41.2839 76.5498 40.8362C75.8521 39.8699 74.5425 39.6087 73.6321 40.2579C73.2217 40.5564 72.9456 41.019 72.8598 41.5414C72.7665 42.1122 72.912 42.7129 73.2702 43.2054C73.5948 43.6494 74.0537 43.9628 74.5723 44.0822ZM73.4792 41.6421C73.4941 41.5563 73.5724 41.5003 73.6582 41.519C73.7441 41.5339 73.7963 41.6122 73.7888 41.6981C73.7329 42.0264 73.8261 42.3696 74.0276 42.6569C74.2142 42.9181 74.4865 43.1047 74.7887 43.1756C74.8746 43.1979 74.9193 43.2763 74.9044 43.3621C74.8895 43.433 74.8261 43.4778 74.7589 43.4778C74.744 43.4778 74.7328 43.4778 74.7179 43.4703C74.3485 43.377 74.0127 43.1494 73.7814 42.8323C73.5165 42.4853 73.4083 42.0488 73.4792 41.6421Z" fill="black"/>
</g>
<mask id="mask15_61_623" style="mask-type:luminance" maskUnits="userSpaceOnUse" x="72" y="44" width="7" height="5">
<path d="M72.7627 44.9775H78.0272V48.5743H72.7627V44.9775Z" fill="white"/>
</mask>
<g mask="url(#mask15_61_623)">
<path d="M77.3373 46.8169C77.2552 46.7311 77.1134 46.5967 76.9343 46.4587C76.5314 46.1453 75.8896 45.761 75.1621 45.761C74.4308 45.761 73.7891 46.1453 73.3861 46.4587C73.207 46.5967 73.069 46.7311 72.9832 46.8169C72.8899 46.9101 72.8376 47.037 72.8376 47.1676C72.8376 47.3019 72.8899 47.425 72.9832 47.5183C73.069 47.6041 73.207 47.7384 73.3861 47.8802C73.7965 48.2011 74.4308 48.5742 75.1621 48.5742C75.8896 48.5742 76.5314 48.1936 76.9343 47.8802C77.1134 47.7384 77.2552 47.6041 77.3373 47.5183C77.4305 47.425 77.4865 47.3019 77.4865 47.1676C77.4865 47.037 77.4305 46.9101 77.3373 46.8169ZM73.5652 47.5967C73.5577 47.5967 73.5503 47.5967 73.5428 47.5967C73.3936 47.481 73.2779 47.3728 73.1996 47.2944C73.1287 47.2235 73.1287 47.1042 73.1996 47.037C73.2854 46.9512 73.4085 46.8393 73.5577 46.7161C73.5577 46.7236 73.5652 46.7236 73.5652 46.7311C73.595 46.8616 73.61 47.0109 73.61 47.1601C73.61 47.3094 73.595 47.4661 73.5652 47.5967ZM75.912 47.3467H75.8896V47.3728C75.8896 47.4586 75.8187 47.5295 75.7329 47.5295C75.6508 47.5295 75.58 47.4586 75.58 47.3728V47.3467H75.3561V47.3728C75.3561 47.4586 75.2852 47.5295 75.1994 47.5295C75.1136 47.5295 75.0464 47.4586 75.0464 47.3728V47.3467H74.8188V47.3728C74.8188 47.4586 74.7517 47.5295 74.6659 47.5295C74.58 47.5295 74.5091 47.4586 74.5091 47.3728V47.3467H74.4868C74.4009 47.3467 74.3301 47.2758 74.3301 47.19C74.3301 47.1042 74.4009 47.037 74.4868 47.037H74.5091V47.0109C74.5091 46.9251 74.58 46.8542 74.6659 46.8542C74.7517 46.8542 74.8188 46.9251 74.8188 47.0109V47.037H75.0464V47.0109C75.0464 46.9251 75.1136 46.8542 75.1994 46.8542C75.2852 46.8542 75.3561 46.9251 75.3561 47.0109V47.037H75.58V47.0109C75.58 46.9251 75.6508 46.8542 75.7329 46.8542C75.8187 46.8542 75.8896 46.9251 75.8896 47.0109V47.037H75.912C75.9978 47.037 76.0687 47.1042 76.0687 47.19C76.0687 47.2758 75.9978 47.3467 75.912 47.3467ZM77.1209 47.2944C77.0351 47.3803 76.9194 47.4885 76.7664 47.6153C76.7664 47.6041 76.759 47.6041 76.759 47.5967C76.7254 47.4661 76.7105 47.3168 76.7105 47.1676C76.7105 47.0183 76.7254 46.8728 76.759 46.7385C76.759 46.7311 76.7664 46.7236 76.7664 46.7236C76.9194 46.8467 77.0462 46.9586 77.1209 47.0445C77.1918 47.1154 77.1918 47.2235 77.1209 47.2944Z" fill="black"/>
</g>
<mask id="mask16_61_623" style="mask-type:luminance" maskUnits="userSpaceOnUse" x="76" y="44" width="7" height="5">
<path d="M76.1167 44.0225H82.7915V48.5743H76.1167V44.0225Z" fill="white"/>
</mask>
<g mask="url(#mask16_61_623)">
<path d="M81.6726 46.3096C81.3219 46.3096 81.0048 46.4812 80.8108 46.7387C80.8182 46.6752 80.8182 46.6043 80.8182 46.5446C80.8182 45.4253 79.9116 44.5112 78.8035 44.5112C77.8745 44.5112 77.0909 45.153 76.8596 46.0186C76.9604 46.082 77.0462 46.1529 77.1283 46.2163C77.1469 46.1529 77.1544 46.0895 77.1768 46.0335C77.673 45.832 78.2364 45.8805 78.6878 46.1529C78.7662 46.0745 78.8445 45.9887 78.9266 45.9178C78.4155 45.4328 77.9192 45.2836 77.7028 45.2388C77.8036 45.153 77.9192 45.0746 78.0461 45.0112C78.3371 45.1119 78.7513 45.3171 79.1617 45.7052C79.2064 45.6678 79.2624 45.6193 79.3072 45.582C79.1691 45.3619 79.0759 45.1119 79.0535 44.8396C79.1617 44.8545 79.2699 44.8843 79.3781 44.9179C79.4079 45.0895 79.4713 45.2462 79.5572 45.388C79.6579 45.3171 79.7586 45.2462 79.8594 45.1828C79.9452 45.2537 80.0198 45.3246 80.0907 45.4104C79.975 45.4813 79.8594 45.5522 79.7512 45.6268C79.9265 45.8022 80.1616 45.9178 80.4078 45.9551C80.4489 46.0596 80.4713 46.1678 80.4862 46.2835C80.1056 46.2462 79.7586 46.0895 79.5012 45.8246L79.4937 45.8171C79.4564 45.8469 79.4079 45.888 79.3706 45.9178C79.7251 46.3245 80.0273 46.8245 80.2623 47.4177C80.1989 47.5184 80.1205 47.6229 80.0347 47.7087C79.8034 47.067 79.5012 46.5334 79.1355 46.1305C79.0684 46.1902 78.9975 46.2611 78.9266 46.332C78.9341 46.3394 78.9527 46.3544 78.9602 46.3618C79.4154 46.8319 79.5385 47.5595 79.2997 48.1676C79.1766 48.2087 79.0535 48.2311 78.9191 48.2385C79.2288 47.7087 79.1617 47.0036 78.7438 46.582C78.7326 46.5745 78.7251 46.567 78.7177 46.5596C78.2214 47.1304 77.9342 47.6677 77.811 47.9251C77.7252 47.8654 77.6431 47.7945 77.5722 47.7162C77.5722 47.7087 77.5797 47.7013 77.5797 47.7013C77.5722 47.7087 77.5648 47.7162 77.5573 47.7236C77.5014 47.7796 77.4305 47.8468 77.3372 47.9251C77.7028 48.3169 78.2214 48.5594 78.796 48.5594C79.4154 48.5594 79.975 48.2796 80.3369 47.8318C80.4302 47.7236 80.5086 47.5968 80.5795 47.4662C80.6168 48.0371 81.0906 48.481 81.6652 48.481C82.2622 48.481 82.7509 47.9886 82.7509 47.3879C82.7584 46.8021 82.2696 46.3096 81.6726 46.3096ZM81.0346 47.8878C80.9339 47.7535 80.8742 47.5819 80.8742 47.4028C80.8742 47.2237 80.9339 47.0521 81.0346 46.9177C81.1466 47.0595 81.2063 47.2237 81.2063 47.4028C81.2063 47.5819 81.1466 47.746 81.0346 47.8878ZM82.3069 47.8878C82.1987 47.746 82.1353 47.5819 82.1353 47.4028C82.1353 47.2237 82.1987 47.0595 82.3069 46.9177C82.4077 47.0521 82.4711 47.2237 82.4711 47.4028C82.4636 47.5819 82.4077 47.7535 82.3069 47.8878Z" fill="black"/>
</g>
<mask id="mask17_61_623" style="mask-type:luminance" maskUnits="userSpaceOnUse" x="78" y="38" width="5" height="8">
<path d="M78.9819 38.5491H82.7913V45.9328H78.9819V38.5491Z" fill="white"/>
</mask>
<g mask="url(#mask17_61_623)">
<path d="M79.3369 44.2611C79.3481 44.2611 79.3481 44.2611 79.3556 44.2611C79.4003 44.2761 79.4563 44.2835 79.5011 44.2985L80.1279 42.7277L81.2621 43.1978L80.5495 44.9812C80.6241 45.0745 80.7025 45.1678 80.7659 45.2685L82.2359 41.5785C82.2546 41.5487 82.2546 41.5114 82.2359 41.4703L82.027 40.8435L82.7247 39.1011C82.7881 38.9444 82.7098 38.7579 82.5568 38.6944L82.2695 38.5788C82.1912 38.5489 82.1053 38.5489 82.027 38.5788C81.9524 38.6086 81.8964 38.6721 81.8666 38.7504L81.1689 40.4928L80.5943 40.7987C80.5644 40.8137 80.5308 40.8435 80.5234 40.8771L79.1914 44.2313C79.2474 44.2388 79.2921 44.2537 79.3369 44.2611ZM81.3703 40.7689C81.3778 40.7577 81.3853 40.7577 81.3927 40.7502L81.7173 40.8846C81.7173 40.892 81.7173 40.8995 81.7248 40.9069L81.8404 41.2689L81.0457 40.9405L81.3703 40.7689Z" fill="black"/>
</g>
<mask id="mask18_61_623" style="mask-type:luminance" maskUnits="userSpaceOnUse" x="77" y="38" width="2" height="7">
<path d="M77.0723 38.5491H78.9826V44.9776H77.0723V38.5491Z" fill="white"/>
</mask>
<g mask="url(#mask18_61_623)">
<path d="M77.7585 43.7202C77.7809 43.862 77.7958 44.0113 77.7958 44.153V44.4329C77.8443 44.4105 77.8891 44.3956 77.9338 44.3694C77.945 44.362 77.9599 44.362 77.9674 44.3545C78.0122 44.3396 78.0607 44.3172 78.1055 44.306C78.2062 44.2762 78.3069 44.2538 78.4151 44.2314C78.5159 44.2127 78.6166 44.1978 78.7248 44.1978V44.153C78.7248 44.0113 78.7435 43.862 78.7658 43.7202L78.8666 43.127C78.9263 42.7688 78.9599 42.392 78.9599 42.0263V39.1945C78.9599 38.8512 78.6875 38.5714 78.348 38.5714H78.1689C77.8331 38.5714 77.5645 38.8512 77.5645 39.1945V42.0189C77.5645 42.3845 77.5943 42.7614 77.6577 43.1195L77.7585 43.7202Z" fill="black"/>
</g>
<path d="M78.4709 46.3879C78.1053 46.1827 77.6576 46.1677 77.2695 46.3319C77.3927 46.4326 77.4934 46.5259 77.5568 46.5968C77.7098 46.7535 77.7881 46.9513 77.7881 47.1677C77.7881 47.2385 77.7807 47.3094 77.7658 47.3729C77.9337 47.0893 78.1612 46.746 78.4709 46.3879Z" fill="black"/>
<mask id="mask19_61_623" style="mask-type:luminance" maskUnits="userSpaceOnUse" x="5" y="39" width="7" height="7">
<path d="M5.74219 39.2467H11.1671V45.9327H5.74219V39.2467Z" fill="white"/>
</mask>
<g mask="url(#mask19_61_623)">
<path d="M7.55159 44.0822C7.65979 44.1046 8.51047 44.2314 8.89849 44.2687C8.99177 44.2762 9.08504 44.3322 9.13728 44.4105L9.1634 44.4404C9.13728 44.5262 9.14847 44.6269 9.20071 44.7127L9.72678 45.4477C9.78275 45.347 9.84618 45.2537 9.90587 45.1605L9.45815 44.5336L9.80513 44.2762L10.1932 44.8247C10.2715 44.7538 10.3499 44.6829 10.4319 44.6269L10.0477 44.0897C9.99915 44.0188 9.92826 43.9777 9.85364 43.9628C9.82752 43.9628 9.79767 43.9628 9.77529 43.9628L9.76036 43.9479C9.7044 43.8695 9.68201 43.7688 9.7044 43.683C9.79021 43.3061 9.94691 42.4629 9.95437 42.3547C9.99915 41.8212 9.85364 41.2839 9.52531 40.8362C8.8276 39.8699 7.51801 39.6087 6.61137 40.2579C6.20096 40.5564 5.92113 41.019 5.83905 41.5414C5.74577 42.1122 5.89128 42.7129 6.24946 43.2054C6.57406 43.6494 7.02925 43.9628 7.55159 44.0822ZM6.4584 41.6421C6.47332 41.5563 6.55168 41.5003 6.63376 41.519C6.71957 41.5339 6.77554 41.6122 6.76807 41.6981C6.71211 42.0264 6.80539 42.3696 7.00686 42.6569C7.19341 42.9181 7.46578 43.1047 7.76799 43.1756C7.8538 43.1979 7.89858 43.2763 7.88365 43.3621C7.86873 43.433 7.8053 43.4778 7.73441 43.4778C7.71949 43.4778 7.71203 43.4778 7.6971 43.4703C7.324 43.377 6.99194 43.1494 6.76061 42.8323C6.49571 42.4853 6.38751 42.0488 6.4584 41.6421Z" fill="black"/>
</g>
<mask id="mask20_61_623" style="mask-type:luminance" maskUnits="userSpaceOnUse" x="5" y="44" width="7" height="5">
<path d="M5.74219 44.9775H11.1671V48.5743H5.74219V44.9775Z" fill="white"/>
</mask>
<g mask="url(#mask20_61_623)">
<path d="M10.3166 46.8169C10.2308 46.7311 10.0927 46.5967 9.91363 46.4587C9.51068 46.1453 8.86895 45.761 8.13766 45.761C7.41011 45.761 6.76838 46.1453 6.36542 46.4587C6.18634 46.5967 6.04829 46.7311 5.96247 46.8169C5.8692 46.9101 5.81323 47.037 5.81323 47.1676C5.81323 47.3019 5.8692 47.425 5.96247 47.5183C6.04829 47.6041 6.18634 47.7384 6.36542 47.8802C6.77584 48.2011 7.41011 48.5742 8.13766 48.5742C8.86895 48.5742 9.51068 48.1936 9.91363 47.8802C10.0927 47.7384 10.2308 47.6041 10.3166 47.5183C10.4099 47.425 10.4658 47.3019 10.4658 47.1676C10.4658 47.037 10.4099 46.9101 10.3166 46.8169ZM6.54451 47.5967C6.53332 47.5967 6.52586 47.5967 6.5184 47.5967C6.37289 47.481 6.25722 47.3728 6.17887 47.2944C6.10798 47.2235 6.10798 47.1042 6.17887 47.037C6.26469 46.9512 6.38781 46.8393 6.53332 46.7161C6.53332 46.7236 6.54451 46.7236 6.54451 46.7311C6.57436 46.8616 6.58929 47.0109 6.58929 47.1601C6.58929 47.3094 6.57436 47.4661 6.54451 47.5967ZM8.89133 47.3467H8.86895V47.3728C8.86895 47.4586 8.79806 47.5295 8.71224 47.5295C8.62643 47.5295 8.55927 47.4586 8.55927 47.3728V47.3467H8.33168V47.3728C8.33168 47.4586 8.26452 47.5295 8.17871 47.5295C8.09289 47.5295 8.022 47.4586 8.022 47.3728V47.3467H7.79814V47.3728C7.79814 47.4586 7.72725 47.5295 7.64517 47.5295C7.55935 47.5295 7.48847 47.4586 7.48847 47.3728V47.3467H7.46608C7.38026 47.3467 7.30938 47.2758 7.30938 47.19C7.30938 47.1042 7.38026 47.037 7.46608 47.037H7.48847V47.0109C7.48847 46.9251 7.55935 46.8542 7.64517 46.8542C7.72725 46.8542 7.79814 46.9251 7.79814 47.0109V47.037H8.022V47.0109C8.022 46.9251 8.09289 46.8542 8.17871 46.8542C8.26452 46.8542 8.33168 46.9251 8.33168 47.0109V47.037H8.55927V47.0109C8.55927 46.9251 8.62643 46.8542 8.71224 46.8542C8.79806 46.8542 8.86895 46.9251 8.86895 47.0109V47.037H8.89133C8.97715 47.037 9.04804 47.1042 9.04804 47.19C9.04804 47.2758 8.97715 47.3467 8.89133 47.3467ZM10.1002 47.2944C10.0144 47.3803 9.89871 47.4885 9.74574 47.6153C9.74574 47.6041 9.73455 47.6041 9.73455 47.5967C9.7047 47.4661 9.68977 47.3168 9.68977 47.1676C9.68977 47.0183 9.7047 46.8728 9.73455 46.7385C9.73455 46.7311 9.74574 46.7236 9.74574 46.7236C9.89871 46.8467 10.0218 46.9586 10.1002 47.0445C10.1711 47.1154 10.1711 47.2235 10.1002 47.2944Z" fill="black"/>
</g>
<mask id="mask21_61_623" style="mask-type:luminance" maskUnits="userSpaceOnUse" x="9" y="44" width="7" height="5">
<path d="M9.25635 44.0225H15.767V48.5743H9.25635V44.0225Z" fill="white"/>
</mask>
<g mask="url(#mask21_61_623)">
<path d="M14.6515 46.3096C14.3008 46.3096 13.9836 46.4812 13.7896 46.7387C13.7971 46.6752 13.7971 46.6043 13.7971 46.5446C13.7971 45.4253 12.8904 44.5112 11.7823 44.5112C10.8533 44.5112 10.0698 45.153 9.83472 46.0186C9.93545 46.082 10.0213 46.1529 10.1071 46.2163C10.122 46.1529 10.1295 46.0895 10.1556 46.0335C10.6518 45.832 11.2152 45.8805 11.6667 46.1529C11.745 46.0745 11.8196 45.9887 11.9054 45.9178C11.3943 45.4328 10.8981 45.2836 10.6817 45.2388C10.7824 45.153 10.8981 45.0746 11.0212 45.0112C11.3159 45.1119 11.7263 45.3171 12.1368 45.7052C12.1853 45.6678 12.2375 45.6193 12.286 45.582C12.148 45.3619 12.0547 45.1119 12.0286 44.8396C12.1368 44.8545 12.2487 44.8843 12.3569 44.9179C12.3867 45.0895 12.4502 45.2462 12.5323 45.388C12.633 45.3171 12.7337 45.2462 12.8345 45.1828C12.9203 45.2537 12.9986 45.3246 13.0695 45.4104C12.9539 45.4813 12.8345 45.5522 12.7263 45.6268C12.9054 45.8022 13.1367 45.9178 13.3867 45.9551C13.424 46.0596 13.4501 46.1678 13.465 46.2835C13.0844 46.2462 12.7337 46.0895 12.48 45.8246L12.4726 45.8171C12.4315 45.8469 12.3867 45.888 12.3494 45.9178C12.7039 46.3245 13.0061 46.8245 13.2374 47.4177C13.1777 47.5184 13.0994 47.6229 13.0136 47.7087C12.7822 47.067 12.48 46.5334 12.1144 46.1305C12.0472 46.1902 11.9763 46.2611 11.9054 46.332C11.9129 46.3394 11.9278 46.3544 11.9353 46.3618C12.3942 46.8319 12.5173 47.5595 12.2785 48.1676C12.1554 48.2087 12.0286 48.2311 11.898 48.2385C12.2077 47.7087 12.1368 47.0036 11.7189 46.582C11.7114 46.5745 11.704 46.567 11.6965 46.5596C11.2003 47.1304 10.913 47.6677 10.7899 47.9251C10.704 47.8654 10.6182 47.7945 10.5511 47.7162C10.5511 47.7087 10.5585 47.7013 10.5585 47.7013C10.5511 47.7087 10.5436 47.7162 10.5324 47.7236C10.4802 47.7796 10.4093 47.8468 10.316 47.9251C10.6817 48.3169 11.2003 48.5594 11.7749 48.5594C12.3942 48.5594 12.9539 48.2796 13.3158 47.8318C13.409 47.7236 13.4874 47.5968 13.5583 47.4662C13.5956 48.0371 14.0694 48.481 14.6403 48.481C15.2372 48.481 15.726 47.9886 15.726 47.3879C15.7335 46.8021 15.2484 46.3096 14.6515 46.3096ZM14.0135 47.8878C13.9127 47.7535 13.853 47.5819 13.853 47.4028C13.853 47.2237 13.9127 47.0521 14.0135 46.9177C14.1217 47.0595 14.1851 47.2237 14.1851 47.4028C14.1851 47.5819 14.1217 47.746 14.0135 47.8878ZM15.2858 47.8878C15.1776 47.746 15.1141 47.5819 15.1141 47.4028C15.1141 47.2237 15.1776 47.0595 15.2858 46.9177C15.3865 47.0521 15.4499 47.2237 15.4499 47.4028C15.4387 47.5819 15.3865 47.7535 15.2858 47.8878Z" fill="black"/>
</g>
<mask id="mask22_61_623" style="mask-type:luminance" maskUnits="userSpaceOnUse" x="12" y="38" width="4" height="8">
<path d="M12.1226 38.5491H15.7678V45.9328H12.1226V38.5491Z" fill="white"/>
</mask>
<g mask="url(#mask22_61_623)">
<path d="M12.3159 44.2611C12.3234 44.2611 12.3234 44.2611 12.3308 44.2611C12.3793 44.2761 12.4316 44.2835 12.4801 44.2985L13.1069 42.7277L14.2374 43.1978L13.5248 44.9812C13.6031 45.0745 13.6815 45.1678 13.7412 45.2685L15.2149 41.5785C15.2299 41.5487 15.2299 41.5114 15.2149 41.4703L15.006 40.8435L15.7037 39.1011C15.7671 38.9444 15.6888 38.7579 15.5321 38.6944L15.2485 38.5788C15.1702 38.5489 15.0843 38.5489 15.006 38.5788C14.9276 38.6086 14.8754 38.6721 14.8418 38.7504L14.1479 40.4928L13.5733 40.7987C13.5397 40.8137 13.5099 40.8435 13.5024 40.8771L12.1704 44.2313C12.2226 44.2388 12.2711 44.2537 12.3159 44.2611ZM14.3493 40.7689C14.3568 40.7577 14.3643 40.7577 14.3717 40.7502L14.6963 40.8846C14.6963 40.892 14.6963 40.8995 14.7038 40.9069L14.8194 41.2689L14.021 40.9405L14.3493 40.7689Z" fill="black"/>
</g>
<mask id="mask23_61_623" style="mask-type:luminance" maskUnits="userSpaceOnUse" x="10" y="38" width="3" height="7">
<path d="M10.2119 38.5491H12.1222V44.9776H10.2119V38.5491Z" fill="white"/>
</mask>
<g mask="url(#mask23_61_623)">
<path d="M10.734 43.7202C10.7601 43.862 10.775 44.0113 10.775 44.153V44.4329C10.8198 44.4105 10.8683 44.3956 10.9131 44.3694C10.9205 44.362 10.9355 44.362 10.9467 44.3545C10.9914 44.3396 11.0362 44.3172 11.0847 44.306C11.1854 44.2762 11.2862 44.2538 11.3944 44.2314C11.4951 44.2127 11.5959 44.1978 11.7041 44.1978V44.153C11.7041 44.0113 11.719 43.862 11.7451 43.7202L11.8458 43.127C11.9055 42.7688 11.9354 42.392 11.9354 42.0263V39.1945C11.9354 38.8512 11.6667 38.5714 11.3235 38.5714H11.1481C10.8123 38.5714 10.5437 38.8512 10.5437 39.1945V42.0189C10.5437 42.3845 10.5735 42.7614 10.6332 43.1195L10.734 43.7202Z" fill="black"/>
</g>
<path d="M11.4509 46.3879C11.0853 46.1827 10.6338 46.1677 10.2495 46.3319C10.3726 46.4326 10.4734 46.5259 10.5331 46.5968C10.6898 46.7535 10.7681 46.9513 10.7681 47.1677C10.7681 47.2385 10.7607 47.3094 10.7457 47.3729C10.9136 47.0893 11.1375 46.746 11.4509 46.3879Z" fill="black"/>
<path d="M24.009 21.9835C23.33 22.5618 22.6659 22.8603 22.0092 22.8789C21.3525 22.9013 20.7817 22.6252 20.2929 22.0581L22.0987 20.4911C22.1957 20.6104 22.3077 20.6776 22.4271 20.6851C22.5465 20.6963 22.6584 20.6552 22.7703 20.5657C22.8599 20.4761 22.9121 20.3829 22.9345 20.2821C22.9643 20.1851 22.9382 20.0881 22.8599 19.9986C22.7405 19.8605 22.58 19.8269 22.3823 19.8941C22.1808 19.9538 21.9495 20.0545 21.6809 20.1926C21.4719 20.2933 21.2481 20.3978 21.0093 20.506C20.763 20.6179 20.5019 20.6851 20.2332 20.7149C19.9571 20.7373 19.6885 20.6963 19.4273 20.5955C19.1587 20.4985 18.89 20.2933 18.6214 19.9836C18.1849 19.4688 18.0207 18.9091 18.1289 18.3121C18.2297 17.7077 18.6028 17.1257 19.2482 16.566C19.8862 16.0213 20.513 15.7415 21.1287 15.7303C21.7443 15.7228 22.2816 15.9802 22.7405 16.5063L20.9943 17.9987C20.8078 17.7898 20.6175 17.7711 20.4272 17.939C20.2407 18.0995 20.2146 18.2599 20.3526 18.4166C20.4645 18.536 20.6212 18.5658 20.8302 18.5061C21.0391 18.439 21.2779 18.3383 21.5465 18.2077C21.7629 18.0883 22.0017 17.9801 22.2629 17.8793C22.5203 17.7711 22.7778 17.7002 23.039 17.6704C23.3076 17.6331 23.58 17.6629 23.8598 17.7599C24.1359 17.8607 24.4008 18.0584 24.6508 18.3569C25.1283 18.9054 25.3074 19.4986 25.188 20.1329C25.0761 20.7709 24.6843 21.3865 24.009 21.9835Z" fill="#111B1E"/>
<path d="M31.0377 17.1312L30.3363 16.4297L28.426 17.4446L28.5902 18.4147L26.4262 19.5489L25.665 12.2659L27.6649 11.2063L33.2465 15.9671L31.0377 17.1312ZM29.217 15.2209L27.7693 13.8777L28.0529 15.8328L29.217 15.2209Z" fill="#111B1E"/>
<path d="M36.58 8.13852L38.6843 7.6311L40.2812 14.2425L38.4754 14.6753L35.401 12.1233L36.1472 15.2424L34.0578 15.7498L32.4609 9.13844L34.3115 8.69072L37.3113 11.1383L36.58 8.13852Z" fill="#111B1E"/>
<path d="M44.6845 7.3089C45.4008 7.3089 46.0276 7.45814 46.5649 7.75662C47.1022 8.04765 47.5201 8.44313 47.8185 8.95055C48.117 9.45797 48.2663 10.0512 48.2663 10.7265C48.2551 11.3944 48.0946 11.9876 47.7887 12.5025C47.479 13.0099 47.0574 13.4091 46.5201 13.6964C45.9829 13.9763 45.3561 14.1143 44.6397 14.1143L41.7295 14.0845L41.7743 7.27905L44.6845 7.3089ZM44.5054 12.0697C44.9419 12.0697 45.2889 11.9503 45.5501 11.7115C45.8075 11.4653 45.9418 11.1295 45.953 10.7116C45.953 10.2937 45.8224 9.96539 45.565 9.72661C45.3038 9.48036 44.9568 9.35351 44.5203 9.35351L44.0278 9.33858L44.0129 12.0548L44.5054 12.0697Z" fill="#111B1E"/>
<path d="M54.8132 8.68219L57.0369 9.23439L55.3654 15.8308L53.1417 15.2787L53.7238 12.9505L52.1717 12.5475L51.5896 14.8757L49.3809 14.3235L51.0524 7.72705L53.2611 8.27924L52.694 10.5179L54.2461 10.9208L54.8132 8.68219Z" fill="#111B1E"/>
<path d="M59.365 17.9655C58.7979 17.667 58.3576 17.3014 58.0517 16.876C57.742 16.447 57.5778 15.9806 57.5592 15.4732C57.5368 14.9657 57.6636 14.4546 57.9323 13.936L59.8575 10.3243L61.9319 11.4138L60.0067 15.0254C59.8948 15.2344 59.8649 15.4508 59.9172 15.6672C59.9769 15.8761 60.1149 16.0365 60.335 16.1447C60.544 16.2641 60.7455 16.2828 60.9469 16.2044C61.1559 16.1224 61.3126 15.9806 61.4245 15.7716L63.3497 12.16L65.4093 13.2644L63.484 16.876C63.2154 17.3909 62.861 17.7789 62.4244 18.0401C61.9842 18.3087 61.5029 18.4356 60.9768 18.4281C60.447 18.4169 59.9097 18.264 59.365 17.9655Z" fill="#111B1E"/>
<path d="M72.0162 18.6205L70.7328 20.1129L69.3299 18.9041L66.166 22.5605L64.4497 21.0681L67.6136 17.4117L66.2257 16.2178L67.5092 14.7253L72.0162 18.6205Z" fill="#111B1E"/>
<path d="M18.682 71.3916C18.2119 70.914 17.9582 70.4289 17.9209 69.9439C17.8798 69.4589 18.0552 69.0261 18.4432 68.6455L19.6969 69.929C19.6148 69.9961 19.57 70.0708 19.5625 70.1529C19.5625 70.2424 19.5998 70.3245 19.6819 70.4066C19.7491 70.4737 19.82 70.5148 19.8909 70.526C19.9692 70.5334 20.0438 70.511 20.1147 70.4513C20.2117 70.3506 20.2341 70.2275 20.1744 70.0782C20.1147 69.929 20.0289 69.7648 19.9207 69.5857C19.8312 69.4178 19.7416 69.2499 19.6521 69.0783C19.5625 68.8992 19.5028 68.7164 19.473 68.5261C19.4431 68.3284 19.4581 68.1232 19.5178 67.9142C19.5849 67.7053 19.7304 67.4926 19.9506 67.2725C20.3162 66.9255 20.7192 66.78 21.1594 66.8397C21.6071 66.8919 22.0586 67.1494 22.5175 67.6158C22.954 68.0635 23.1891 68.5187 23.2189 68.9738C23.2563 69.4328 23.0921 69.8432 22.7264 70.2125L21.5325 68.9738C21.6818 68.8246 21.6892 68.6866 21.5624 68.556C21.4206 68.4179 21.2975 68.403 21.1893 68.5112C21.0997 68.5933 21.0848 68.7052 21.1445 68.8545C21.2042 69.0037 21.2937 69.1791 21.4131 69.3768C21.4915 69.5372 21.5773 69.7089 21.6668 69.8991C21.7638 70.0969 21.8347 70.2946 21.8758 70.4961C21.9131 70.6939 21.8982 70.8916 21.831 71.0931C21.7713 71.302 21.637 71.5109 21.428 71.7199C21.04 72.0967 20.5998 72.2572 20.1147 72.1975C19.6372 72.1452 19.1596 71.8766 18.682 71.3916Z" fill="#111B1E"/>
<path d="M26.4844 71.2098C26.7903 71.4411 27.0142 71.7135 27.156 72.0306C27.294 72.3403 27.35 72.6649 27.3201 73.0007C27.2903 73.329 27.1597 73.6462 26.9321 73.9559C26.7008 74.2543 26.4321 74.467 26.1262 74.5976C25.8165 74.7356 25.4919 74.7804 25.1561 74.7319C24.8166 74.6909 24.492 74.5565 24.1861 74.329L23.604 73.9111L22.8727 74.8961L21.5146 73.8812L24.5442 69.7771L26.4844 71.2098ZM24.7532 73.0007C24.88 73.1014 25.0106 73.1425 25.1412 73.1201C25.2793 73.1014 25.3987 73.0306 25.4994 72.9112C25.5964 72.7843 25.6337 72.65 25.6039 72.5082C25.5815 72.3702 25.5069 72.2508 25.38 72.15L25.0666 71.9262L24.4398 72.7768L24.7532 73.0007Z" fill="#111B1E"/>
<path d="M28.726 78.6442C28.2073 78.3942 27.8007 78.0696 27.5022 77.6741C27.2112 77.2749 27.0433 76.8458 26.9948 76.3757C26.9537 75.9093 27.0545 75.4317 27.2932 74.943C27.5208 74.4654 27.8342 74.0998 28.2335 73.8386C28.629 73.5811 29.0729 73.4468 29.5617 73.4356C30.0467 73.4282 30.5504 73.5476 31.069 73.7938C31.5951 74.055 32.0093 74.3833 32.3077 74.7788C32.6137 75.1668 32.7891 75.5996 32.8301 76.0772C32.8674 76.5473 32.7741 77.0174 32.5465 77.495C32.3077 77.98 31.9869 78.3494 31.5914 78.5994C31.2034 78.8568 30.7594 78.9911 30.2631 79.0023C29.7632 79.021 29.252 78.9016 28.726 78.6442ZM29.3975 77.2413C29.7035 77.3905 29.9982 77.4129 30.2781 77.3159C30.5542 77.2152 30.7706 77.0137 30.9198 76.704C31.069 76.4055 31.0914 76.1182 30.9944 75.8384C30.9049 75.5623 30.7034 75.3459 30.3975 75.1967C30.1064 75.0586 29.8229 75.04 29.5468 75.137C29.2782 75.2377 29.0692 75.4355 28.92 75.7339C28.7707 76.0436 28.7409 76.3384 28.8304 76.6145C28.92 76.8943 29.1065 77.1032 29.3975 77.2413Z" fill="#111B1E"/>
<path d="M35.5973 80.9996L35.3137 79.4922L34.9854 79.4027L34.6272 80.7459L33.0005 80.2981L34.3437 75.3732L36.642 76C37.0188 76.1007 37.3322 76.2686 37.5822 76.5074C37.8284 76.7462 38.0001 77.0297 38.0896 77.3581C38.1866 77.6789 38.1866 78.0222 38.0896 78.3878C38.0075 78.6677 37.8807 78.9065 37.7016 79.1042C37.5225 79.3057 37.2912 79.4475 37.0151 79.537L37.418 81.4921L35.5973 80.9996ZM35.5824 77.2387L35.3287 78.1491L35.7316 78.2535C35.8995 78.2946 36.0375 78.2834 36.1495 78.2237C36.2689 78.164 36.3472 78.067 36.3883 77.9252C36.4181 77.7983 36.3957 77.6789 36.3286 77.567C36.2689 77.4588 36.1532 77.3842 35.9853 77.3432L35.5824 77.2387Z" fill="#111B1E"/>
<path d="M43.5477 77.0641L43.3985 78.5267L42.0404 78.3924L41.6822 82.004L39.9958 81.8399L40.354 78.2282L38.981 78.0939L39.1302 76.6313L43.5477 77.0641Z" fill="#111B1E"/>
<path d="M46.5205 82.1922C45.8527 82.2295 45.3191 82.1101 44.9236 81.8191C44.5244 81.5206 44.3118 81.099 44.2819 80.5505L46.0728 80.446C46.0728 80.558 46.1026 80.6475 46.1623 80.7147C46.2295 80.7744 46.319 80.8005 46.431 80.7893C46.528 80.7818 46.6101 80.752 46.6698 80.6998C46.7295 80.6512 46.7518 80.5804 46.7444 80.4908C46.7332 80.3528 46.6474 80.2595 46.4907 80.2073C46.3414 80.1476 46.1623 80.1028 45.9534 80.0729C45.7743 80.0356 45.584 79.9909 45.3863 79.9386C45.196 79.8901 45.0169 79.8155 44.849 79.7148C44.6774 79.6066 44.5393 79.4611 44.4311 79.282C44.3192 79.0954 44.2558 78.8454 44.2371 78.5358C44.2073 78.0395 44.3565 77.6403 44.6849 77.3418C45.0206 77.0359 45.5131 76.8605 46.1623 76.8195C46.7892 76.7822 47.2854 76.8941 47.6548 77.1627C48.0316 77.4314 48.2368 77.8269 48.2666 78.3417L46.5504 78.4462C46.5392 78.2373 46.4384 78.1403 46.2519 78.1477C46.0616 78.1589 45.9721 78.2447 45.9833 78.4014C45.9833 78.5208 46.0579 78.6066 46.2071 78.6551C46.3638 78.7074 46.5541 78.7559 46.7742 78.8044C46.9608 78.8454 47.1548 78.8939 47.3563 78.9536C47.554 79.0059 47.7443 79.0842 47.9234 79.1924C48.1025 79.2932 48.2443 79.4387 48.3562 79.6252C48.4644 79.8043 48.5278 80.0431 48.5502 80.3416C48.58 80.8788 48.4159 81.3116 48.0577 81.64C47.707 81.9683 47.1958 82.1549 46.5205 82.1922Z" fill="#111B1E"/>
<path d="M54.9951 80.6705C54.6071 80.7899 54.2265 80.8347 53.8608 80.8048C53.4915 80.775 53.152 80.6817 52.846 80.5213C52.5363 80.3646 52.2677 80.1482 52.0401 79.8795C51.8125 79.6034 51.6446 79.2788 51.5327 78.9095C51.4133 78.5326 51.376 78.1707 51.4133 77.82C51.4431 77.4618 51.5439 77.1298 51.7118 76.8201C51.8834 76.5142 52.111 76.2492 52.3983 76.0291C52.6856 75.8015 53.0251 75.6262 53.4131 75.5068C53.8795 75.3575 54.3272 75.324 54.7563 75.4023C55.1816 75.4732 55.5622 75.6374 55.8905 75.8948C56.2263 76.156 56.4912 76.4918 56.6815 76.9096L55.0249 77.4171C54.8943 77.2193 54.7264 77.085 54.5175 77.0141C54.3086 76.9358 54.0996 76.9246 53.8907 76.9843C53.5997 77.0738 53.3982 77.2492 53.2788 77.5066C53.1594 77.7566 53.1482 78.0439 53.249 78.3722C53.346 78.6931 53.5176 78.9244 53.7564 79.0736C53.9952 79.2154 54.2563 79.2378 54.5474 79.1483C54.7749 79.0811 54.9503 78.9505 55.0697 78.7602C55.1966 78.5737 55.2488 78.3535 55.2189 78.1036L56.9054 77.5812C56.9949 78.0401 56.9725 78.4767 56.8457 78.8945C56.7151 79.305 56.4912 79.6669 56.1741 79.984C55.8532 80.2937 55.4615 80.5213 54.9951 80.6705Z" fill="#111B1E"/>
<path d="M59.8697 76.8964L61.392 76.1353L62.0785 77.4934L59.0041 79.0306L56.7207 74.4638L58.2728 73.6877L59.8697 76.8964Z" fill="#111B1E"/>
<path d="M65.3728 75.4987C64.9923 75.7786 64.6042 75.9539 64.2088 76.0211C63.8095 76.0808 63.4364 76.036 63.0894 75.8868C62.7425 75.7301 62.4402 75.4689 62.1791 75.1107L60.3882 72.6184L61.8209 71.5886L63.6267 74.0959C63.7237 74.2377 63.8506 74.3197 63.9998 74.3496C64.1565 74.3794 64.3132 74.3421 64.4625 74.2302C64.6117 74.122 64.6901 73.9914 64.7013 73.8422C64.7199 73.6855 64.6789 73.5362 64.5819 73.3944L62.776 70.8872L64.2088 69.8574L65.9997 72.3498C66.2571 72.7079 66.4063 73.081 66.4474 73.4691C66.4847 73.8496 66.4101 74.2153 66.2235 74.5734C66.0332 74.9242 65.7497 75.2301 65.3728 75.4987Z" fill="#111B1E"/>
<path d="M69.0476 68.4691C69.3162 68.3796 69.5774 68.3609 69.8385 68.4094C70.1072 68.4616 70.3385 68.581 70.54 68.7676C70.7377 68.9691 70.8608 69.1929 70.9131 69.4392C70.9616 69.6891 70.9355 69.9466 70.8385 70.2152C70.7489 70.4839 70.5847 70.7376 70.346 70.9764L68.5551 72.812L64.9136 69.2452L66.6895 67.4244C66.9097 67.208 67.1447 67.0513 67.391 66.9618C67.6298 66.8722 67.8686 66.8498 68.1073 66.8871C68.3349 66.9282 68.5401 67.0364 68.7192 67.2155C68.8871 67.3759 68.9953 67.5699 69.0476 67.7975C69.1073 68.0176 69.1073 68.2415 69.0476 68.4691ZM67.8238 68.5437C67.7454 68.4654 67.6559 68.4318 67.5551 68.4392C67.4469 68.4392 67.3537 68.484 67.2716 68.5736L66.8836 68.9616L67.4059 69.469L67.7939 69.081C67.876 68.9914 67.9208 68.8982 67.9282 68.7974C67.9394 68.7004 67.9059 68.6146 67.8238 68.5437ZM69.1819 70.3943C69.2714 70.3048 69.3162 70.2078 69.3162 70.0958C69.3237 69.9764 69.2901 69.8832 69.2117 69.8123C69.1296 69.7227 69.0364 69.6891 68.9282 69.7078C68.8162 69.719 68.7192 69.7675 68.6297 69.857L68.2267 70.2749L68.7789 70.8122L69.1819 70.3943Z" fill="#111B1E"/>
<path d="M34.3717 30.4159H35.3418V31.1322H33.4912V28.4608H35.3269V29.1772H34.3717V29.4607H35.2224V30.1174H34.3717V30.4159Z" fill="#111B1E"/>
<path d="M36.8781 31.2069C36.5274 31.2069 36.255 31.1285 36.0573 30.9681C35.8558 30.8002 35.7588 30.5726 35.7588 30.2816H36.699C36.699 30.3413 36.7139 30.3935 36.7438 30.4308C36.7811 30.4607 36.8259 30.4756 36.8781 30.4756C36.9378 30.4756 36.9826 30.4681 37.0124 30.4458C37.0423 30.4159 37.0572 30.3786 37.0572 30.3264C37.0572 30.2592 37.0161 30.207 36.9378 30.1771C36.8557 30.1398 36.7624 30.11 36.6542 30.0876C36.5647 30.0577 36.4677 30.0279 36.3707 29.998C36.2699 29.9682 36.1767 29.9234 36.0871 29.8637C35.9976 29.804 35.9267 29.7257 35.8782 29.6249C35.8259 29.5279 35.8036 29.3973 35.8036 29.2369C35.8036 28.9683 35.8931 28.7593 36.0722 28.6101C36.2587 28.4609 36.5237 28.3862 36.8632 28.3862C37.1915 28.3862 37.4489 28.4683 37.6392 28.625C37.8258 28.7743 37.9228 28.9832 37.9228 29.2518H37.0124C37.0124 29.1436 36.9602 29.0877 36.8632 29.0877C36.7624 29.0877 36.7139 29.1287 36.7139 29.2071C36.7139 29.2779 36.7512 29.3265 36.8333 29.3563C36.9117 29.3861 37.0124 29.416 37.1318 29.4458C37.2214 29.4757 37.3146 29.513 37.4154 29.5503C37.5236 29.5802 37.6243 29.6249 37.7138 29.6846C37.8034 29.7443 37.8706 29.8264 37.9228 29.9234C37.9825 30.0242 38.0123 30.1473 38.0123 30.2965C38.0123 30.5875 37.9116 30.8114 37.7138 30.9681C37.5124 31.1285 37.2363 31.2069 36.8781 31.2069Z" fill="#111B1E"/>
<path d="M40.6744 28.4608V29.2369H39.958V31.1322H39.0625V29.2369H38.3462V28.4608H40.6744Z" fill="#111B1E"/>
<path d="M42.2761 28.4608C42.5522 28.4608 42.7985 28.5168 43.0074 28.625C43.2238 28.7369 43.3954 28.8936 43.5148 29.1026C43.6342 29.304 43.6939 29.5316 43.6939 29.7891C43.6939 30.0577 43.6342 30.2928 43.5148 30.4905C43.3954 30.692 43.2238 30.8487 43.0074 30.9681C42.7985 31.08 42.5522 31.1322 42.2761 31.1322H41.127V28.4608H42.2761ZM42.2164 30.3263C42.3843 30.3263 42.5186 30.2816 42.6194 30.192C42.7276 30.095 42.7835 29.9607 42.7835 29.7891C42.7835 29.6324 42.7276 29.5055 42.6194 29.416C42.5186 29.319 42.3843 29.2667 42.2164 29.2667H42.0224V30.3263H42.2164Z" fill="#111B1E"/>
<path d="M46.295 30.4607H46.9816V31.1323H44.9668V30.9382C45.1757 30.6995 45.3474 30.498 45.4891 30.3264C45.6272 30.1585 45.7354 30.0204 45.8175 29.9085C45.907 29.8003 45.9704 29.7145 46.0115 29.6548C46.06 29.5876 46.0898 29.5316 46.101 29.4906C46.1197 29.4421 46.1309 29.3973 46.1309 29.3563C46.1309 29.3078 46.116 29.2667 46.0861 29.2369C46.0563 29.1996 46.0152 29.1772 45.9667 29.1772C45.8473 29.1772 45.7876 29.2518 45.7876 29.4011V29.4458H44.9966V29.416C44.9966 29.1287 45.0787 28.9048 45.2504 28.7444C45.4183 28.5877 45.657 28.5056 45.9667 28.5056C46.1533 28.5056 46.3174 28.5429 46.4592 28.6101C46.6085 28.681 46.7204 28.7742 46.8025 28.8936C46.892 29.013 46.9368 29.1548 46.9368 29.3115C46.9368 29.4011 46.9256 29.4869 46.9069 29.5652C46.8845 29.6361 46.851 29.7107 46.8025 29.7891C46.7614 29.8712 46.7017 29.9644 46.6234 30.0726C46.5413 30.1846 46.4331 30.3114 46.295 30.4607Z" fill="#111B1E"/>
<path d="M48.6354 31.2218C48.3854 31.2218 48.1728 31.1658 47.9937 31.0576C47.8146 30.9494 47.6691 30.7964 47.5609 30.595C47.4601 30.386 47.4116 30.1472 47.4116 29.8786C47.4116 29.6025 47.4601 29.3637 47.5609 29.1622C47.6691 28.9533 47.8146 28.7966 47.9937 28.6847C48.1728 28.5765 48.3854 28.5205 48.6354 28.5205C48.8742 28.5205 49.0831 28.5765 49.2622 28.6847C49.4488 28.7966 49.5943 28.9533 49.695 29.1622C49.792 29.3637 49.8443 29.6025 49.8443 29.8786C49.8443 30.1472 49.792 30.386 49.695 30.595C49.5943 30.7964 49.4488 30.9494 49.2622 31.0576C49.0831 31.1658 48.8742 31.2218 48.6354 31.2218ZM48.6354 30.5502C48.7548 30.5502 48.8443 30.4905 48.904 30.3711C48.9712 30.2517 49.0085 30.0875 49.0085 29.8786C49.0085 29.6622 48.9712 29.4906 48.904 29.3712C48.8443 29.2518 48.7548 29.1921 48.6354 29.1921C48.516 29.1921 48.419 29.2518 48.3518 29.3712C48.281 29.4906 48.2474 29.6622 48.2474 29.8786C48.2474 30.0875 48.281 30.2517 48.3518 30.3711C48.419 30.4905 48.516 30.5502 48.6354 30.5502Z" fill="#111B1E"/>
<path d="M51.5397 30.4607H52.2262V31.1323H50.2114V30.9382C50.4204 30.6995 50.592 30.498 50.7338 30.3264C50.8718 30.1585 50.98 30.0204 51.0621 29.9085C51.1516 29.8003 51.2151 29.7145 51.2561 29.6548C51.3046 29.5876 51.3345 29.5316 51.3457 29.4906C51.3643 29.4421 51.3755 29.3973 51.3755 29.3563C51.3755 29.3078 51.3606 29.2667 51.3307 29.2369C51.3009 29.1996 51.2598 29.1772 51.2113 29.1772C51.0919 29.1772 51.0323 29.2518 51.0323 29.4011V29.4458H50.2413V29.416C50.2413 29.1287 50.3234 28.9048 50.495 28.7444C50.6629 28.5877 50.9017 28.5056 51.2113 28.5056C51.3979 28.5056 51.5621 28.5429 51.7038 28.6101C51.8531 28.681 51.965 28.7742 52.0471 28.8936C52.1366 29.013 52.1814 29.1548 52.1814 29.3115C52.1814 29.4011 52.1702 29.4869 52.1516 29.5652C52.1292 29.6361 52.0956 29.7107 52.0471 29.7891C52.0061 29.8712 51.9464 29.9644 51.868 30.0726C51.7859 30.1846 51.6777 30.3114 51.5397 30.4607Z" fill="#111B1E"/>
<path d="M54.0883 29.5205C54.2674 29.5727 54.4054 29.666 54.5061 29.8041C54.6143 29.9347 54.6703 30.0988 54.6703 30.2966C54.6703 30.4757 54.6255 30.6361 54.536 30.7741C54.4539 30.9159 54.3345 31.0241 54.1778 31.1025C54.0286 31.1696 53.8495 31.2069 53.6405 31.2069C53.4503 31.2069 53.2824 31.1696 53.1331 31.1025C52.9839 31.0241 52.8645 30.9159 52.7749 30.7741C52.6929 30.6361 52.6481 30.4757 52.6406 30.2966H53.3719C53.3794 30.3786 53.4092 30.4458 53.4615 30.5055C53.51 30.5577 53.5734 30.5801 53.6555 30.5801C53.7338 30.5801 53.7972 30.5577 53.8495 30.5055C53.898 30.4458 53.9241 30.3786 53.9241 30.2966C53.9241 30.207 53.898 30.1399 53.8495 30.0876C53.7972 30.0391 53.7301 30.013 53.6405 30.013H53.2077V29.8339L53.5808 29.237H52.7152V28.5952H54.5957V28.7146L54.0883 29.5205Z" fill="#111B1E"/>
<path d="M9.11914 50.2794H14.365" stroke="black" stroke-width="1.55536"/>
<path d="M75.3857 50.2794H80.6316" stroke="black" stroke-width="1.55536"/>
</svg>
